<svg xmlns="http://www.w3.org/2000/svg" viewBox="0 0 299.357 121.892">
    <path d="M1.323 103.859c46.059 20.78 52.44-17.11 39.205-35.22-9.05-12.384-38.04-16.12-37.977-6.168.168 25.95 63.664 13.317 44.035-14.174-6.999-8.079-12.877-17.462-31.561-11.907 15.102-14.906 25.112-12.209 34.772-8.315-2.781-11.258.057-19.331 5.292-26.08 9.036 9.012 7.429 19.742 7.37 27.403 9.697-6.296 16.253-4.936 23.813-.19-29.74 10.14-4.38 13.258-26.647 29.483 8.567 20.342 10.217 15.672 30.049 19.088 27.326 4.707 20.68-23.396-.945-17.01-11.123 3.286-18.427 5.687-19.277 22.301 8.537 40.17 36.723 22.108 51.594 17.765 18.184-5.31 30.484 1.234 36.286-.945-17.348-24.735-35.968-7.416-57.83-5.67 33.224-13.733 25.848-23.517 26.836-32.316-3.205-18.021-12.411-30.69-34.207-32.128 25.013-12.436 38.473-2.656 43.845 22.678 12.103-45.17 38.914-39.468 48.192-28.726 11.219 12.99-.295 26.146-3.402 27.025-3.831 2.571-30.01 5.178-28.348-7.37 2.99-22.596 46.988 7.573 50.46 29.482 6.655-27.433 15.247-49.159 35.34-38.931 19.844 10.1-.784 21.719-7.748 18.331-23.592-11.475-20.868-32.218-11.34-37.42 29.516-13.48 41.166 28.512 44.035 38.082-1.926-24.009 5.214-35.157 24.946-28.443-13.533 6.21-16.483 19.443-16.725 34.396-.44 27.083 12.108 24.236 19.371 33.545-26.283-9.157-47.925-11.33-49.987 15.97 12.88-8.843 32.223-19.111 49.987-15.87 6.162 5.688 4.82 9.856 7.276 11.434" stroke="#000" stroke-linecap="round"/>
    <path d="M175.488 58.947c-.8.002-1.622.042-2.47.122 2.534 4.9 8.126 14.998 20.223 21.734-11.022 2.74-23.976 3.893-28.35 12.095 12.694 7.126 21.272 1.65 30.05-3.213-1.179 18.091 1.05 28.288 5.859 30.616 9.433-9.006 6.369-19.465 5.48-29.671 14.177 15.58 21.55 12.042 30.805 13.796-5.6-7.826-3.574-15.932-28.348-23.057 5.773-3.08 19.819-5.547 28.915-17.387-9.4-2.755-19.646-3.301-34.773 8.883-8.584-5.532-15.4-13.947-27.39-13.918z" stroke="#0a0000"/>
</svg>
