<svg xmlns="http://www.w3.org/2000/svg" viewBox="0 0 679.3 285.7">
  <defs>
    <path id="a" d="M829.9 378.7h797.7v339.8H829.9z"/>
  </defs>
  <g fill="none" stroke-linecap="round" stroke-linejoin="round">
    <path stroke="#000" d="M279.2 174h69.7v-46h-69.7z" stroke-width="2.269"/>
    <path d="m282.4 170.6 31.8-22.7 31.7 23.4" stroke="#000" stroke-width="6.807"/>
    <path d="m282.4 170.6 31.8-22.7 31.7 23.4" stroke="#fff" stroke-width="2.269"/>
    <path stroke="#000" d="M199 25.3h-69.7v46H199z" stroke-width="2.269"/>
    <path d="M195.7 28.7 132.4 68" stroke="#000" stroke-width="6.807"/>
    <path d="m132.4 68.1 63.3-39.4" stroke="#fff" stroke-width="2.269"/>
    <path stroke="#000" d="M348.8 76.7h-69.6v46h69.6zM348.8 179.3h-69.6v46h69.6zM204 179.4h69.7v46.1h-69.6z" stroke-width="2.269"/>
    <path d="m207.4 182.8 31.8 22.7 31.7-23.4" stroke="#000" stroke-width="6.807"/>
    <path d="m207.4 182.8 31.8 22.7 31.7-23.4" stroke="#fff" stroke-width="2.269"/>
    <g stroke="#000">
      <path d="M124 128H54.2v46h69.6z" stroke-width="2.269"/>
      <path d="m120.7 131.4-63.3 39.4" stroke-width="6.807"/>
    </g>
    <path stroke="#000" d="M129 179.4h69.7v46.1h-69.6z" stroke-width="2.269"/>
    <path d="m132.4 182.8 31.8 22.7 31.7-23.4" stroke="#000" stroke-width="6.807"/>
    <path d="m132.4 182.8 31.8 22.7 31.7-23.4" stroke="#fff" stroke-width="2.269"/>
    <path stroke="#000" d="M129.2 76.7h69.6v46h-69.6z" stroke-width="2.269"/>
    <path d="m132.4 80 63.2 39.5" stroke="#000" stroke-width="6.807"/>
    <path d="m132.4 80 63.2 39.5" stroke="#fff" stroke-width="2.269"/>
    <g stroke="#000">
      <path d="M54 122.7h69.7V76.6H54.1z" stroke-width="2.269"/>
      <path d="m57.4 119.3 31.8-22.8L121 120" stroke-width="6.807"/>
    </g>
    <g>
      <path stroke="#000" d="M204.2 25.4h69.6v46h-69.6z" stroke-width="2.269"/>
      <path d="M207.4 28.7 270.6 68" stroke="#000" stroke-width="6.807"/>
      <path d="M207.4 28.7 270.6 68" stroke="#fff" stroke-width="2.269"/>
    </g>
    <g>
      <path stroke="#000" d="M274 76.6h-69.7v46.1H274z" stroke-width="2.269"/>
      <path d="m270.7 80-63.2 39.5" stroke="#000" stroke-width="6.807"/>
      <path d="M207.5 119.5 270.7 80" stroke="#fff" stroke-width="2.269"/>
    </g>
    <g>
      <path stroke="#000" d="M199 128h-69.7v46H199z" stroke-width="2.269"/>
      <path d="m195.7 131.4-63.3 39.4" stroke="#000" stroke-width="6.807"/>
      <path d="m132.4 170.8 63.3-39.4" stroke="#fff" stroke-width="2.269"/>
    </g>
    <g>
      <path stroke="#000" d="M124 179.4H54.3v46H124z" stroke-width="2.269"/>
      <path d="m120.7 182.8-63.3 39.4" stroke="#000" stroke-width="6.807"/>
      <path d="m57.4 222.2 63.3-39.4" stroke="#fff" stroke-width="2.269"/>
    </g>
    <path stroke="#000" d="M124 25.2H54.3v46H124zM348.8 25.2h-69.6v46h69.6z" stroke-width="2.269"/>
    <g stroke="#000">
      <path d="M204 128h69.7v46h-69.6z" stroke-width="2.269"/>
      <path d="m207.4 131.4 31.8 22.7 31.7-23.3" stroke-width="6.807"/>
    </g>
  </g>
  <text xml:space="preserve" style="line-height:1.25;-inkscape-font-specification:'Fira Code'" x="147.1" y="314.8" font-weight="400" font-size="24" font-family="Fira Code" letter-spacing="0" word-spacing="0" stroke-width=".6" transform="translate(-67 -60.6)"><tspan x="147.1" y="314.8" style="-inkscape-font-specification:'Fira Code'">A</tspan></text>
  <text xml:space="preserve" style="line-height:1.25;-inkscape-font-specification:'Fira Code'" x="221.4" y="314.8" font-weight="400" font-size="24" font-family="Fira Code" letter-spacing="0" word-spacing="0" stroke-width=".6" transform="translate(-67 -60.6)"><tspan x="221.4" y="314.8" style="-inkscape-font-specification:'Fira Code'">B</tspan></text>
  <text xml:space="preserve" style="line-height:1.25;-inkscape-font-specification:'Fira Code'" x="296.7" y="314.8" font-weight="400" font-size="24" font-family="Fira Code" letter-spacing="0" word-spacing="0" stroke-width=".6" transform="translate(-67 -60.6)"><tspan x="296.7" y="314.8" style="-inkscape-font-specification:'Fira Code'">C</tspan></text>
  <text xml:space="preserve" style="line-height:1.25;-inkscape-font-specification:'Fira Code'" x="370.6" y="314.8" font-weight="400" font-size="24" font-family="Fira Code" letter-spacing="0" word-spacing="0" stroke-width=".6" transform="translate(-67 -60.6)"><tspan x="370.6" y="314.8" style="-inkscape-font-specification:'Fira Code'">D</tspan></text>
  <text xml:space="preserve" style="line-height:1.25" x="10.3" y="244.5" font-weight="400" font-size="10.6" font-family="sans-serif" letter-spacing="0" word-spacing="0" stroke-width=".3" transform="translate(-67 -60.6)"/>
  <text xml:space="preserve" style="line-height:1.25;-inkscape-font-specification:'Fira Code'" x="85.8" y="273.1" font-weight="400" font-size="24" font-family="Fira Code" letter-spacing="0" word-spacing="0" stroke-width=".6" transform="translate(-67 -60.6)"><tspan x="85.8" y="273.1" style="-inkscape-font-specification:'Fira Code'">1</tspan></text>
  <text xml:space="preserve" style="line-height:1.25;-inkscape-font-specification:'Fira Code'" x="85.8" y="221.8" font-weight="400" font-size="24" font-family="Fira Code" letter-spacing="0" word-spacing="0" stroke-width=".6" transform="translate(-67 -60.6)"><tspan x="85.8" y="221.8" style="-inkscape-font-specification:'Fira Code'">2</tspan></text>
  <text xml:space="preserve" style="line-height:1.25;-inkscape-font-specification:'Fira Code'" x="85.8" y="170.4" font-weight="400" font-size="24" font-family="Fira Code" letter-spacing="0" word-spacing="0" stroke-width=".6" transform="translate(-67 -60.6)"><tspan x="85.8" y="170.4" style="-inkscape-font-specification:'Fira Code'">3</tspan></text>
  <text xml:space="preserve" style="line-height:1.25;-inkscape-font-specification:'Fira Code'" x="85.8" y="119" font-weight="400" font-size="24" font-family="Fira Code" letter-spacing="0" word-spacing="0" stroke-width=".6" transform="translate(-67 -60.6)"><tspan x="85.8" y="119" style="-inkscape-font-specification:'Fira Code'">4</tspan></text>
  <path style="line-height:normal;font-variant-ligatures:normal;font-variant-position:normal;font-variant-caps:normal;font-variant-numeric:normal;font-variant-alternates:normal;font-variant-east-asian:normal;font-feature-settings:normal;font-variation-settings:normal;text-indent:0;text-align:start;text-decoration-line:none;text-decoration-style:solid;text-decoration-color:#000;text-transform:none;text-orientation:mixed;white-space:normal;shape-padding:0;shape-margin:0;inline-size:0;isolation:auto;mix-blend-mode:normal;solid-color:#000;solid-opacity:1" d="M1834.5 549.6a33.2 33.2 0 0 0-24.4 55.5l-42.8 51.2a33.2 33.2 0 1 0 1.9 55.5l39.5 41.5a33.2 33.2 0 0 0 2 43.5l1.8 1.3-42.4 48.6c-6-4.4-13.5-6.6-21-6.3l-7.4 1.1a33.2 33.2 0 0 0-12.2 57.8l-35 45.2a33.2 33.2 0 0 0-53.3 25.3l-79.5-.4 58.9-68.9a29.3 29.3 0 0 0 34.7-46.9l34.6-51a29.2 29.2 0 1 0-23.4-32.3l-66.2 1.8a29.3 29.3 0 0 0-58 4.9c0 14.8 11 27 25.3 29l-17 163.3h-11l-.1 7.5 102.3.6a33.2 33.2 0 1 0 58.2-27.6l35.9-46.4a33.2 33.2 0 0 0 46.8-21.6l109.4.5a33.2 33.2 0 0 0 65.7-.6l104.4-.9a33.2 33.2 0 0 0 66-.2h104.2a33.2 33.2 0 0 0 66-.1l87.3-.2v-7.6l-87.2.2a33.2 33.2 0 0 0-66 .1h-104.3a33.2 33.2 0 0 0-66 .3l-104.2.9a33.2 33.2 0 0 0-53-24l-5.5 5.1a33.2 33.2 0 0 0-7.8 19.4l-108-.5c.2-8-2.6-16-8-22.4l42.8-49a33.2 33.2 0 0 0 35.6-2l5.6-5c4.2-4.8 7-10.7 8-17l102.4-1.3a33.2 33.2 0 1 0 0-7.5l-102.2 1.2a33.2 33.2 0 0 0-6.8-17.7l40-41.3a33.2 33.2 0 1 0 .6-55.5l-42.4-51.4a33.2 33.2 0 0 0-24.8-55.7zm.6 8.7h.2a24.5 24.5 0 1 1-.2 0zm-19.3 51.8a33.2 33.2 0 0 0 37.8.1l42.3 51.3a33.2 33.2 0 0 0-.6 45.8l-39.5 40.7a33.2 33.2 0 0 0-41.8-.1l-39.2-41.1a33.2 33.2 0 0 0-1.6-45.8l42.6-50.9zm103.8 49.7h.2a24.5 24.5 0 1 1-.2 0zm-170 1h.2a24.5 24.5 0 1 1-.2 0zm84 88h.2a24.5 24.5 0 1 1-.2 0zm169 0h.2a24.5 24.5 0 1 1-.2 0zm-307.1 3.5c12 0 21.7 9.7 21.7 21.7s-9.7 21.7-21.7 21.7a21.6 21.6 0 1 1 0-43.4zm-124 3c12 0 21.7 9.7 21.7 21.7s-9.7 21.7-21.7 21.7a21.6 21.6 0 1 1 0-43.4zm95 22.5c1.3 9.8 7.5 18 16 22.3l-33.6 49.4a29.3 29.3 0 0 0-34 46l-55.8 65.2 16-154.7a29.3 29.3 0 0 0 25.5-26.3l66-1.9zm83.5 71a24.5 24.5 0 1 1-19.8 9.8v-.2a24.5 24.5 0 0 1 19.8-9.7zm175.3 2.7h.2a24.5 24.5 0 1 1-.2 0zm340 0h.2a24.5 24.5 0 1 1-.2 0zm-170 1h.2a24.5 24.5 0 1 1-.2 0zm-458.8 1.8c12 0 21.7 9.7 21.7 21.7s-9.7 21.7-21.7 21.7-21.7-9.7-21.7-21.7 9.7-21.7 21.7-21.7zm37.6 91.4h.2a24.5 24.5 0 1 1-.2 0z" transform="scale(.26458)" color="#000" font-weight="400" font-family="sans-serif" overflow="visible"/>
  <path d="M387 252.8c-2.1 0-3.8 1.6-3.8 3.7v.7c0 2.1 1.7 3.8 3.7 3.8h22.2c2 0 3.7-1.7 3.7-3.8v-.7c0-2.1-1.6-3.7-3.7-3.7zm8 2.2a2.3 2.3 0 0 1 .5 0v.4a2 2 0 0 0-.4 0l-.4.1-.1.5h.8v.4h-.8v2.2h-.4v-2.2h-.3v-.4h.3c0-.4 0-.6.2-.8l.6-.2zm9 0h.3v3.6h-.4v-.2l-.4.2a1 1 0 0 1-.4.1.9.9 0 0 1-.8-.3l-.2-1v-.6l.3-.5a1 1 0 0 1 .8-.3 1.4 1.4 0 0 1 .7.1zm-5.1.1a3 3 0 0 1 1.2.3v.5l-.6-.3a2 2 0 0 0-.6 0 1 1 0 0 0-.6 0c-.2.2-.2.3-.2.5v.3l.5.2a9.7 9.7 0 0 0 .9.2c.2 0 .4.1.5.3.2.1.2.3.2.5v.4l-.3.4-.5.2-.6.1a3 3 0 0 1-1.2-.3v-.6l.6.4.6.1c.3 0 .6 0 .7-.2.2 0 .3-.2.3-.4 0-.1 0-.3-.2-.3 0-.1-.1-.2-.3-.2h-.4l-.4-.1-.7-.4a.9.9 0 0 1-.2-.6c0-.3.1-.5.4-.7.2-.2.5-.3.9-.3zm2 0h.5v.5h-.5zm-12.2 0h.4v3.1h1.8v.4h-2.2zm7.1.2h.5v.7h.9v.4h-1v1.5l.1.2.2.2h.6v.3a2.4 2.4 0 0 1-.5 0l-.6-.1-.2-.7v-1.4h-.3v-.4h.3zm-3.4.7c.3 0 .6 0 .8.3.2.2.3.5.3.8v.3h-2l.1.4a.8.8 0 0 0 .5.5h.9l.4-.3v.5l-.4.1-.5.1c-.5 0-.8-.1-1-.4-.3-.2-.4-.5-.4-1 0-.4.1-.7.4-1 .2-.2.5-.3.9-.3zm13.9 0c.3 0 .6 0 .8.3.2.2.3.5.3.8v.3h-2l.1.4a.8.8 0 0 0 .5.5h.9l.4-.3v.5l-.4.1-.5.1c-.4 0-.8-.1-1-.4-.3-.2-.4-.5-.4-1 0-.4.1-.7.4-1 .2-.2.5-.3.9-.3zm-5.4 0h.5v2.6h-.5zm-8.6.3-.5.2c-.2.2-.2.3-.2.5h1.4l-.1-.5-.6-.2zm14 0-.6.2-.2.5h1.5l-.2-.5-.5-.2zm-3 0c-.3 0-.4.2-.6.3l-.2.7c0 .4 0 .6.2.8 0 .1.2.2.5.2h.4l.3-.3v-1.5l-.3-.1h-.3zM633.3 227.9c-2 0-3.7 1.6-3.7 3.7v.8c0 2 1.7 3.7 3.7 3.7h22.3c2 0 3.7-1.7 3.7-3.7v-.8c0-2-1.7-3.7-3.7-3.7zm7.6 1.8h.5v1.3l.4-.3h.4c.3 0 .5 0 .7.2l.2.7v1.7h-.4v-1.8l-.1-.3-.2-.1h-.3a1 1 0 0 0-.4 0l-.3.3v1.9h-.5zm11.2 0h.4v3.6h-.4v-.3l-.4.3a1 1 0 0 1-.5 0 .9.9 0 0 1-.7-.3c-.2-.2-.3-.6-.3-1l.1-.6.3-.4a1 1 0 0 1 .8-.4 1.4 1.4 0 0 1 .7.2zm-5 0a3 3 0 0 1 1.1.3v.6c-.1-.2-.3-.2-.5-.3a2 2 0 0 0-.7-.1 1 1 0 0 0-.6.1l-.2.4.1.4.4.1a9.7 9.7 0 0 0 .9.2c.3 0 .4.2.6.3l.2.6-.1.4-.3.3-.4.3h-.6a3 3 0 0 1-1.3-.2v-.6l.6.3.7.2c.3 0 .5 0 .7-.2l.2-.4-.1-.4-.4-.1-.3-.1h-.5l-.7-.4a.9.9 0 0 1-.2-.6c0-.3.1-.6.4-.7.2-.2.5-.3 1-.3zm-10.5.1h.5v.5h-.5zm12.5 0h.4v.5h-.4zm-15.7 0h1.5l.3.2.3.3.1.5-.1.6-.6.4 1.3 1.5h-.6l-1.1-1.4h-.7v1.4h-.4zm10.6.2h.4v.7h.9v.4h-1v1.2l.1.3v.2l.2.1h.7v.4a2.4 2.4 0 0 1-.5 0c-.3 0-.5 0-.6-.2-.2-.1-.2-.3-.2-.7v-1.3h-.3v-.4h.3zm-10.2.2v1.3h.9a.6.6 0 0 0 .4-.4v-.6l-.2-.1-.2-.1h-.3zm5.1.4a1.3 1.3 0 0 1 .7.2v-.1h.5v2.3c0 .4-.1.8-.3 1-.2.2-.5.3-1 .3a2.7 2.7 0 0 1-.7-.1v-.5a3.3 3.3 0 0 0 .8.2h.4a.5.5 0 0 0 .3-.4v-.6l-.3.3h-.5a1 1 0 0 1-.7-.3c-.2-.2-.3-.5-.3-1v-.5l.3-.4.4-.3h.4zm15.5 0c.4 0 .6.1.8.3.2.2.3.5.3 1v.1h-1.9v.5a.8.8 0 0 0 .6.4H655l.4-.2v.4l-.5.2h-.5c-.4 0-.7 0-1-.3-.2-.2-.3-.6-.3-1s0-.7.3-1c.2-.2.6-.4 1-.4zm-17.7.1h.4v2.6h-.4zm12.4 0h.4v2.6h-.4zm5.3.3c-.2 0-.4 0-.6.2l-.2.5h1.5c0-.2 0-.4-.2-.5l-.5-.2zm-15.4 0-.6.3-.2.7c0 .3 0 .5.2.6 0 .2.3.3.5.3l.4-.1.3-.2v-1.4a1.6 1.6 0 0 0-.6-.2zm12.4 0c-.2 0-.4.1-.5.3-.2.2-.2.4-.2.7l.1.7c.1.2.3.3.5.3l.4-.1.4-.2v-1.5l-.4-.1h-.3z" fill-rule="evenodd"/>
  <g aria-label="0,0" style="line-height:1.25" font-size="5.8" font-family="Fira Code" letter-spacing="0" word-spacing="0" stroke-width=".3" font-weight="400">
    <path d="M510.4 188.5q.7 0 1 .6.3.5.3 1.5t-.3 1.6q-.3.6-1 .6t-1-.6q-.4-.6-.4-1.6t.4-1.5q.3-.6 1-.6zm0 .4q-.4 0-.6.4-.2.4-.2 1.3v.8l.2.6q0 .2.2.2l.4.1.4-.1.3-.6.1-1v-1l-.3-.5q-.2-.2-.5-.2zm.6.2.1.4-1.3 2.6-.2-.3zM514 191.7l.3.1.2.4v.2l-.2.2-.4 1.2h-.5l.3-1.2-.2-.2v-.2l.1-.4.4-.1zM517.6 188.5q.6 0 1 .6.3.5.3 1.5t-.3 1.6q-.4.6-1 .6-.7 0-1-.6-.4-.6-.4-1.6t.3-1.5q.4-.6 1-.6zm0 .4q-.4 0-.6.4-.3.4-.3 1.3v.8l.2.6q.1.2.3.2l.4.1.4-.1.3-.6v-2l-.3-.5-.4-.2zm.6.2v.4L517 192l-.2-.3z" style="-inkscape-font-specification:'Fira Code'" transform="translate(-70.8 65.9)"/>
  </g>
  <g aria-label="2,2" style="line-height:1.25" font-size="5.8" font-family="Fira Code" letter-spacing="0" word-spacing="0" stroke-width=".3" font-weight="400">
    <path d="m552.5 136.5.6.1.4.4.2.6-.1.6-.3.5-.6.7-.8.8h1.9v.5h-2.5v-.5l.8-.7.5-.6.3-.5.2-.4v-.4l-.1-.5q-.2-.2-.6-.2l-.5.1-.4.3-.3-.2.5-.5.8-.1zM556.2 139.7l.4.1.1.4v.2l-.1.2-.5 1.1h-.4l.2-1.2-.1-.1V139.8l.4-.1zM559.6 136.5l.7.1.4.4.2.6-.1.6q-.1.3-.4.5l-.5.7-.9.8h2l-.1.5h-2.5v-.5l.8-.7.6-.6.3-.5.2-.4v-.4q0-.3-.2-.5t-.5-.2l-.5.1-.4.3-.3-.2.5-.5.7-.1z" style="-inkscape-font-specification:'Fira Code'" transform="translate(-70.8 65.9)"/>
  </g>
  <g aria-label="2,1" style="line-height:1.25" font-size="5.8" font-family="Fira Code" letter-spacing="0" word-spacing="0" stroke-width=".3" font-weight="400">
    <path d="M576.6 163.1q.4 0 .7.2l.4.4.1.6v.5l-.4.6-.5.7-.9.8h2l-.1.4h-2.5v-.4l.8-.8.6-.6.3-.4.2-.4v-.4q0-.3-.2-.5t-.5-.2h-.5l-.4.4-.4-.3.6-.4q.3-.2.7-.2zM580.4 166.3q.2 0 .3.2l.1.3v.5l-.6 1h-.4l.3-1-.2-.3v-.2l.1-.3.4-.2zM584.4 163.2v4h-.5v-3.5l-1 .6-.2-.3 1.2-.8zm.8 3.7v.4H583v-.4z" style="-inkscape-font-specification:'Fira Code'" transform="translate(-70.8 65.9)"/>
  </g>
  <g aria-label="3,2" style="line-height:1.25" font-size="5.8" font-family="Fira Code" letter-spacing="0" word-spacing="0" stroke-width=".3" font-weight="400">
    <path d="M597.2 136.5q.4 0 .7.2.3.1.4.4.2.2.2.5l-.1.4-.3.4-.4.1.4.2q.3 0 .4.3l.1.5q0 .4-.2.7-.1.3-.5.4-.3.2-.7.2l-.7-.1-.6-.5.4-.2q.1.2.4.3h.5l.7-.1q.2-.3.2-.7l-.1-.4-.3-.3h-.8v-.4h.3l.4-.1q.2 0 .3-.3v-.4l-.1-.5-.6-.2-.5.1-.4.3-.2-.3.5-.3.6-.2zM601 139.7q.2 0 .3.2.2.1.2.3v.2l-.1.3-.5 1h-.5l.3-1-.1-.3v-.5l.4-.2zM604.4 136.5q.4 0 .7.2l.4.4.1.6v.5l-.4.6-.5.7-.9.8h2l-.1.4h-2.5v-.4l.8-.8.6-.6.3-.4.2-.4v-.4q0-.3-.2-.5t-.5-.2h-.5l-.4.4-.4-.3.6-.4q.3-.2.7-.2z" style="-inkscape-font-specification:'Fira Code'" transform="translate(-70.8 65.9)"/>
  </g>
  <g aria-label="3,3" style="line-height:1.25" font-size="5.8" font-family="Fira Code" letter-spacing="0" word-spacing="0" stroke-width=".3" font-weight="400">
    <path d="m574.7 112.7.7.1q.3.1.4.4.2.2.2.5l-.1.4-.3.4-.4.2h.5l.3.4.1.6-.1.6q-.2.3-.5.4l-.8.2-.7-.1-.6-.4.4-.3.4.3.5.1q.4 0 .7-.2l.2-.6-.1-.5q-.1-.2-.3-.2l-.4-.1h-.4v-.4h.7l.3-.3.1-.4q0-.4-.2-.6l-.6-.1h-.4l-.4.3-.3-.3.5-.3.6-.1zM578.5 115.9l.4.1.1.3v.3l-.1.2-.5 1.1h-.5l.3-1.2-.1-.1v-.6l.4-.1zM582 112.7l.6.1q.3.1.4.4.2.2.2.5l-.1.4-.3.4-.4.2h.4l.4.4.1.6-.2.6q-.2.3-.5.4-.3.2-.7.2l-.7-.1q-.4-.1-.6-.4l.3-.3.5.3.5.1q.4 0 .6-.2.3-.3.3-.6l-.1-.5q-.1-.2-.3-.2l-.5-.1h-.3v-.4h.7l.3-.3v-.4q0-.4-.2-.6l-.5-.1h-.5l-.4.3-.3-.3.6-.3.6-.1z" style="-inkscape-font-specification:'Fira Code'" transform="translate(-70.8 65.9)"/>
  </g>
  <g aria-label="1,3" style="line-height:1.25" font-size="5.8" font-family="Fira Code" letter-spacing="0" word-spacing="0" stroke-width=".3" font-weight="400">
    <path d="M531 113.7v4h-.5v-3.5l-1 .6-.2-.4 1.2-.7zm.8 3.7v.4h-2.3v-.4zM534.1 116.8l.4.1.1.4v.2l-.1.2-.5 1.1h-.4l.2-1.1-.1-.2V116.9l.4-.1zM537.5 113.6l.7.1.4.4q.2.2.2.5l-.1.5-.3.3-.4.2.4.1.4.4.1.5-.2.6q-.1.3-.5.5l-.7.1h-.7l-.6-.5.4-.3q.1.2.4.3l.5.1q.4 0 .6-.2.3-.2.3-.6l-.1-.5-.3-.2h-.8v-.5h.7l.3-.3v-.4l-.1-.5-.6-.2h-.5l-.4.4-.2-.3q.2-.3.5-.4l.6-.1z" style="-inkscape-font-specification:'Fira Code'" transform="translate(-70.8 65.9)"/>
  </g>
  <g aria-label="2,4" style="line-height:1.25" font-size="5.8" font-family="Fira Code" letter-spacing="0" word-spacing="0" stroke-width=".3" font-weight="400">
    <path d="m553 86 .6.2.4.4.2.6-.1.6-.4.5-.5.7-.9.8h2l-.1.5h-2.5v-.5l.8-.7.6-.6.3-.5.2-.4v-.4q0-.3-.2-.5t-.5-.2l-.5.1-.4.3-.3-.2.5-.5.7-.1zM556.7 89.3l.3.1.2.3v.3l-.1.2-.5 1.1h-.5l.3-1.2-.1-.1v-.6l.4-.1zM560.1 86l.4.3-1 2.6h2.1v.4H559v-.4Zm1 1.7v2.6h-.5V87.7z" style="-inkscape-font-specification:'Fira Code'" transform="translate(-70.8 65.9)"/>
  </g>
  <g aria-label="3,1" style="line-height:1.25" font-size="5.8" font-family="Fira Code" letter-spacing="0" word-spacing="0" stroke-width=".3" font-weight="400">
    <path d="M621.5 164h.7l.4.4.2.6-.1.4-.3.3-.4.2.4.2q.2 0 .4.3l.1.5q0 .4-.2.7l-.5.4q-.3.2-.7.2-.4 0-.7-.2-.4 0-.6-.4l.3-.2.5.3h.5q.4 0 .6-.2.3-.2.3-.6l-.1-.4-.3-.3h-.8v-.5h.7l.3-.3v-.4q0-.3-.2-.5t-.5-.2l-.5.1-.4.3-.3-.3.6-.4h.6zM625.3 167.1q.2 0 .3.2.2.1.2.3v.2l-.2.3-.4 1h-.5l.3-1.1-.2-.2v-.2l.1-.3.4-.2zM629.3 164v4h-.5v-3.5l-1 .6-.2-.3 1.3-.8zm.9 3.7v.4h-2.4v-.4z" style="-inkscape-font-specification:'Fira Code'" transform="translate(-70.8 65.9)"/>
  </g>
  <g aria-label="4,1" style="line-height:1.25" font-size="5.8" font-family="Fira Code" letter-spacing="0" word-spacing="0" stroke-width=".3" font-weight="400">
    <path d="m666.5 163.8.4.2-1.1 2.6h2.2v.4h-2.8v-.4zm1 1.6v2.6h-.5v-2.6zM670.2 167l.3.1.2.4v.2l-.1.2-.5 1.1h-.5l.3-1.1-.1-.2V167.1l.4-.1zM674.2 163.9v4h-.5v-3.5l-1 .6-.2-.4 1.3-.7zm.9 3.7v.4h-2.4v-.4z" style="-inkscape-font-specification:'Fira Code'" transform="translate(-70.8 65.9)"/>
  </g>
  <g aria-label="1,1" style="line-height:1.25" font-size="5.8" font-family="Fira Code" letter-spacing="0" word-spacing="0" stroke-width=".3" font-weight="400">
    <path d="M530.8 162.5v4h-.5v-3.4l-1 .6-.2-.4 1.3-.8zm.9 3.7v.5h-2.4v-.5zM534 165.7l.3.1.1.3v.5l-.6 1.1h-.4l.3-1.2-.2-.1v-.3l.1-.3.3-.1zM538 162.5v4h-.5v-3.4l-1 .6-.2-.4 1.2-.8zm.8 3.7v.5h-2.4v-.5z" style="-inkscape-font-specification:'Fira Code'" transform="translate(-70.8 65.9)"/>
  </g>
  <g aria-label="0,1" style="line-height:1.25" font-size="5.8" font-family="Fira Code" letter-spacing="0" word-spacing="0" stroke-width=".3" font-weight="400">
    <path d="M500.2 163.3q.7 0 1 .5.4.6.4 1.6t-.4 1.6q-.3.5-1 .5t-1-.5q-.3-.6-.3-1.6t.3-1.6q.3-.5 1-.5zm0 .4q-.4 0-.6.4-.2.4-.2 1.3v.8q0 .3.2.5 0 .2.2.3l.4.1q.3 0 .4-.2.2-.1.3-.5l.1-1v-1l-.3-.6-.5-.1zm.6.1.1.5-1.3 2.6-.1-.3zM503.8 166.5l.3.1q.2.1.2.3v.3l-.1.2-.5 1.1h-.5l.3-1.2-.1-.1v-.6l.4-.1zM507.8 163.3v4h-.5V164l-1 .6-.2-.4 1.3-.8zm.9 3.7v.4h-2.4v-.4z" style="-inkscape-font-specification:'Fira Code'" transform="translate(-70.8 65.9)"/>
  </g>
  <g aria-label="1,2" style="line-height:1.25" font-size="5.8" font-family="Fira Code" letter-spacing="0" word-spacing="0" stroke-width=".3" font-weight="400">
    <path d="M516.4 136.5v4h-.5V137l-1 .6-.2-.4 1.2-.7zm.8 3.7v.4H515v-.4zM519.5 139.6l.4.1.1.4v.2l-.1.2-.5 1.1h-.5l.3-1.1-.1-.2V139.7l.4-.1zM523 136.4l.6.1q.3.2.4.5.2.2.2.5l-.1.6-.4.6-.5.6-.9.8h2l-.1.5h-2.5v-.4l.8-.8.6-.6.3-.5.2-.3v-.4q0-.4-.2-.6-.2-.2-.5-.2l-.5.1-.4.4-.3-.3.5-.5.7-.1z" style="-inkscape-font-specification:'Fira Code'" transform="translate(-70.8 65.9)"/>
  </g>
  <g aria-label="0,2" style="line-height:1.25" font-size="5.8" font-family="Fira Code" letter-spacing="0" word-spacing="0" stroke-width=".3" font-weight="400">
    <path d="M483 137q.7 0 1 .6.4.6.4 1.6t-.3 1.6q-.4.5-1 .5-.7 0-1-.5-.4-.6-.4-1.6t.4-1.6q.3-.5 1-.5zm0 .5q-.3 0-.5.4t-.2 1.3v.8q0 .3.2.5 0 .2.2.3l.4.1.4-.2q.2-.1.3-.5l.1-1v-1l-.4-.5q-.1-.2-.4-.2zm.7.1.1.5-1.3 2.6-.2-.3zM486.7 140.3l.3.1.1.3v.5l-.6 1.1h-.4l.3-1.2-.2-.1v-.3l.1-.3.4-.1zM490 137q.5 0 .7.2l.5.4.1.6v.6l-.4.5-.6.7-.8.8h1.9v.5h-2.5v-.5l.8-.7.5-.6.4-.5.1-.4v-.4l-.1-.5q-.2-.2-.6-.2l-.5.1-.3.3-.4-.2.6-.5.7-.1z" style="-inkscape-font-specification:'Fira Code'" transform="translate(-70.8 65.9)"/>
  </g>
  <g aria-label="Corner-wise" style="line-height:1.25" font-size="10.6" font-family="Fira Code" letter-spacing="0" word-spacing="0" stroke-width=".3" font-weight="400">
    <path d="m623.2 135 1.2.1 1 .5-.6.7-.7-.5h-.8q-.7 0-1.2.2-.5.3-.8 1-.3.6-.3 1.8 0 1 .3 1.8.3.6.8 1 .5.2 1.1.2.7 0 1-.2.5-.1.8-.4l.5.6q-.4.4-1 .6-.5.2-1.3.2-.9 0-1.6-.4-.8-.5-1.2-1.3-.4-.9-.4-2.1 0-1.3.4-2.1.5-.9 1.2-1.3.7-.5 1.6-.5zM629 136.7q.9 0 1.4.3.6.4.9 1 .2.7.2 1.7 0 .8-.3 1.5-.2.7-.8 1-.5.4-1.3.4t-1.4-.3q-.5-.4-.8-1-.3-.7-.3-1.6 0-1 .3-1.6.3-.7.8-1 .6-.4 1.4-.4zm0 .7q-.7 0-1 .6-.4.5-.4 1.7 0 1 .4 1.6.3.6 1 .6.8 0 1.2-.6.4-.5.4-1.6 0-1.2-.4-1.7-.4-.6-1.1-.6zM633.5 142.5v-.7h.9v-4.3h-1v-.7h1.7l.1 1.4q.4-.8.8-1.1.5-.4 1.3-.4h.4l.4.1-.3.8h-.6q-.7 0-1.2.4-.4.4-.7 1.4v2.4h1.1v.7zm3.7-3.8v-1.2l.1-.7h.8l-.1 2zM640 142.5v-5.7h.7v.8l1-.7 1-.2q.8 0 1.2.4.4.5.4 1.3v4.1h-1V138q0-.3-.3-.4-.2-.2-.6-.2l-.7.1-.5.4-.4.5v4.1zM647.2 140q0 .6.2 1 .2.5.6.7l.8.2q.5 0 .8-.2.4 0 .8-.3l.4.6-1 .5-1 .1q-.8 0-1.4-.3-.6-.4-.9-1-.3-.8-.3-1.6 0-.9.3-1.6.3-.6.9-1 .5-.4 1.3-.4.7 0 1.2.3.6.4.8 1 .3.6.3 1.5v.5zm1.5-2.6q-.6 0-1 .5-.5.4-.5 1.4h3q0-1-.5-1.4-.3-.5-1-.5zM653 142.5v-.7h.9v-4.3h-.9v-.7h1.6l.2 1.4q.3-.8.8-1.1.4-.4 1.2-.4h.4l.4.1-.2.8h-.7q-.7 0-1.1.4-.5.4-.8 1.4v2.4h1.2v.7zm3.7-3.8v-1.2l.1-.7h.8l-.1 2zM659.5 140v-.8h4.3v.7zM670.2 142.5H669l-.7-4.2-.8 4.2H666l-1-5.7h1l.6 5.2 1-4.5h1l.9 4.5.7-5.2h1zM675.4 136.8v5h1.6v.7h-4.3v-.7h1.8v-4.3h-1.7v-.7zm-.7-2.7q.3 0 .4.2.2.2.2.5l-.2.4q-.1.2-.4.2-.3 0-.5-.2l-.2-.4q0-.3.2-.5t.5-.2zM681 141.9q.6 0 1-.3.4-.2.4-.6l-.1-.5q-.1-.2-.4-.3-.3-.2-1-.3l-1-.4q-.4-.1-.6-.5-.3-.3-.3-.8 0-.4.3-.8l.8-.5q.5-.2 1.1-.2.7 0 1.2.2.5.1.9.4l-.4.6-.7-.3q-.4-.2-1-.2-.7 0-1 .2-.2.2-.2.6l.1.4.5.3.9.3 1 .3q.4.2.6.6.3.3.3.8 0 .6-.4 1-.3.4-.9.6l-1.2.1q-.7 0-1.3-.2l-.9-.5.5-.6.8.4q.4.2 1 .2zM686.2 140q0 .6.3 1 .2.5.6.7l.8.2.8-.2q.4 0 .7-.3l.5.6-1 .5-1 .1q-.8 0-1.4-.3-.6-.4-1-1l-.2-1.6q0-.9.3-1.6.3-.6.9-1 .5-.4 1.3-.4.7 0 1.2.3.5.4.8 1 .3.6.3 1.5v.5zm1.6-2.6q-.6 0-1 .5-.5.4-.6 1.4h3q0-1-.4-1.4-.4-.5-1-.5z" style="-inkscape-font-specification:'Fira Code'" transform="translate(-70.8 65.9)"/>
  </g>
  <g>
    <path d="M387 117.4c-2.1 0-3.8 1.7-3.8 3.7v.8c0 2 1.7 3.7 3.7 3.7h22.2c2 0 3.7-1.6 3.7-3.7v-.8c0-2-1.6-3.7-3.7-3.7zm8 2.3a2.3 2.3 0 0 1 .5 0v.4a2 2 0 0 0-.4 0h-.4l-.1.5v.1h.8v.4h-.8v2.2h-.4v-2.2h-.3v-.4h.3c0-.4 0-.6.2-.8.1-.2.4-.2.6-.2zm9 0h.3v3.6h-.4v-.3l-.4.3a1 1 0 0 1-.4 0 .9.9 0 0 1-.8-.3l-.2-1v-.6l.3-.4a1 1 0 0 1 .8-.4 1.4 1.4 0 0 1 .7.2zm-5.1 0a3 3 0 0 1 1.2.3v.6l-.6-.3a2 2 0 0 0-.6-.1 1 1 0 0 0-.6.1c-.2.1-.2.3-.2.4v.4l.5.1a9.7 9.7 0 0 0 .9.2c.2 0 .4.2.5.3.2.2.2.4.2.6v.4l-.3.3-.5.3h-.6a3 3 0 0 1-1.2-.2v-.6l.6.3.6.2c.3 0 .6 0 .7-.2.2-.1.3-.2.3-.4s0-.3-.2-.4l-.3-.1-.4-.1h-.4l-.7-.4a.9.9 0 0 1-.2-.6c0-.3.1-.6.4-.7.2-.2.5-.3.9-.3zm2 .1h.5v.5h-.5zm-12.2 0h.4v3h1.8v.5h-2.2zm7.1.2h.5v.7h.9v.4h-1v1.5l.1.2.2.1h.6v.4a2.4 2.4 0 0 1-.5 0c-.2 0-.4 0-.6-.2-.1-.1-.2-.3-.2-.7v-1.3h-.3v-.4h.3zm-3.4.6c.3 0 .6.1.8.3.2.2.3.5.3 1v.1h-2l.1.5a.8.8 0 0 0 .5.4h.9l.4-.2v.4l-.4.2h-.5c-.5 0-.8 0-1-.3-.3-.2-.4-.6-.4-1s.1-.7.4-1c.2-.2.5-.4.9-.4zm13.9 0c.3 0 .6.1.8.3.2.2.3.5.3 1v.1h-2l.1.5a.8.8 0 0 0 .5.4h.9l.4-.2v.4l-.4.2h-.5c-.4 0-.8 0-1-.3-.3-.2-.4-.6-.4-1s.1-.7.4-1c.2-.2.5-.4.9-.4zm-5.4.1h.5v2.6h-.5zm-8.6.3c-.2 0-.4 0-.5.2-.2.1-.2.3-.2.5h1.4l-.1-.5-.6-.2zm14 0c-.3 0-.5 0-.6.2l-.2.5h1.5l-.2-.5-.5-.2zm-3 0c-.3 0-.4.1-.6.3l-.2.7c0 .3 0 .6.2.7 0 .2.2.3.5.3l.4-.1.3-.2v-1.5l-.3-.1h-.3zM596.3 116.6c-2 0-3.7 1.7-3.7 3.7v.8c0 2 1.6 3.7 3.7 3.7h22.2c2 0 3.7-1.6 3.7-3.7v-.8c0-2-1.6-3.7-3.7-3.7zm7.6 1.8h.4v1.3l.4-.2.5-.1c.3 0 .5 0 .6.2.2.2.3.4.3.8v1.6h-.5V120l-.2-.2h-.3a1 1 0 0 0-.4 0l-.4.3v2h-.4zm11.1 0h.4v3.6h-.4v-.2l-.4.2a1 1 0 0 1-.4.1.9.9 0 0 1-.8-.3l-.2-1v-.6l.3-.5a1 1 0 0 1 .8-.3 1.4 1.4 0 0 1 .7.1zm-5 .1a3 3 0 0 1 1.2.3v.5l-.6-.3a2 2 0 0 0-.6 0 1 1 0 0 0-.6 0c-.2.2-.2.3-.2.5v.3l.5.2a9.7 9.7 0 0 0 .9.2c.2 0 .4.1.5.3.2.1.2.3.2.5v.4l-.3.4-.5.2-.6.1a3 3 0 0 1-1.2-.3v-.6l.6.4.6.1c.3 0 .6 0 .7-.2.2 0 .3-.2.3-.4 0-.1 0-.3-.2-.3l-.3-.2h-.4l-.4-.1-.7-.4a.9.9 0 0 1-.2-.6c0-.3.1-.5.3-.7.3-.2.6-.3 1-.3zm-10.4 0h.5v.5h-.5zm12.4 0h.5v.5h-.5zm-15.7 0h1l.5.1c.2 0 .3 0 .4.2l.3.3.1.4c0 .3 0 .5-.2.6l-.5.4 1.3 1.5h-.6l-1.2-1.3h-.6v1.3h-.5zm10.6.2h.4v.7h1v.4h-1v1.5l.1.2.2.2h.6v.3a2.4 2.4 0 0 1-.5 0l-.6-.1-.2-.7v-1.4h-.3v-.4h.3zm-10.1.3v1.3h.8a.6.6 0 0 0 .5-.4V119.3l-.2-.2-.2-.1h-.4zm5 .4a1.3 1.3 0 0 1 .8.2v-.2h.4v2.3c0 .5 0 .8-.3 1-.2.2-.5.3-.9.3a2.7 2.7 0 0 1-.8 0v-.5a3.3 3.3 0 0 0 .8.1h.4a.5.5 0 0 0 .4-.4v-.5l-.4.2-.4.1a1 1 0 0 1-.8-.3c-.2-.3-.3-.6-.3-1l.1-.6.3-.4.4-.2.4-.1zm15.6 0c.3 0 .6 0 .8.3.2.2.3.5.3.8v.3h-2l.1.4a.8.8 0 0 0 .5.5h.9l.4-.3v.5l-.4.1-.5.1c-.4 0-.8-.1-1-.4-.3-.2-.4-.5-.4-1 0-.4.1-.7.4-1 .2-.2.5-.3.9-.3zm-17.8 0h.5v2.6h-.5zm12.4 0h.5v2.6h-.5zm5.4.3-.6.2-.2.5h1.5l-.2-.5-.5-.2zm-15.4 0c-.3 0-.5.1-.6.3l-.2.7.1.7.6.2h.3l.4-.3V120a1.6 1.6 0 0 0-.6-.1zm12.4 0c-.3 0-.4.2-.6.3l-.2.7c0 .4 0 .6.2.8 0 .1.2.2.5.2h.4l.3-.3v-1.5l-.3-.1h-.3z" fill-rule="evenodd"/>
    <g aria-label="A1" style="line-height:1.25" font-size="5.8" font-family="Fira Code" letter-spacing="0" word-spacing="0" stroke-width=".3" font-weight="400">
      <path d="M510.7 313.9H509l-.4 1h-.5l1.4-4h.6l1.4 4h-.6zm-1.5-.4h1.3l-.6-2.2zM514 310.8v4h-.6v-3.4l-1 .6-.2-.4 1.3-.8zm.8 3.7v.4h-2.4v-.4z" style="-inkscape-font-specification:'Fira Code'" transform="translate(-71 -192.4)"/>
    </g>
    <g aria-label="B3" style="line-height:1.25" font-size="5.8" font-family="Fira Code" letter-spacing="0" word-spacing="0" stroke-width=".3" font-weight="400">
      <path d="m549.7 252.1-.1-.5-.3-.2H548v1.4h1.3l.2-.3.1-.4zm-.1-1.9q0-.3-.3-.5l-.6-.1h-.6v1.3h.7l.6-.1q.2-.2.2-.6zm.7 1.9-.2.6-.3.3q-.2.2-.5.2h-1.6v-4h1.5l.4.2.4.3v1l-.3.2-.4.2.5.1q.2.1.3.4.2.2.2.5zM552.2 249.1l.7.1.4.4q.2.2.2.5l-.1.5-.3.3-.4.2.4.1q.3.1.4.4l.1.5-.2.6q-.1.3-.5.5l-.7.1h-.7l-.6-.5.4-.3q.1.2.4.3l.5.1q.4 0 .7-.2.2-.2.2-.6l-.1-.5-.3-.2h-.8v-.5h.7l.3-.3v-.4l-.1-.5-.6-.2-.5.1q-.2 0-.4.3l-.2-.3q.2-.3.5-.4l.6-.1z" style="-inkscape-font-specification:'Fira Code'" transform="translate(-71 -192.4)"/>
    </g>
    <g aria-label="B1" style="line-height:1.25" font-size="5.8" font-family="Fira Code" letter-spacing="0" word-spacing="0" stroke-width=".3" font-weight="400">
      <path d="M549.6 313.8q0-.3-.2-.5 0-.2-.3-.2H548v1.4h1l.3-.1.2-.2v-.4zm-.2-1.9q0-.3-.2-.5l-.6-.1h-.6v1.3h.7q.3 0 .5-.2.2-.1.2-.5zm.7 1.9-.1.5q-.1.3-.4.4l-.5.2h-1.6v-4h1.5q.3 0 .5.2.2 0 .3.3l.1.5v.4l-.4.3-.3.2.4.1.4.3.1.6zM552.7 310.8v4h-.5v-3.4l-1 .6-.2-.4 1.3-.8zm.9 3.7v.4h-2.4v-.4z" style="-inkscape-font-specification:'Fira Code'" transform="translate(-71 -192.4)"/>
    </g>
    <g aria-label="B2" style="line-height:1.25" font-size="5.8" font-family="Fira Code" letter-spacing="0" word-spacing="0" stroke-width=".3" font-weight="400">
      <path d="M549.7 283.3v-.5l-.4-.3h-1.1v1.5H549q.2 0 .3-.2.2 0 .3-.2v-.3zm-.1-2q0-.3-.2-.4l-.6-.2h-.6v1.3h.6l.6-.1q.2-.2.2-.5zm.7 2-.1.5-.4.4-.5.2h-1.6v-4.1h1.5l.5.2.3.3.1.5-.1.5-.3.3-.4.1q.3 0 .5.2.2 0 .3.3.2.2.2.5zM552.3 280.2l.6.2q.3.1.4.4.2.2.2.6l-.1.5-.3.6-.6.7-.8.8h1.9v.4H551v-.4l.8-.8.5-.6.4-.4.1-.4v-.4l-.1-.6q-.2-.2-.6-.2-.3 0-.5.2-.2 0-.4.3l-.3-.3q.2-.3.5-.4.3-.2.8-.2z" style="-inkscape-font-specification:'Fira Code'" transform="translate(-71 -192.4)"/>
    </g>
    <g aria-label="C4" style="line-height:1.25" font-size="5.8" font-family="Fira Code" letter-spacing="0" word-spacing="0" stroke-width=".3" font-weight="400">
      <path d="M588 218h.7l.5.4-.3.3-.4-.2-.5-.1-.6.2q-.3.1-.4.5-.2.4-.2 1l.1 1 .5.5.6.2.6-.1.4-.3.3.4-.5.3-.8.1q-.5 0-.9-.2-.4-.3-.6-.7-.3-.5-.3-1.2t.3-1.2q.2-.4.6-.7.4-.2.9-.2zM591 218l.5.1-1 2.6h2.1v.4h-2.7v-.3zm1 1.6v2.5h-.4v-2.5z" style="-inkscape-font-specification:'Fira Code'" transform="translate(-71 -192.4)"/>
    </g>
    <g aria-label="A3" style="line-height:1.25" font-size="5.8" font-family="Fira Code" letter-spacing="0" word-spacing="0" stroke-width=".3" font-weight="400">
      <path d="M510.5 251.3h-1.6l-.4 1h-.5l1.4-4.1h.6l1.4 4.1h-.6zm-1.5-.5h1.4l-.7-2.2zM513.1 248.1q.4 0 .7.2l.4.3.2.6-.1.4-.3.3-.4.2.4.2q.2 0 .4.3v1.2l-.6.4q-.3.2-.7.2-.4 0-.7-.2-.4 0-.6-.4l.3-.2.5.3h.5q.4 0 .6-.2.3-.2.3-.6l-.1-.4-.3-.3h-.8v-.5h.7l.2-.3q.2-.1.2-.4 0-.3-.3-.5-.2-.2-.5-.2l-.5.1-.4.3-.3-.3.6-.4h.6z" style="-inkscape-font-specification:'Fira Code'" transform="translate(-71 -192.4)"/>
    </g>
    <g aria-label="B4" style="line-height:1.25" font-size="5.8" font-family="Fira Code" letter-spacing="0" word-spacing="0" stroke-width=".3" font-weight="400">
      <path d="M549.5 221v-.5l-.4-.2H548v1.5H548.9l.3-.2q.2 0 .3-.2v-.4zm-.1-1.9q0-.3-.2-.5l-.6-.1h-.6v1.3h.6l.6-.1q.2-.2.2-.6zm.7 2-.1.5-.4.3q-.2.2-.5.2h-1.6v-4h1.5l.4.2.4.3.1.5-.1.5-.3.2-.4.2.5.1q.2.1.3.4.2.2.2.5zM552 218l.5.2-1 2.6h2.1v.4h-2.7v-.4zm1 1.6v2.6h-.4v-2.6z" style="-inkscape-font-specification:'Fira Code'" transform="translate(-71 -192.4)"/>
    </g>
    <g aria-label="C1" style="line-height:1.25" font-size="5.8" font-family="Fira Code" letter-spacing="0" word-spacing="0" stroke-width=".3" font-weight="400">
      <path d="M588 310.8h.7l.5.4-.3.3-.4-.2-.4-.1q-.4 0-.6.2-.3.1-.5.5t-.2 1q0 .6.2 1 .1.3.4.5.3.2.7.2l.5-.1.4-.3.3.4-.5.3-.7.1-1-.2q-.4-.3-.6-.7-.2-.5-.2-1.2t.2-1.2l.7-.7.8-.2zM591.7 310.8v4h-.5v-3.4l-1 .6-.2-.4 1.3-.8zm.9 3.7v.4h-2.4v-.4z" style="-inkscape-font-specification:'Fira Code'" transform="translate(-71 -192.4)"/>
    </g>
    <g aria-label="D2" style="line-height:1.25" font-size="5.8" font-family="Fira Code" letter-spacing="0" word-spacing="0" stroke-width=".3" font-weight="400">
      <path d="M627.5 313v-1l-.4-.4-.4-.3h-.9v3.3h.5l.4-.1q.2 0 .4-.3.2-.1.3-.5l.1-.8zm.6 0-.1.8-.3.6-.5.3q-.2.2-.5.2h-1.5v-4h1.7l.6.3q.3.3.4.7.2.4.2 1zM630 310.8q.4 0 .6.2.3.1.5.4l.1.6v.5l-.4.6-.6.6-.8.9h2l-.2.4h-2.4v-.4l.8-.8.5-.6.4-.5.1-.3v-.4l-.1-.6q-.2-.2-.6-.2l-.5.1-.3.4-.4-.3.6-.4q.3-.2.7-.2z" style="-inkscape-font-specification:'Fira Code'" transform="translate(-71 -192.4)"/>
    </g>
    <g aria-label="A2" style="line-height:1.25" font-size="5.8" font-family="Fira Code" letter-spacing="0" word-spacing="0" stroke-width=".3" font-weight="400">
      <path d="M510.5 283H509l-.3 1h-.5l1.3-4.2h.7l1.3 4.2h-.5zm-1.5-.5h1.4l-.7-2.2zM513.1 279.8l.7.1.4.4.2.6-.1.6-.3.5-.6.7-.9.8h2l-.1.5H512v-.5l.7-.7.6-.6.3-.5.2-.4v-.4q0-.3-.2-.5-.1-.2-.5-.2l-.5.1-.4.3-.3-.2.5-.5.7-.1z" style="-inkscape-font-specification:'Fira Code'" transform="translate(-71 -192.4)"/>
    </g>
    <g aria-label="C3" style="line-height:1.25" font-size="5.8" font-family="Fira Code" letter-spacing="0" word-spacing="0" stroke-width=".3" font-weight="400">
      <path d="m588.2 249.1.7.1.5.3-.3.3-.4-.2h-1.1l-.4.6q-.2.4-.2 1t.2 1q.1.4.4.5l.6.2.6-.1.4-.2.3.3-.5.3-.8.1q-.5 0-.9-.2t-.6-.7q-.2-.5-.2-1.2t.2-1.1q.2-.5.6-.8.4-.2 1-.2zM591.3 249.1l.6.1.5.4.1.5v.5l-.4.3-.4.2.5.1q.2.1.3.4.2.2.2.5l-.2.6-.5.5-.8.1h-.7l-.5-.5.3-.3.4.3.5.1q.4 0 .7-.2.2-.2.2-.6v-.5l-.4-.2h-.8v-.5h.7l.3-.3.1-.4q0-.3-.2-.5t-.6-.2l-.4.1q-.2 0-.4.3l-.3-.3.5-.4.7-.1z" style="-inkscape-font-specification:'Fira Code'" transform="translate(-71 -192.4)"/>
    </g>
    <g aria-label="C2" style="line-height:1.25" font-size="5.8" font-family="Fira Code" letter-spacing="0" word-spacing="0" stroke-width=".3" font-weight="400">
      <path d="M588.2 280.3h.7l.5.4-.3.3-.4-.2-.4-.1q-.4 0-.6.2-.3.1-.5.5t-.2 1q0 .6.2 1 .1.3.4.5.3.2.7.2l.5-.1.4-.3.3.4-.5.3-.7.1-1-.2-.6-.8q-.2-.4-.2-1.1 0-.7.2-1.2.3-.5.7-.7l.8-.2zM591.3 280.3l.7.1.4.4.1.6v.6l-.4.5-.6.7-.8.8h2l-.1.4H590v-.4l.8-.7.5-.6.4-.5.2-.4v-.4q0-.3-.2-.5t-.5-.2h-.5l-.4.4-.4-.2.6-.5.7-.1z" style="-inkscape-font-specification:'Fira Code'" transform="translate(-71 -192.4)"/>
    </g>
    <path style="line-height:normal;font-variant-ligatures:normal;font-variant-position:normal;font-variant-caps:normal;font-variant-numeric:normal;font-variant-alternates:normal;font-variant-east-asian:normal;font-feature-settings:normal;font-variation-settings:normal;text-indent:0;text-align:start;text-decoration-line:none;text-decoration-style:solid;text-decoration-color:#000;text-transform:none;text-orientation:mixed;white-space:normal;shape-padding:0;shape-margin:0;inline-size:0;isolation:auto;mix-blend-mode:normal;solid-color:#000;solid-opacity:1" d="M1812.5 75.6a29.3 29.3 0 0 0-5 58l.6 60a29.3 29.3 0 0 0 .7 57.9v59.7a29.3 29.3 0 0 0-22.2 42.5l-.4-.6-101 81.4a29.1 29.1 0 0 0-49.4 19.7l-80.3 1.2 88.8-96.5a29.1 29.1 0 0 0 50-20.6 29.3 29.3 0 0 0-27.8-29.2v-61a29.3 29.3 0 0 0-1.5-58.5 29.3 29.3 0 0 0-24.6 45l-92.7 215.6 1.6.7-1 1 5.6 5.2 1.3-1.5.1 7.3 81.1-1.2a29.3 29.3 0 0 0 57.8-4.1l89.5 2.6a29.3 29.3 0 0 0 57.9-1.3l89.1 1.3a29.3 29.3 0 0 0 58-2.8h88.6a29.3 29.3 0 0 0 58 2.9l110.8-.2v-7.6l-110.6.2a29.3 29.3 0 0 0-57.7-2.8h-89.6a29.3 29.3 0 0 0-57.8 2.8l-89-1.3a29.3 29.3 0 0 0-23.5-24.6l2-58.3a29.4 29.4 0 0 0 21-21.4l89.7-3.3a29.3 29.3 0 0 0 58.2-3.6 29.3 29.3 0 0 0-24-28.8v-60.2a29.3 29.3 0 0 0-1.4-57.7v-59.7a29.3 29.3 0 0 0-3.9-58.2c-14.1 0-26 10.1-28.6 23.5l-90-1.3a29.3 29.3 0 0 0-28.4-22.2zm0 7.5c12 0 21.7 9.7 21.7 21.7s-9.7 21.7-21.7 21.7-21.7-9.7-21.7-21.7 9.7-21.7 21.7-21.7zm147 0a21.6 21.6 0 1 1 0 43.4c-12 0-21.6-9.7-21.6-21.7s9.6-21.7 21.6-21.7zm-117.8 22.3 88.7 1.3c.9 14 11.7 25.4 25.5 27.1v59.7a29.3 29.3 0 0 0-25.5 27.3h-88.7a29.3 29.3 0 0 0-26-27.4l-.7-59.5a29.3 29.3 0 0 0 26.7-28.5zM1665 197.2a21.6 21.6 0 1 1 0 43.3c-12 0-21.7-9.7-21.7-21.7s9.7-21.6 21.7-21.6zm147.5 3.6c12 0 21.7 9.7 21.7 21.7a21.6 21.6 0 1 1-43.4 0c0-12 9.7-21.7 21.7-21.7zm147 0c12 0 21.7 9.7 21.7 21.7a21.6 21.6 0 1 1-43.3 0c0-12 9.6-21.7 21.6-21.7zm-118.3 27.5h89.7a29.3 29.3 0 0 0 26.4 23.3V311a29 29 0 0 0-14.3 5.1l-107.3-75.8c2.6-3.5 4.6-7.5 5.5-12zM1645.9 241c3.7 3.2 8.1 5.5 13 6.5v62.3a29.3 29.3 0 0 0-19.3 43.1l-78.5 85.3 84.8-197.2zm184.3 4.8 107 75.6a29.1 29.1 0 0 0-6.6 14.9l-88.9 3.3a29.3 29.3 0 0 0-25.3-28.3v-59.7a29 29 0 0 0 13.8-5.8zm-165.2 71a21.6 21.6 0 1 1 0 43.3c-12 0-21.7-9.7-21.7-21.7s9.7-21.7 21.7-21.7zm147.5 1.8c12 0 21.7 9.6 21.7 21.7 0 12-9.7 21.6-21.7 21.6s-21.7-9.6-21.7-21.6c0-12 9.7-21.7 21.7-21.7zm147 0a21.6 21.6 0 1 1 0 43.3 21.6 21.6 0 1 1 0-43.4zm-169 40.9c5.3 6 13 9.9 21.7 10l-1.9 57a29.3 29.3 0 0 0-26.9 26.2l-89.7-2.6a29 29 0 0 0-3.7-9.6l100.5-81zM1665 433.9a21.6 21.6 0 1 1 0 43.4c-12 0-21.7-9.7-21.7-21.7s9.7-21.7 21.7-21.7zm147.5 0c12 0 21.7 9.7 21.7 21.7s-9.7 21.6-21.7 21.6-21.7-9.6-21.7-21.6c0-12 9.7-21.7 21.7-21.7zm147 0a21.6 21.6 0 1 1 0 43.4c-12 0-21.6-9.7-21.6-21.7s9.6-21.7 21.6-21.7zm147 0c12 0 21.6 9.7 21.6 21.7s-9.6 21.6-21.6 21.6a21.6 21.6 0 1 1 0-43.4z" transform="scale(.26458)" color="#000" font-weight="400" font-family="sans-serif" overflow="visible" fill-rule="evenodd"/>
    <g aria-label="Cell-wise" style="line-height:1.25" font-size="10.6" font-family="Fira Code" letter-spacing="0" word-spacing="0" stroke-width=".3" font-weight="400">
      <path d="M613 281.3q.7 0 1.2.2l1 .6-.6.6q-.3-.3-.7-.4l-.8-.2q-.6 0-1.2.3-.5.3-.8 1-.3.7-.3 1.8t.3 1.8q.3.7.8 1 .5.3 1.1.3.7 0 1-.2l.8-.5.5.6q-.4.4-1 .6-.5.3-1.3.3-.9 0-1.6-.5-.7-.4-1.2-1.3-.4-.9-.4-2.1 0-1.3.4-2.1.5-.9 1.2-1.3.7-.5 1.6-.5zM617.4 286.4q0 .7.3 1 .2.5.6.7l.8.2.8-.1.7-.4.5.6-1 .5-1 .2q-.8 0-1.4-.4-.6-.4-1-1-.2-.7-.2-1.6 0-.9.3-1.6.3-.6.9-1 .5-.4 1.3-.4.7 0 1.2.3.5.4.8 1 .3.6.3 1.5v.5zm1.6-2.5q-.7 0-1 .4-.5.5-.6 1.4h3q0-1-.4-1.4-.4-.4-1-.4zM625.5 281v6.5q0 .4.2.6.3.2.7.2h.5l.5-.2.2.7-.6.2h-.8q-.7 0-1.2-.4t-.5-1.1v-5.9h-1.7v-.7zM632 281v6.5q0 .4.2.6.3.2.7.2h.5l.5-.2.2.7-.6.2h-.7q-.8 0-1.3-.4-.4-.4-.4-1.1v-5.9h-1.8v-.7zM636.2 286.4v-.8h4.4v.8zM647 289h-1.3l-.7-4.3-.8 4.2h-1.3l-1-5.7h.9l.7 5.2 1-4.5h1l.9 4.5.7-5.2h.9zM652.2 283.2v5h1.6v.7h-4.3v-.7h1.8V284h-1.8v-.7zm-.8-2.7q.3 0 .5.2t.2.5q0 .3-.2.4-.2.2-.5.2l-.4-.2q-.2-.1-.2-.4 0-.3.2-.5l.4-.2zM657.7 288.3q.7 0 1-.2.5-.3.5-.7l-.1-.5-.4-.3-1-.3-1-.3q-.4-.2-.6-.5-.3-.3-.3-.8t.3-.9l.8-.5q.4-.2 1-.2.8 0 1.3.2l.9.4-.4.6-.8-.3q-.3-.2-.9-.2-.7 0-1 .3-.2.2-.2.5l.1.4q.1.2.5.3l.9.3 1 .3.6.6q.2.3.2.9 0 .6-.3 1l-1 .5-1 .2q-.8 0-1.4-.3l-.9-.5.5-.6.8.4q.4.2 1 .2zM663 286.4q0 .7.3 1 .2.5.6.7l.8.2.8-.1.7-.4.4.6-.9.5-1 .2q-.9 0-1.4-.4-.6-.4-1-1-.2-.7-.2-1.6 0-.9.3-1.6.3-.6.8-1 .6-.4 1.4-.4.7 0 1.2.3.5.4.8 1 .3.6.3 1.5v.5zm1.6-2.5q-.7 0-1 .4-.5.5-.6 1.4h3q0-1-.4-1.4-.4-.4-1-.4z" style="-inkscape-font-specification:'Fira Code'" transform="translate(-71 -192.4)"/>
    </g>
  </g>
</svg>
