<svg xmlns="http://www.w3.org/2000/svg" width="600" height="600" viewBox="0 0 158.75 158.75">
  <path d="M43.89 2.98c-.24-.62-3.98 1.91-5.27 3.23-1.3 1.33-4.1 4.04-4.94 5.29-.84 1.24-3.11 6.62-4.05 7.24-1.93 1.28-2.34 2.25-1.76 4.25.3 1.05.19 1.94-.48 3.72-1.26 3.37-2.39 5.46-3.5 6.46-2.94 2.64-5.69 9.88-5.49 14.45.1 2.06-.48 3.6-2.47 6.63-.8 1.23-1.8 2.8-2.22 3.5-.42.69-1.45 2.34-2.29 3.66-2.36 3.74-3.72 6.79-4.03 9.08a9.4 9.4 0 01-.9 3.05 3.15 3.15 0 00-.51 1.75c.06.44-.13 1.63-.42 2.64-.32 1.13-.48 4.03-.4 7.43l.12 5.57 2.7 1.56c1.47.85 3.05 1.87 3.5 2.26 1.48 1.28 10.4 3.32 17.01 3.87 4.93.42 6.95.94 10.34 2.68 1.71.87 2.59.99 7.84 1 5.07.02 6.35-.12 8.98-1a19.66 19.66 0 003.72-1.55c.36-.3 2.63-1.57 5.03-2.84 5.87-3.1 10.35-6.31 13.84-9.94 2.35-2.45 3.13-3.65 4.24-6.5.74-1.93 1.93-4.79 2.64-6.35 1.87-4.1 10.98-18.96 13.21-21.55 1.75-2.03 1.9-2.42 2.1-5.21.13-1.67.37-3.03.55-3.03.6 0 .93 4.6.43 5.94-.27.71-1.14 1.98-1.93 2.82-3.88 4.13-12.45 18.9-15.62 26.9a34.7 34.7 0 01-2.3 4.86c-1.25 1.84-7.2 7.66-7.83 7.66-.28 0-1.02.47-1.64 1.06-1.17 1.1-13.63 8.14-14.42 8.14-.25 0-1.3.28-2.34.63-1.03.35-3.9.84-6.36 1.09-4.85.5-7 .17-11.09-1.67A26.43 26.43 0 0027.2 99.5c-2.33 0-4.34-.3-5.93-.86-3.09-1.08-3.37-1.08-3.32.1.02.63-.27 1.03-.84 1.14-1.17.24-2.85 2.26-2.85 3.43 0 .83.24.95 1.92.95a8.8 8.8 0 013.4.77c.8.42 2.72 1.03 4.26 1.35 1.53.33 3.5.93 4.38 1.35 1.32.64 2.87.77 9.25.77h7.66l1.58-1.2c1.36-1.05 1.98-1.21 4.56-1.21 1.64 0 3.99-.29 5.21-.63a55.6 55.6 0 019.46-1.76c1.47-.06 3.18-.89 5.03-2.46.49-.4 2.33-1.08 4.1-1.5 3.53-.85 7.25-3.3 11.9-7.87 2.72-2.68 3.58-3.1 7.24-3.53 4.2-.5 6.38-2.4 7.27-6.34.66-2.92 2.45-7 3.08-7 .55 0 .3 1.18-.86 4.2-.47 1.24-1 3.14-1.15 4.22a4.76 4.76 0 01-1.71 3.23c-2.97 2.65-2.68 2.53-7.17 2.98-2.26.22-4.84 1.4-5.18 2.37-.34.98-7.98 6.84-10.6 8.13a16.12 16.12 0 01-3.8 1.28c-2.13.33-4.57 1.96-7.85 5.26-2.15 2.16-2.72 2.52-3.65 2.29-.87-.22-1.47.05-2.82 1.27-.95.85-1.9 1.55-2.1 1.55-.22 0-.83 1.08-1.37 2.4-.54 1.33-1.15 2.42-1.36 2.42-.52 0-2.24 2.89-3 5.03-.35.97-.7 3.92-.77 6.57a479 479 0 01-.19 5.48c-.02.36-.43 1.9-.9 3.4-.9 2.88-.82 4.04.29 4.04.36 0 .95.57 1.31 1.27.36.7 1.84 2.13 3.29 3.18 1.44 1.05 2.75 2.28 2.9 2.73.64 1.88 4.97 5.36 6.12 4.92.29-.11 1.06.07 1.7.4a4.3 4.3 0 001.48.56c.94-.2 7.57 1.59 8.62 2.32 1.85 1.3 19.44 1.78 24.2.67 2.84-.67 6.28-2.34 6.56-3.2.09-.27-.55-.74-1.42-1.02-2.45-.81-1.87-1.84 1.44-2.56 1.5-.32 2.64-.74 2.52-.92-.11-.18-1.28-.67-2.58-1.08-4-1.26-4.98-3.33-1.57-3.33.95 0 1.73-.15 1.73-.34 0-.2-1.08-.88-2.4-1.52-2.01-1-2.7-1.12-4.27-.84-1.03.2-2.36.2-2.97.04a29.1 29.1 0 00-4.73-.36c-2-.02-3.98-.21-4.38-.43-.4-.21-1.73-.5-2.93-.66a45.8 45.8 0 01-9.52-2.4 15.9 15.9 0 00-3.29-.93c-1.06 0-4.62-3.48-6.04-5.9a18.2 18.2 0 01-2.43-9.37c.06-3.15.3-3.82 1.1-3.15.51.42.57 3.82.1 5.07-.1.26.08.84.42 1.3.33.46.6 1.21.6 1.68 0 .97 2.4 5.31 3.59 6.5.84.85 4.74 1.17 4.74.4 0-.22-.8-1.06-1.77-1.87-1.25-1.03-1.79-1.84-1.86-2.77l-.1-1.3h2.49c2.07.01 2.42-.1 2.15-.65a3.98 3.98 0 01-.06-1.98c.24-1.28.33-1.32 3.02-1.45 2.42-.11 2.73-.23 2.45-.88-.18-.4-.3-1.38-.28-2.16.02-.79-.13-1.43-.34-1.43-1.07 0-2.67 1-4.54 2.8l-2.07 2.02h-3.93c-2.15 0-3.92-.17-3.92-.38 0-.2 1.59-.48 3.52-.61 3.46-.24 3.57-.28 5.68-2.26 1.18-1.1 2.7-2.24 3.37-2.53 2.38-1.01 2.76-1.62 2.76-4.37 0-2.26.12-2.62 1.02-3.03.92-.43 1.02-.78 1.1-3.82.1-4.06.69-4.97 2.56-4 .66.35 1.5.9 1.87 1.23a65.9 65.9 0 003.02 2.3l2.34 1.7 5.32.01c4.6.01 5.47.13 6.42.87 1.35 1.06 6.3 1.17 8.98.2.96-.34 2-.63 2.3-.63.86-.01.64 1.24-.5 2.76a12.2 12.2 0 00-1.54 2.97c-.28.87-1 2.04-1.59 2.6-1.15 1.08-1.37 1.94-.63 2.4.64.4 1.74-.6 1.74-1.57 0-.45.98-2.12 2.19-3.74 1.2-1.6 2.19-3.1 2.19-3.3 0-.2.2-.38.43-.38.25 0 .44.6.44 1.32 0 .72-.17 1.31-.37 1.31-.6 0-3.79 4.95-3.79 5.9 0 .47-.48 1.09-1.1 1.39-1.28.63-11.15 4.36-12.6 4.76-2.11.6-5.54.54-6.51-.09-.87-.57-3.5-.72-9.57-.54-.48.02-2.4.02-4.26 0-2.98-.02-3.43.08-3.86.89-.4.74-.29 1.2.64 2.53 1.32 1.9 1.35 2.06.47 2.4-.36.14-1.37-.23-2.25-.83-1.72-1.17-3.66-1.43-3.66-.5 0 .32 1.3 1.63 2.87 2.91 3.18 2.58 3.22 3.36.14 3.14-1.22-.1-1.74.03-1.62.38.32.97 9.66 3.92 12.46 3.93.76 0 2.05.3 2.87.64 2.08.87 11.15 1.03 12.63.23.6-.32 1.83-.63 2.74-.68 1.56-.09 2.27-.34 6.7-2.42.98-.45 3.45-1.24 5.48-1.75 2.53-.63 3.96-1.24 4.56-1.94.49-.56 2.6-1.93 4.71-3.06 2.1-1.12 3.83-2.2 3.83-2.4 0-.2.6-.92 1.34-1.6 1.38-1.28 5.72-6.72 7.1-8.9 1-1.56 2.01-6.81 1.8-9.28a15.68 15.68 0 00-.99-3.87 21.16 21.16 0 01-1.1-4.96 24.62 24.62 0 00-1.15-5.26c-.91-2.39-1.17-5.98-.43-5.98.38 0 .67 1.7.48 2.78-.04.21.32 1.2.8 2.2.97 2.05 1.4 4 1.52 6.84.05 1.09.49 2.86.97 3.94a13.7 13.7 0 011 4.14c.05 1.19.19 2.3.3 2.47.1.17-.11 1.14-.47 2.16a11.5 11.5 0 00-.66 2.9c0 1.15-6.34 10-9.08 12.67a20.7 20.7 0 01-4.05 2.85c-1.33.7-3.2 1.85-4.16 2.57-2.73 2.03-4.11 2.7-5.89 2.87-.9.08-2.4.47-3.31.85l-1.68.7 1.21 1.27c.67.7 1.1 1.47.95 1.72-.4.65.63 1.13 2.17 1 1.06-.1 1.45.1 1.83.96.27.59.42 1.44.34 1.88-.09.45-.17 1.05-.19 1.32-.05.76-2.17 1.27-4.7 1.12-2.18-.13-2.29-.2-2.95-1.86-.39-.95-.89-1.73-1.13-1.73-.23 0-.32.27-.19.61.32.83-.54 1.29-2.3 1.22-2.38-.09-1.68.65 1.54 1.62 3.67 1.12 4.5 1.9 3.05 2.84-.9.59-2.5 1.01-4.22 1.12-1.03.06-.06.91 1.05.91 1.09 0 2.07 1.34 1.2 1.63-.25.08-1.7.97-3.24 1.97a17.2 17.2 0 01-4.56 2.16c-2.38.48-21.27.68-21.55.23-.12-.2-.5-.25-.85-.11-.35.13-2.05-.26-3.8-.86-3.92-1.37-4.52-1.54-6.43-1.78a11.3 11.3 0 01-2.2-.47c-.77-.32-1.56-.52-3.06-.75-1.63-.25-2.53-.7-2.8-1.4-.13-.34-.5-.62-.83-.62-.6 0-3.38-3.51-3.38-4.27 0-.22-.93-1.07-2.08-1.88-2.94-2.1-6.27-5.27-6-5.72.47-.75-.66-2-2.25-2.48-.9-.28-1.8-.4-1.99-.28-.54.33-2.88-1-6.35-3.6a30.84 30.84 0 00-3.37-2.35c-.53 0-3.54-2.25-4.11-3.08-.37-.52-.56-1.68-.48-2.94.12-1.78.26-2.07 1.01-2 2.8.27 4.8 1.14 8.42 3.67 6.9 4.8 10.6 6.35 10.66 4.46.37-9.99 1.14-13.21 3.85-16.14a15.4 15.4 0 002.1-3.3c.52-1.12 1.35-2.17 1.83-2.33.48-.15.98-.55 1.11-.9.13-.34 1.08-1.05 2.12-1.57a21.17 21.17 0 002.98-1.84l1.1-.88-1.1.32c-.6.17-2.26.4-3.67.5-1.42.1-2.85.4-3.18.67-.34.29-2.12.49-4.2.47-2.86-.01-3.9.16-5.01.84a4.88 4.88 0 00-1.54 1.3c-.16.47-14.44.69-15.18.23-.24-.14-.75-.14-1.14.01-.4.15-1.05-.02-1.46-.38a5 5 0 00-2.07-.88c-.72-.13-1.8-.37-2.4-.53-.6-.16-1.77-.37-2.6-.45a6.56 6.56 0 01-2.71-1.06c-1.3-.96-4.08-1.23-4.56-.45-.15.24.1 1.18.56 2.08.46.89.99 2.21 1.16 2.94.18.72.73 1.74 1.22 2.27.98 1.05 1.08 3.05.52 9.8-.21 2.63-.12 3.6.46 4.72.85 1.64.61 2.26-.87 2.26-.73 0-1.07-.25-1.07-.77 0-.42-.71-1.54-1.58-2.48-1.24-1.35-1.65-1.58-1.97-1.1-.22.35-.3 1.09-.16 1.65.17.73-.06 1.31-.8 2a5.72 5.72 0 00-1.23 1.48c-.1.28-.66.56-1.27.63-1.02.11-1.09 0-1.06-1.85.02-1.09.3-3.35.61-5.04.32-1.68.64-4.84.71-7 .14-3.88.12-3.97-1.19-5.32-1.32-1.36-1.33-1.4-1.25-5.91.11-6 .13-5.38-.2-9.36-.25-2.98-.45-3.63-1.36-4.38-1.03-.85-1.06-1.06-1.1-7.23-.03-3.49.15-7.23.4-8.32.25-1.08.8-3.45 1.2-5.25.97-4.2 3.65-9.88 5.9-12.48.41-.49 1.27-1.86 1.9-3.07.62-1.2 1.55-2.7 2.04-3.32 1.03-1.28 1.7-3.74 1.72-6.31.02-2.04 1.39-7.92 2.2-9.43.3-.57 1.4-1.95 2.45-3.06 2.74-2.93 4.06-6.1 4.3-10.32.2-3.42.23-3.5 1.98-5.02.98-.85 1.78-1.73 1.79-1.97 0-.23.4-1.21.86-2.18.47-.96.85-1.92.86-2.14.03-.7 3.12-4.2 3.72-4.2.31 0 .81-.6 1.11-1.3.79-1.9 2.58-3.52 3.9-3.52.63 0 1.83-.42 2.67-.94.83-.5 2.31-1.2 3.28-1.55 1.8-.64 8.07-.93 8.9-.41.9.55 4.52 6.4 4.25 6.83-.15.25-.1.45.1.45.22 0 .72.68 1.11 1.5.4.84 1.22 1.85 1.84 2.25 1.09.71 1.55 2.38.66 2.38-1.24 0-4.8-4.7-4.8-6.34 0-1.24-3.1-5.4-4.45-5.95-1.85-.77-2.34-.12-1.65 2.17.3 1 .8 2.02 1.1 2.28.36.29.48.95.32 1.74-.14.73-.03 1.55.28 1.92.29.35.41.82.27 1.05-.15.24.7 1.48 1.87 2.76 2.56 2.8 4 5.34 3.69 6.52-.13.48-.35.94-.5 1.02-.26.14-4.62-.34-7.07-.78-.6-.1-2.51-.4-4.25-.66-1.74-.26-4-.78-5.04-1.15l-3.63-1.34c-2.07-.76-4.05-2.18-3.63-2.6.27-.27 1.66.26 5.82 2.22 3.1 1.46 16.26 3.58 17.09 2.75.41-.41-2.03-4.28-3.28-5.16-1.46-1.04-2.64-3.76-2.64-6.07 0-.9-.24-1.9-.53-2.18-.3-.3-.84-1.35-1.2-2.35-.53-1.42-.92-1.84-1.76-1.9-2.18-.16-4.78 1.56-9.67 6.37-4.02 3.97-4.84 5-4.64 5.8a2.4 2.4 0 01-.18 1.63c-.35.56-.47.57-.81.04a2.48 2.48 0 01-.17-1.56s.46-1.61.91-2.14m81.45 134.02c.32-.31.45-.9.3-1.3-.23-.58-.64-.68-1.94-.47-1.52.24-1.67.17-2-.99a6.07 6.07 0 01-.27-1.72c.04-.26-.39-.9-.95-1.43-.98-.92-1.1-.93-2.66-.28l-1.63.68 2.22 2.43c1.22 1.33 2.22 2.7 2.22 3.01 0 1.18 3.56 1.23 4.71.07zm-9.34-3.8c-.6-.6-1.17-.76-1.94-.56-1.05.28-1.03.32.65 1.06 2.02.9 2.5.71 1.3-.5zm-57.82-5.92c.37-1.48.09-1.85-1.84-2.37-.9-.25-2.22-.85-2.94-1.33l-3.77-2.52c-1.36-.9-3.28-2.21-4.27-2.9-1-.7-2.39-1.34-3.09-1.42-.7-.08-1.54-.2-1.86-.27-.35-.07-.64.35-.72 1.04-.17 1.42 1.46 3.09 4.18 4.3 1.03.46 1.86 1.04 1.86 1.28 0 .45 1.5 1.38 3.62 2.26.66.28 1.2.67 1.2.87 0 .21.64.67 1.43 1.04 1.24.57 2.21.77 5.2 1.06.44.04.83-.37 1-1.04zm-38.01-9.9c.17-1.44.9-3 1.4-3 .2 0 1 .68 1.81 1.51.81.84 1.6 1.44 1.76 1.34.17-.1.33-1.33.38-2.72.04-1.4.19-3.72.33-5.17.21-2.3.1-2.83-.81-4.18a9.67 9.67 0 01-1.33-3.23 5.76 5.76 0 00-.95-2.42c-.43-.48-.68-1.6-.68-3.09 0-2.7 1.52-5.75 3.34-6.7 1.08-.57 1-.61-1.97-1.14-1.7-.3-3.28-.43-3.53-.28-.46.29-1.21 1.85-2.39 4.95-.93 2.48-.94 7.25-.01 8.18.38.37.86.68 1.06.68.21 0 .52.44.69.97.47 1.48.3 9.63-.23 11.03a8.91 8.91 0 00-.43 2.83c.02.88-.1 2.19-.27 2.91l-.32 1.32 1-1.25a6 6 0 001.15-2.53zm89.07-1.82c2.2-.5 8.26-2.8 9.06-3.45.28-.23.65-1.05.81-1.81.16-.77.74-1.99 1.28-2.71.88-1.17 2.86-4.9 2.86-5.39 0-.1-.34-.05-.76.12-1.63.63-7.74.32-9.53-.49-1.27-.57-3.13-.83-6.79-.93-4.97-.14-7.42-.74-8.2-2a8.95 8.95 0 00-1.87-1.6 10.56 10.56 0 01-1.84-1.5c-.37-.55-1.23 1.6-1.23 3.07 0 .6.3 1.2.66 1.33 1.52.59.23 3.18-1.6 3.21-1.03.02-1.21.82-1.2 5.3 0 5.46.27 5.92 3.57 6.27 1.45.15 4.08.27 5.84.27 1.76 0 3.32.2 3.47.45.33.54 2.75.48 5.47-.14zm-3.07-1.77c0-.38-.4-.9-.87-1.17-2.16-1.15.2-1.8 3-.83 1.51.53 1.97 2.14.61 2.15a8.7 8.7 0 00-1.75.27c-.72.2-.99.08-.99-.42zm9.2-3.91c-.55-1.18-.94-1.44-2.3-1.55-2.53-.21-1.94-.96.75-.96 2.34 0 2.41.04 2.78 1.42.7 2.6-.17 3.37-1.23 1.09zm-11.85-3.2c-.97-1.04-1.3-1.13-3.4-.92-1.68.17-2.27.1-2.15-.28.1-.32 1.36-.57 3.23-.65 2.95-.12 3.08-.08 3.6 1.06.77 1.67-.01 2.15-1.28.78zM9.79 94.81a1.8 1.8 0 00-1.2-.55c-.58 0-.77.42-.83 1.8-.1 2.6.33 2.88 1.48.98.72-1.2.88-1.83.55-2.23zm143.42 33.06c-.24-.3-.56-1.73-.7-3.17a47.8 47.8 0 00-.52-3.72c-.13-.6-.35-2.38-.5-3.94-.16-1.71-.56-3.2-1-3.73a96.3 96.3 0 01-4.47-6.5c-.5-.88-3.32-7.47-3.66-8.57a49.52 49.52 0 00-4.08-8.24 5.58 5.58 0 01-.96-1.8c0-.25-.77-1.35-1.71-2.44a9.51 9.51 0 01-2.29-4.51 7.2 7.2 0 00-2.44-4.36c-1.03-1-1.88-1.99-1.88-2.19 0-.2-1.19-1.75-2.62-3.43-1.44-1.69-2.62-3.35-2.63-3.69 0-.34-.32-.98-.71-1.4-.73-.82-.77-1.9-.4-10.65l.16-3.48-3.47-7.4c-1.9-4.08-3.46-7.51-3.46-7.63 0-.12-.4-.71-.88-1.33a4.02 4.02 0 01-.88-1.73 18 18 0 00-1.32-3.44c-.88-1.88-1.58-2.83-2.08-2.83-.61 0-.78-.45-.85-2.3a217.6 217.6 0 00-.17-3.51c-.08-1.23.28-1.98.73-1.54.13.14.91 2.29 1.74 4.79s1.72 4.9 1.99 5.36c.27.45.76 1.76 1.1 2.9.34 1.15.91 2.33 1.27 2.62.36.3.66.7.66.89 0 .18 1.54 3.66 3.42 7.72 3.32 7.13 3.42 7.47 3.22 10-.11 1.45-.22 4.44-.25 6.64-.03 3.24.1 4.16.73 4.85.42.47.76 1.08.76 1.37 0 .57 5.06 6.98 6.16 7.8 1.33 1.01 2.96 3.9 3.27 5.8a5.4 5.4 0 001.3 2.85c.54.5 1.63 2.1 2.4 3.54a36.6 36.6 0 001.93 3.29c.62.78 2.62 5.16 5.1 11.17 1 2.4 2.54 5.43 3.42 6.72.88 1.29 1.81 2.7 2.06 3.13.25.43.74 1.13 1.1 1.55.34.42.66 1.69.7 2.8.04 1.13.49 3.3 1 4.83.9 2.8 1.24 7.46.52 7.46-.21 0-.58-.24-.81-.55zM53.01 88.12c-.17-.28-.1-.71.15-.96.59-.6 1.96-.08 1.72.64-.24.73-1.48.94-1.87.32zm-30.22-3.5c-.17-.28-.1-.71.15-.97.59-.58 1.96-.07 1.72.65-.24.73-1.48.94-1.87.31zm66.57-52.67a8.91 8.91 0 00-2.93-.57 12.56 12.56 0 01-4.04-1.04c-1.58-.77-2.63-.93-5.76-.86-3.27.07-3.91-.03-4.41-.72-.93-1.27.03-1.85 1.56-.94.94.55 2.27.75 5.05.75 2.73 0 4.08.2 4.85.7.6.39 2.21.8 3.6.92 2.58.23 4.06.74 4.06 1.41 0 .64-1.1.84-1.98.35zm-.07-3.54c-1.53-1.28-2.16-1.48-7-2.2-3.94-.6-5.53-1.37-9.13-4.4-1.14-.98-1.22-1.2-.65-1.68.36-.31 1.54-2.3 2.62-4.44 2.13-4.17 4.82-7.29 7.78-9 1.02-.59 1.86-1.23 1.86-1.42 0-.2-.87-.35-1.92-.35-1.23 0-2.01-.22-2.16-.6-.2-.53-.98-.78-4.24-1.41-1.43-.27-3.12-.63-4.27-.9a85.8 85.8 0 00-8.1-.47c-3.84-.1-6.9-.37-6.9-.6 0-.52 12.64-.48 15.55.05 1.2.22 3.17.54 4.38.7 1.2.16 2.75.69 3.45 1.17.93.66 2.37.98 5.47 1.23 5.88.48 7.33.8 8.2 1.75.41.46.97.83 1.25.83s1.75.94 3.27 2.08c1.52 1.14 3.63 2.7 4.7 3.48 1.06.77 2.97 2.34 4.26 3.5 2.24 2.03 2.31 2.16 1.92 3.61-.27 1.03-.51 1.33-.75.94a1.9 1.9 0 01-.17-1.29c.22-.8-2.46-3.62-4.82-5.05-.83-.5-2.63-1.78-3.98-2.84-1.35-1.06-2.54-1.85-2.63-1.75-.09.09.13 1.55.5 3.23.35 1.69.75 3.82.87 4.74.13.92.5 1.78.84 1.91.89.34.79 2-.11 1.82-.4-.08-.87-.44-1.04-.8-.44-.9-1.33-4.52-1.81-7.39-.48-2.83-1.47-4.88-2.37-4.88-.36 0-.77-.3-.91-.65-.15-.39-.8-.66-1.57-.66-1.07 0-1.25.14-1 .77.16.42.27 2.84.24 5.38-.03 2.54.2 5.8.51 7.23.31 1.43.5 4.13.44 6-.14 3.8-.49 4.1-2.58 2.36zm1.42-4.33a329.8 329.8 0 01-.6-9.75c-.17-3.37-.44-6.34-.61-6.6-.17-.26-1.34-.5-2.6-.52-4.24-.1-7.56 2.71-10.87 9.24-2.23 4.39-2.21 4.55 1 6.68 1.91 1.27 3.36 1.66 9.54 2.59.87.13 1.94.63 2.37 1.1.43.48 1.07.87 1.43.87.54 0 .6-.58.34-3.61zm-9.23-9.98c-.17-.27-.1-.7.15-.96.58-.59 1.96-.07 1.72.65-.25.73-1.49.94-1.87.31zM53.02 25.66c-1.3-.7-1.8-.83-4.4-1.23-2.34-.36-6.42-1.52-7-2-.3-.25-.72-.41-.93-.35-.54.16-6.71-2.43-6.72-2.82 0-.7 2.12-.26 6.55 1.38 2.54.94 5.9 1.94 7.46 2.22 1.57.29 3.7.82 4.75 1.2 1.4.49 2.02.54 2.38.18.63-.63 1.63-.63 1.63-.01 0 .44-1.7 2.1-2.19 2.13-.12 0-.8-.3-1.53-.7zM46.38 7.74c-.37-.96.56-1.85 1.22-1.19.56.56.22 1.87-.5 1.87-.25 0-.58-.3-.72-.68z"/>
</svg>
