<svg viewBox="0 0 900 655" xmlns="http://www.w3.org/2000/svg">
  <g fill="none" stroke="#000" stroke-width="1mm" stroke-linecap="round">
    <path d="M.5.5l16.3 16.3M16.8.5l16.4 16.3M33.2 16.8L49.6.5M49.6.5l16.3 16.3M66 16.8L82.2.5M82.3.5l16.3 16.3M98.6 16.8L115 .5M115 .5l16.4 16.3M131.4.5l16.3 16.3M147.7.5l16.4 16.3M164 .5l16.4 16.3M180.4 16.8L196.8.5M196.8 16.8L213.2.5M213.2.5l16.3 16.3M229.5 16.8L246 .5M245.9 16.8L262.2.5M262.2 16.8L278.6.5M278.6.5L295 16.8M295 16.8L311.3.5M311.3.5l16.4 16.3M327.7 16.8L344 .5M344 .5l16.4 16.3M360.4 16.8L376.8.5M376.8.5L393 16.8M393.1.5l16.4 16.3M409.5 16.8L425.8.5M425.8.5l16.4 16.3M442.2.5l16.4 16.3M458.6 16.8L474.9.5M475 .5l16.3 16.3M491.3 16.8L507.6.5M507.6.5L524 16.8M524 .5l16.4 16.3M540.4.5l16.3 16.3M556.7 16.8L573.1.5M573 16.8L589.5.5M589.4.5l16.4 16.3M605.8.5l16.4 16.3M622.2.5l16.3 16.3M638.5.5L655 16.8M654.9 16.8L671.2.5M671.2 16.8L687.6.5M687.6.5L704 16.8M704 .5l16.3 16.3M720.3.5l16.4 16.3M736.7 16.8L753 .5M753 16.8L769.4.5M769.4 16.8L785.8.5M785.8.5L802 16.8M802.1.5l16.4 16.3M818.5 16.8L834.8.5M834.8 16.8L851.2.5M851.2.5l16.4 16.3M867.6.5l16.3 16.3M884 .5l16.3 16.3M.5 16.8l16.3 16.4M16.8 33.2l16.4-16.4M33.2 33.2l16.4-16.4M49.6 16.8l16.3 16.4M66 33.2l16.3-16.4M82.3 33.2l16.3-16.4M98.6 16.8L115 33.2M115 16.8l16.4 16.4M131.4 33.2l16.3-16.4M147.7 33.2l16.4-16.4M164 33.2l16.4-16.4M180.4 33.2l16.4-16.4M196.8 16.8l16.4 16.4M213.2 16.8l16.3 16.4M229.5 33.2L246 16.8M245.9 33.2l16.3-16.4M262.2 33.2l16.4-16.4M278.6 33.2L295 16.8M295 33.2l16.3-16.4M311.3 16.8l16.4 16.4M327.7 33.2L344 16.8M344 16.8l16.4 16.4M360.4 33.2l16.4-16.4M376.8 33.2L393 16.8M393.1 16.8l16.4 16.4M409.5 16.8l16.3 16.4M425.8 16.8l16.4 16.4M442.2 16.8l16.4 16.4M458.6 16.8l16.3 16.4M475 16.8l16.3 16.4M491.3 16.8l16.3 16.4M507.6 16.8L524 33.2M524 33.2l16.4-16.4M540.4 33.2l16.3-16.4M556.7 33.2l16.4-16.4M573 16.8l16.4 16.4M589.4 16.8l16.4 16.4M605.8 33.2l16.4-16.4M622.2 16.8l16.3 16.4M638.5 33.2L655 16.8M654.9 33.2l16.3-16.4M671.2 33.2l16.4-16.4M687.6 33.2L704 16.8M704 33.2l16.3-16.4M720.3 33.2l16.4-16.4M736.7 16.8L753 33.2M753 16.8l16.4 16.4M769.4 33.2l16.4-16.4M785.8 16.8L802 33.2M802.1 16.8l16.4 16.4M818.5 16.8l16.3 16.4M834.8 33.2l16.4-16.4M851.2 16.8l16.4 16.4M867.6 16.8l16.3 16.4M884 33.2l16.3-16.4M.5 33.2l16.3 16.4M16.8 33.2l16.4 16.4M33.2 49.6l16.4-16.4M49.6 49.6l16.3-16.4M66 49.6l16.3-16.4M82.3 49.6l16.3-16.4M98.6 33.2L115 49.6M115 33.2l16.4 16.4M131.4 49.6l16.3-16.4M147.7 33.2l16.4 16.4M164 49.6l16.4-16.4M180.4 49.6l16.4-16.4M196.8 33.2l16.4 16.4M213.2 49.6l16.3-16.4M229.5 33.2L246 49.6M245.9 33.2l16.3 16.4M262.2 33.2l16.4 16.4M278.6 33.2L295 49.6M295 49.6l16.3-16.4M311.3 49.6l16.4-16.4M327.7 49.6L344 33.2M344 33.2l16.4 16.4M360.4 33.2l16.4 16.4M376.8 49.6L393 33.2M393.1 33.2l16.4 16.4M409.5 49.6l16.3-16.4M425.8 49.6l16.4-16.4M442.2 33.2l16.4 16.4M458.6 49.6l16.3-16.4M475 49.6l16.3-16.4M491.3 49.6l16.3-16.4M507.6 33.2L524 49.6M524 49.6l16.4-16.4M540.4 49.6l16.3-16.4M556.7 49.6l16.4-16.4M573 49.6l16.4-16.4M589.4 49.6l16.4-16.4M605.8 33.2l16.4 16.4M622.2 33.2l16.3 16.4M638.5 33.2L655 49.6M654.9 49.6l16.3-16.4M671.2 33.2l16.4 16.4M687.6 33.2L704 49.6M704 33.2l16.3 16.4M720.3 49.6l16.4-16.4M736.7 33.2L753 49.6M753 33.2l16.4 16.4M769.4 49.6l16.4-16.4M785.8 33.2L802 49.6M802.1 49.6l16.4-16.4M818.5 33.2l16.3 16.4M834.8 33.2l16.4 16.4M851.2 33.2l16.4 16.4M867.6 33.2l16.3 16.4M884 49.6l16.3-16.4M.5 49.6l16.3 16.3M16.8 49.6l16.4 16.3M33.2 49.6l16.4 16.3M49.6 66l16.3-16.4M66 49.6l16.3 16.3M82.3 49.6l16.3 16.3M98.6 49.6L115 65.9M115 66l16.4-16.4M131.4 49.6l16.3 16.3M147.7 49.6l16.4 16.3M164 66l16.4-16.4M180.4 66l16.4-16.4M196.8 66l16.4-16.4M213.2 49.6l16.3 16.3M229.5 49.6L246 65.9M245.9 66l16.3-16.4M262.2 66l16.4-16.4M278.6 66L295 49.5M295 66l16.3-16.4M311.3 49.6l16.4 16.3M327.7 66L344 49.5M344 49.6l16.4 16.3M360.4 49.6l16.4 16.3M376.8 66L393 49.5M393.1 66l16.4-16.4M409.5 66l16.3-16.4M425.8 66l16.4-16.4M442.2 66l16.4-16.4M458.6 49.6l16.3 16.3M475 66l16.3-16.4M491.3 66l16.3-16.4M507.6 66L524 49.5M524 49.6l16.4 16.3M540.4 66l16.3-16.4M556.7 49.6l16.4 16.3M573 49.6l16.4 16.3M589.4 66l16.4-16.4M605.8 66l16.4-16.4M622.2 49.6l16.3 16.3M638.5 49.6L655 65.9M654.9 49.6l16.3 16.3M671.2 49.6l16.4 16.3M687.6 49.6L704 65.9M704 49.6l16.3 16.3M720.3 49.6l16.4 16.3M736.7 49.6L753 65.9M753 49.6l16.4 16.3M769.4 66l16.4-16.4M785.8 66L802 49.5M802.1 49.6l16.4 16.3M818.5 49.6l16.3 16.3M834.8 49.6l16.4 16.3M851.2 49.6l16.4 16.3M867.6 49.6l16.3 16.3M884 66l16.3-16.4M.5 66l16.3 16.3M16.8 82.3l16.4-16.4M33.2 66l16.4 16.3M49.6 82.3l16.3-16.4M66 82.3l16.3-16.4M82.3 66l16.3 16.3M98.6 82.3L115 65.9M115 82.3l16.4-16.4M131.4 82.3l16.3-16.4M147.7 82.3l16.4-16.4M164 82.3l16.4-16.4M180.4 82.3l16.4-16.4M196.8 82.3l16.4-16.4M213.2 82.3l16.3-16.4M229.5 82.3L246 65.9M245.9 82.3l16.3-16.4M262.2 82.3l16.4-16.4M278.6 66L295 82.2M295 66l16.3 16.3M311.3 66l16.4 16.3M327.7 82.3L344 65.9M344 66l16.4 16.3M360.4 82.3l16.4-16.4M376.8 82.3L393 65.9M393.1 66l16.4 16.3M409.5 82.3l16.3-16.4M425.8 82.3l16.4-16.4M442.2 66l16.4 16.3M458.6 66l16.3 16.3M475 66l16.3 16.3M491.3 82.3l16.3-16.4M507.6 82.3L524 65.9M524 82.3l16.4-16.4M540.4 82.3l16.3-16.4M556.7 82.3l16.4-16.4M573 66l16.4 16.3M589.4 66l16.4 16.3M605.8 82.3l16.4-16.4M622.2 82.3l16.3-16.4M638.5 82.3L655 65.9M654.9 82.3l16.3-16.4M671.2 66l16.4 16.3M687.6 82.3L704 65.9M704 66l16.3 16.3M720.3 82.3l16.4-16.4M736.7 82.3L753 65.9M753 66l16.4 16.3M769.4 82.3l16.4-16.4M785.8 82.3L802 65.9M802.1 82.3l16.4-16.4M818.5 82.3l16.3-16.4M834.8 82.3l16.4-16.4M851.2 82.3l16.4-16.4M867.6 82.3l16.3-16.4M884 66l16.3 16.3M.5 82.3l16.3 16.3M16.8 98.6l16.4-16.3M33.2 82.3l16.4 16.3M49.6 82.3l16.3 16.3M66 82.3l16.3 16.3M82.3 82.3l16.3 16.3M98.6 82.3L115 98.6M115 82.3l16.4 16.3M131.4 82.3l16.3 16.3M147.7 82.3l16.4 16.3M164 98.6l16.4-16.3M180.4 98.6l16.4-16.3M196.8 98.6l16.4-16.3M213.2 82.3l16.3 16.3M229.5 82.3L246 98.6M245.9 98.6l16.3-16.3M262.2 98.6l16.4-16.3M278.6 98.6L295 82.3M295 98.6l16.3-16.3M311.3 98.6l16.4-16.3M327.7 82.3L344 98.6M344 82.3l16.4 16.3M360.4 98.6l16.4-16.3M376.8 98.6L393 82.3M393.1 98.6l16.4-16.3M409.5 82.3l16.3 16.3M425.8 98.6l16.4-16.3M442.2 98.6l16.4-16.3M458.6 98.6l16.3-16.3M475 98.6l16.3-16.3M491.3 82.3l16.3 16.3M507.6 98.6L524 82.3M524 82.3l16.4 16.3M540.4 82.3l16.3 16.3M556.7 98.6l16.4-16.3M573 82.3l16.4 16.3M589.4 82.3l16.4 16.3M605.8 82.3l16.4 16.3M622.2 82.3l16.3 16.3M638.5 82.3L655 98.6M654.9 82.3l16.3 16.3M671.2 82.3l16.4 16.3M687.6 98.6L704 82.3M704 98.6l16.3-16.3M720.3 98.6l16.4-16.3M736.7 98.6L753 82.3M753 98.6l16.4-16.3M769.4 82.3l16.4 16.3M785.8 82.3L802 98.6M802.1 82.3l16.4 16.3M818.5 82.3l16.3 16.3M834.8 98.6l16.4-16.3M851.2 82.3l16.4 16.3M867.6 82.3l16.3 16.3M884 82.3l16.3 16.3M.5 115l16.3-16.4M16.8 98.6L33.2 115M33.2 98.6L49.6 115M49.6 98.6L65.9 115M66 115l16.3-16.4M82.3 115l16.3-16.4M98.6 98.6L115 115M115 98.6l16.4 16.4M131.4 98.6l16.3 16.4M147.7 98.6l16.4 16.4M164 98.6l16.4 16.4M180.4 115l16.4-16.4M196.8 115l16.4-16.4M213.2 115l16.3-16.4M229.5 115L246 98.6M245.9 115l16.3-16.4M262.2 115l16.4-16.4M278.6 115L295 98.6M295 115l16.3-16.4M311.3 115l16.4-16.4M327.7 115L344 98.6M344 115l16.4-16.4M360.4 115l16.4-16.4M376.8 98.6L393 115M393.1 115l16.4-16.4M409.5 115l16.3-16.4M425.8 115l16.4-16.4M442.2 115l16.4-16.4M458.6 98.6l16.3 16.4M475 98.6l16.3 16.4M491.3 98.6l16.3 16.4M507.6 98.6L524 115M524 98.6l16.4 16.4M540.4 98.6l16.3 16.4M556.7 98.6l16.4 16.4M573 98.6l16.4 16.4M589.4 115l16.4-16.4M605.8 98.6l16.4 16.4M622.2 98.6l16.3 16.4M638.5 115L655 98.6M654.9 115l16.3-16.4M671.2 115l16.4-16.4M687.6 115L704 98.6M704 115l16.3-16.4M720.3 98.6l16.4 16.4M736.7 98.6L753 115M753 98.6l16.4 16.4M769.4 98.6l16.4 16.4M785.8 98.6L802 115M802.1 115l16.4-16.4M818.5 115l16.3-16.4M834.8 115l16.4-16.4M851.2 98.6l16.4 16.4M867.6 115l16.3-16.4M884 115l16.3-16.4M.5 131.4L16.8 115M16.8 115l16.4 16.4M33.2 131.4L49.6 115M49.6 115l16.3 16.4M66 131.4L82.2 115M82.3 131.4L98.6 115M98.6 131.4L115 115M115 131.4l16.4-16.4M131.4 131.4l16.3-16.4M147.7 131.4l16.4-16.4M164 115l16.4 16.4M180.4 131.4l16.4-16.4M196.8 131.4l16.4-16.4M213.2 131.4l16.3-16.4M229.5 131.4L246 115M245.9 115l16.3 16.4M262.2 115l16.4 16.4M278.6 115l16.4 16.4M295 131.4l16.3-16.4M311.3 115l16.4 16.4M327.7 131.4L344 115M344 131.4l16.4-16.4M360.4 115l16.4 16.4M376.8 115l16.3 16.4M393.1 131.4l16.4-16.4M409.5 131.4l16.3-16.4M425.8 131.4l16.4-16.4M442.2 115l16.4 16.4M458.6 115l16.3 16.4M475 131.4l16.3-16.4M491.3 131.4l16.3-16.4M507.6 115l16.4 16.4M524 115l16.4 16.4M540.4 115l16.3 16.4M556.7 131.4l16.4-16.4M573 115l16.4 16.4M589.4 131.4l16.4-16.4M605.8 115l16.4 16.4M622.2 115l16.3 16.4M638.5 131.4L655 115M654.9 131.4l16.3-16.4M671.2 131.4l16.4-16.4M687.6 131.4L704 115M704 131.4l16.3-16.4M720.3 115l16.4 16.4M736.7 131.4L753 115M753 131.4l16.4-16.4M769.4 115l16.4 16.4M785.8 131.4L802 115M802.1 115l16.4 16.4M818.5 131.4l16.3-16.4M834.8 115l16.4 16.4M851.2 115l16.4 16.4M867.6 115l16.3 16.4M884 115l16.3 16.4M.5 147.7l16.3-16.3M16.8 147.7l16.4-16.3M33.2 147.7l16.4-16.3M49.6 147.7l16.3-16.3M66 131.4l16.3 16.3M82.3 131.4l16.3 16.3M98.6 147.7l16.4-16.3M115 131.4l16.4 16.3M131.4 147.7l16.3-16.3M147.7 147.7l16.4-16.3M164 147.7l16.4-16.3M180.4 131.4l16.4 16.3M196.8 131.4l16.4 16.3M213.2 131.4l16.3 16.3M229.5 131.4l16.4 16.3M245.9 131.4l16.3 16.3M262.2 131.4l16.4 16.3M278.6 147.7l16.4-16.3M295 147.7l16.3-16.3M311.3 147.7l16.4-16.3M327.7 147.7l16.3-16.3M344 147.7l16.4-16.3M360.4 131.4l16.4 16.3M376.8 131.4l16.3 16.3M393.1 131.4l16.4 16.3M409.5 131.4l16.3 16.3M425.8 147.7l16.4-16.3M442.2 147.7l16.4-16.3M458.6 147.7l16.3-16.3M475 147.7l16.3-16.3M491.3 131.4l16.3 16.3M507.6 131.4l16.4 16.3M524 131.4l16.4 16.3M540.4 147.7l16.3-16.3M556.7 147.7l16.4-16.3M573 131.4l16.4 16.3M589.4 131.4l16.4 16.3M605.8 131.4l16.4 16.3M622.2 147.7l16.3-16.3M638.5 147.7l16.4-16.3M654.9 147.7l16.3-16.3M671.2 147.7l16.4-16.3M687.6 131.4l16.4 16.3M704 147.7l16.3-16.3M720.3 131.4l16.4 16.3M736.7 131.4l16.3 16.3M753 147.7l16.4-16.3M769.4 131.4l16.4 16.3M785.8 147.7l16.3-16.3M802.1 131.4l16.4 16.3M818.5 147.7l16.3-16.3M834.8 131.4l16.4 16.3M851.2 131.4l16.4 16.3M867.6 147.7l16.3-16.3M884 131.4l16.3 16.3M.5 147.7l16.3 16.4M16.8 164l16.4-16.3M33.2 164l16.4-16.3M49.6 147.7l16.3 16.4M66 147.7l16.3 16.4M82.3 164l16.3-16.3M98.6 147.7l16.4 16.4M115 147.7l16.4 16.4M131.4 147.7l16.3 16.4M147.7 147.7l16.4 16.4M164 164l16.4-16.3M180.4 147.7l16.4 16.4M196.8 147.7l16.4 16.4M213.2 164l16.3-16.3M229.5 147.7l16.4 16.4M245.9 147.7l16.3 16.4M262.2 164l16.4-16.3M278.6 164l16.4-16.3M295 147.7l16.3 16.4M311.3 147.7l16.4 16.4M327.7 164l16.3-16.3M344 164l16.4-16.3M360.4 164l16.4-16.3M376.8 164l16.3-16.3M393.1 147.7l16.4 16.4M409.5 147.7l16.3 16.4M425.8 147.7l16.4 16.4M442.2 147.7l16.4 16.4M458.6 147.7l16.3 16.4M475 164l16.3-16.3M491.3 164l16.3-16.3M507.6 147.7l16.4 16.4M524 147.7l16.4 16.4M540.4 147.7l16.3 16.4M556.7 164l16.4-16.3M573 164l16.4-16.3M589.4 147.7l16.4 16.4M605.8 147.7l16.4 16.4M622.2 147.7l16.3 16.4M638.5 147.7l16.4 16.4M654.9 164l16.3-16.3M671.2 164l16.4-16.3M687.6 147.7l16.4 16.4M704 147.7l16.3 16.4M720.3 147.7l16.4 16.4M736.7 147.7l16.3 16.4M753 147.7l16.4 16.4M769.4 147.7l16.4 16.4M785.8 164l16.3-16.3M802.1 147.7l16.4 16.4M818.5 147.7l16.3 16.4M834.8 147.7l16.4 16.4M851.2 147.7l16.4 16.4M867.6 147.7l16.3 16.4M884 147.7l16.3 16.4M.5 180.4l16.3-16.3M16.8 180.4l16.4-16.3M33.2 164l16.4 16.4M49.6 164l16.3 16.4M66 180.4l16.3-16.3M82.3 180.4l16.3-16.3M98.6 180.4l16.4-16.3M115 164l16.4 16.4M131.4 164l16.3 16.4M147.7 180.4l16.4-16.3M164 164l16.4 16.4M180.4 164l16.4 16.4M196.8 180.4l16.4-16.3M213.2 180.4l16.3-16.3M229.5 180.4l16.4-16.3M245.9 164l16.3 16.4M262.2 180.4l16.4-16.3M278.6 180.4l16.4-16.3M295 180.4l16.3-16.3M311.3 164l16.4 16.4M327.7 164l16.3 16.4M344 164l16.4 16.4M360.4 164l16.4 16.4M376.8 180.4l16.3-16.3M393.1 180.4l16.4-16.3M409.5 180.4l16.3-16.3M425.8 180.4l16.4-16.3M442.2 180.4l16.4-16.3M458.6 180.4l16.3-16.3M475 180.4l16.3-16.3M491.3 164l16.3 16.4M507.6 164l16.4 16.4M524 164l16.4 16.4M540.4 180.4l16.3-16.3M556.7 180.4l16.4-16.3M573 164l16.4 16.4M589.4 164l16.4 16.4M605.8 180.4l16.4-16.3M622.2 164l16.3 16.4M638.5 180.4l16.4-16.3M654.9 164l16.3 16.4M671.2 180.4l16.4-16.3M687.6 180.4l16.4-16.3M704 164l16.3 16.4M720.3 180.4l16.4-16.3M736.7 180.4l16.3-16.3M753 164l16.4 16.4M769.4 164l16.4 16.4M785.8 164l16.3 16.4M802.1 164l16.4 16.4M818.5 164l16.3 16.4M834.8 180.4l16.4-16.3M851.2 164l16.4 16.4M867.6 180.4l16.3-16.3M884 180.4l16.3-16.3M.5 196.8l16.3-16.4M16.8 196.8l16.4-16.4M33.2 180.4l16.4 16.4M49.6 180.4l16.3 16.4M66 196.8l16.3-16.4M82.3 196.8l16.3-16.4M98.6 196.8l16.4-16.4M115 180.4l16.4 16.4M131.4 196.8l16.3-16.4M147.7 196.8l16.4-16.4M164 196.8l16.4-16.4M180.4 196.8l16.4-16.4M196.8 180.4l16.4 16.4M213.2 196.8l16.3-16.4M229.5 196.8l16.4-16.4M245.9 180.4l16.3 16.4M262.2 180.4l16.4 16.4M278.6 196.8l16.4-16.4M295 180.4l16.3 16.4M311.3 180.4l16.4 16.4M327.7 180.4l16.3 16.4M344 180.4l16.4 16.4M360.4 180.4l16.4 16.4M376.8 196.8l16.3-16.4M393.1 196.8l16.4-16.4M409.5 196.8l16.3-16.4M425.8 196.8l16.4-16.4M442.2 180.4l16.4 16.4M458.6 180.4l16.3 16.4M475 196.8l16.3-16.4M491.3 196.8l16.3-16.4M507.6 180.4l16.4 16.4M524 180.4l16.4 16.4M540.4 196.8l16.3-16.4M556.7 196.8l16.4-16.4M573 180.4l16.4 16.4M589.4 180.4l16.4 16.4M605.8 196.8l16.4-16.4M622.2 180.4l16.3 16.4M638.5 196.8l16.4-16.4M654.9 196.8l16.3-16.4M671.2 180.4l16.4 16.4M687.6 180.4l16.4 16.4M704 180.4l16.3 16.4M720.3 196.8l16.4-16.4M736.7 180.4l16.3 16.4M753 180.4l16.4 16.4M769.4 180.4l16.4 16.4M785.8 180.4l16.3 16.4M802.1 180.4l16.4 16.4M818.5 196.8l16.3-16.4M834.8 180.4l16.4 16.4M851.2 180.4l16.4 16.4M867.6 196.8l16.3-16.4M884 180.4l16.3 16.4M.5 196.8l16.3 16.4M16.8 213.2l16.4-16.4M33.2 213.2l16.4-16.4M49.6 213.2l16.3-16.4M66 196.8l16.3 16.4M82.3 196.8l16.3 16.4M98.6 196.8l16.4 16.4M115 196.8l16.4 16.4M131.4 196.8l16.3 16.4M147.7 213.2l16.4-16.4M164 196.8l16.4 16.4M180.4 213.2l16.4-16.4M196.8 196.8l16.4 16.4M213.2 196.8l16.3 16.4M229.5 213.2l16.4-16.4M245.9 196.8l16.3 16.4M262.2 196.8l16.4 16.4M278.6 196.8l16.4 16.4M295 196.8l16.3 16.4M311.3 196.8l16.4 16.4M327.7 213.2l16.3-16.4M344 196.8l16.4 16.4M360.4 213.2l16.4-16.4M376.8 213.2l16.3-16.4M393.1 213.2l16.4-16.4M409.5 213.2l16.3-16.4M425.8 196.8l16.4 16.4M442.2 196.8l16.4 16.4M458.6 196.8l16.3 16.4M475 196.8l16.3 16.4M491.3 213.2l16.3-16.4M507.6 196.8l16.4 16.4M524 196.8l16.4 16.4M540.4 196.8l16.3 16.4M556.7 196.8l16.4 16.4M573 196.8l16.4 16.4M589.4 213.2l16.4-16.4M605.8 213.2l16.4-16.4M622.2 213.2l16.3-16.4M638.5 196.8l16.4 16.4M654.9 213.2l16.3-16.4M671.2 196.8l16.4 16.4M687.6 213.2l16.4-16.4M704 213.2l16.3-16.4M720.3 213.2l16.4-16.4M736.7 196.8l16.3 16.4M753 213.2l16.4-16.4M769.4 196.8l16.4 16.4M785.8 196.8l16.3 16.4M802.1 196.8l16.4 16.4M818.5 196.8l16.3 16.4M834.8 196.8l16.4 16.4M851.2 213.2l16.4-16.4M867.6 213.2l16.3-16.4M884 196.8l16.3 16.4M.5 213.2l16.3 16.3M16.8 229.5l16.4-16.3M33.2 213.2l16.4 16.3M49.6 229.5l16.3-16.3M66 213.2l16.3 16.3M82.3 213.2l16.3 16.3M98.6 213.2l16.4 16.3M115 213.2l16.4 16.3M131.4 213.2l16.3 16.3M147.7 229.5l16.4-16.3M164 213.2l16.4 16.3M180.4 229.5l16.4-16.3M196.8 229.5l16.4-16.3M213.2 213.2l16.3 16.3M229.5 229.5l16.4-16.3M245.9 213.2l16.3 16.3M262.2 213.2l16.4 16.3M278.6 213.2l16.4 16.3M295 213.2l16.3 16.3M311.3 213.2l16.4 16.3M327.7 229.5l16.3-16.3M344 229.5l16.4-16.3M360.4 229.5l16.4-16.3M376.8 229.5l16.3-16.3M393.1 229.5l16.4-16.3M409.5 213.2l16.3 16.3M425.8 213.2l16.4 16.3M442.2 229.5l16.4-16.3M458.6 213.2l16.3 16.3M475 229.5l16.3-16.3M491.3 213.2l16.3 16.3M507.6 213.2l16.4 16.3M524 213.2l16.4 16.3M540.4 213.2l16.3 16.3M556.7 213.2l16.4 16.3M573 213.2l16.4 16.3M589.4 213.2l16.4 16.3M605.8 213.2l16.4 16.3M622.2 213.2l16.3 16.3M638.5 213.2l16.4 16.3M654.9 229.5l16.3-16.3M671.2 213.2l16.4 16.3M687.6 229.5l16.4-16.3M704 229.5l16.3-16.3M720.3 229.5l16.4-16.3M736.7 229.5l16.3-16.3M753 229.5l16.4-16.3M769.4 229.5l16.4-16.3M785.8 213.2l16.3 16.3M802.1 213.2l16.4 16.3M818.5 213.2l16.3 16.3M834.8 229.5l16.4-16.3M851.2 213.2l16.4 16.3M867.6 213.2l16.3 16.3M884 213.2l16.3 16.3M.5 229.5L16.8 246M16.8 245.9l16.4-16.4M33.2 229.5L49.6 246M49.6 245.9l16.3-16.4M66 245.9l16.3-16.4M82.3 245.9l16.3-16.4M98.6 229.5L115 246M115 245.9l16.4-16.4M131.4 229.5l16.3 16.4M147.7 229.5l16.4 16.4M164 229.5l16.4 16.4M180.4 245.9l16.4-16.4M196.8 229.5l16.4 16.4M213.2 229.5l16.3 16.4M229.5 229.5L246 246M245.9 229.5l16.3 16.4M262.2 245.9l16.4-16.4M278.6 245.9l16.4-16.4M295 245.9l16.3-16.4M311.3 229.5l16.4 16.4M327.7 229.5L344 246M344 229.5l16.4 16.4M360.4 245.9l16.4-16.4M376.8 245.9l16.3-16.4M393.1 245.9l16.4-16.4M409.5 245.9l16.3-16.4M425.8 229.5l16.4 16.4M442.2 229.5l16.4 16.4M458.6 229.5l16.3 16.4M475 245.9l16.3-16.4M491.3 245.9l16.3-16.4M507.6 229.5L524 246M524 229.5l16.4 16.4M540.4 229.5l16.3 16.4M556.7 229.5l16.4 16.4M573 229.5l16.4 16.4M589.4 245.9l16.4-16.4M605.8 229.5l16.4 16.4M622.2 229.5l16.3 16.4M638.5 245.9l16.4-16.4M654.9 245.9l16.3-16.4M671.2 245.9l16.4-16.4M687.6 245.9l16.4-16.4M704 229.5l16.3 16.4M720.3 229.5l16.4 16.4M736.7 245.9l16.3-16.4M753 245.9l16.4-16.4M769.4 245.9l16.4-16.4M785.8 229.5L802 246M802.1 245.9l16.4-16.4M818.5 245.9l16.3-16.4M834.8 229.5l16.4 16.4M851.2 229.5l16.4 16.4M867.6 245.9l16.3-16.4M884 245.9l16.3-16.4M.5 262.2L16.8 246M16.8 262.2L33.2 246M33.2 262.2L49.6 246M49.6 245.9l16.3 16.3M66 262.2L82.2 246M82.3 245.9l16.3 16.3M98.6 245.9l16.4 16.3M115 262.2l16.4-16.3M131.4 245.9l16.3 16.3M147.7 262.2l16.4-16.3M164 262.2l16.4-16.3M180.4 262.2l16.4-16.3M196.8 245.9l16.4 16.3M213.2 262.2l16.3-16.3M229.5 245.9l16.4 16.3M245.9 245.9l16.3 16.3M262.2 262.2l16.4-16.3M278.6 245.9l16.4 16.3M295 262.2l16.3-16.3M311.3 245.9l16.4 16.3M327.7 262.2L344 246M344 245.9l16.4 16.3M360.4 245.9l16.4 16.3M376.8 262.2L393 246M393.1 245.9l16.4 16.3M409.5 262.2l16.3-16.3M425.8 245.9l16.4 16.3M442.2 262.2l16.4-16.3M458.6 245.9l16.3 16.3M475 245.9l16.3 16.3M491.3 245.9l16.3 16.3M507.6 245.9l16.4 16.3M524 262.2l16.4-16.3M540.4 245.9l16.3 16.3M556.7 262.2l16.4-16.3M573 245.9l16.4 16.3M589.4 245.9l16.4 16.3M605.8 245.9l16.4 16.3M622.2 245.9l16.3 16.3M638.5 262.2L655 246M654.9 245.9l16.3 16.3M671.2 245.9l16.4 16.3M687.6 245.9l16.4 16.3M704 245.9l16.3 16.3M720.3 262.2l16.4-16.3M736.7 262.2L753 246M753 262.2l16.4-16.3M769.4 262.2l16.4-16.3M785.8 262.2L802 246M802.1 245.9l16.4 16.3M818.5 262.2l16.3-16.3M834.8 245.9l16.4 16.3M851.2 245.9l16.4 16.3M867.6 262.2l16.3-16.3M884 262.2l16.3-16.3M.5 278.6l16.3-16.4M16.8 278.6l16.4-16.4M33.2 278.6l16.4-16.4M49.6 278.6l16.3-16.4M66 278.6l16.3-16.4M82.3 262.2l16.3 16.4M98.6 262.2l16.4 16.4M115 278.6l16.4-16.4M131.4 262.2l16.3 16.4M147.7 262.2l16.4 16.4M164 262.2l16.4 16.4M180.4 262.2l16.4 16.4M196.8 262.2l16.4 16.4M213.2 278.6l16.3-16.4M229.5 262.2l16.4 16.4M245.9 262.2l16.3 16.4M262.2 278.6l16.4-16.4M278.6 262.2l16.4 16.4M295 278.6l16.3-16.4M311.3 278.6l16.4-16.4M327.7 278.6l16.3-16.4M344 262.2l16.4 16.4M360.4 262.2l16.4 16.4M376.8 262.2l16.3 16.4M393.1 262.2l16.4 16.4M409.5 278.6l16.3-16.4M425.8 278.6l16.4-16.4M442.2 278.6l16.4-16.4M458.6 278.6l16.3-16.4M475 278.6l16.3-16.4M491.3 278.6l16.3-16.4M507.6 278.6l16.4-16.4M524 278.6l16.4-16.4M540.4 262.2l16.3 16.4M556.7 278.6l16.4-16.4M573 262.2l16.4 16.4M589.4 278.6l16.4-16.4M605.8 262.2l16.4 16.4M622.2 262.2l16.3 16.4M638.5 278.6l16.4-16.4M654.9 262.2l16.3 16.4M671.2 278.6l16.4-16.4M687.6 278.6l16.4-16.4M704 278.6l16.3-16.4M720.3 262.2l16.4 16.4M736.7 262.2l16.3 16.4M753 262.2l16.4 16.4M769.4 262.2l16.4 16.4M785.8 278.6l16.3-16.4M802.1 262.2l16.4 16.4M818.5 262.2l16.3 16.4M834.8 262.2l16.4 16.4M851.2 262.2l16.4 16.4M867.6 262.2l16.3 16.4M884 262.2l16.3 16.4M.5 278.6L16.8 295M16.8 278.6L33.2 295M33.2 295l16.4-16.4M49.6 295l16.3-16.4M66 295l16.3-16.4M82.3 295l16.3-16.4M98.6 278.6L115 295M115 295l16.4-16.4M131.4 295l16.3-16.4M147.7 278.6l16.4 16.4M164 295l16.4-16.4M180.4 295l16.4-16.4M196.8 295l16.4-16.4M213.2 278.6l16.3 16.4M229.5 278.6L246 295M245.9 295l16.3-16.4M262.2 278.6l16.4 16.4M278.6 278.6L295 295M295 295l16.3-16.4M311.3 295l16.4-16.4M327.7 278.6L344 295M344 278.6l16.4 16.4M360.4 295l16.4-16.4M376.8 278.6L393 295M393.1 278.6l16.4 16.4M409.5 278.6l16.3 16.4M425.8 295l16.4-16.4M442.2 295l16.4-16.4M458.6 295l16.3-16.4M475 278.6l16.3 16.4M491.3 278.6l16.3 16.4M507.6 278.6L524 295M524 295l16.4-16.4M540.4 295l16.3-16.4M556.7 278.6l16.4 16.4M573 278.6l16.4 16.4M589.4 278.6l16.4 16.4M605.8 278.6l16.4 16.4M622.2 278.6l16.3 16.4M638.5 295l16.4-16.4M654.9 295l16.3-16.4M671.2 278.6l16.4 16.4M687.6 295l16.4-16.4M704 295l16.3-16.4M720.3 278.6l16.4 16.4M736.7 278.6L753 295M753 295l16.4-16.4M769.4 278.6l16.4 16.4M785.8 295l16.3-16.4M802.1 295l16.4-16.4M818.5 295l16.3-16.4M834.8 295l16.4-16.4M851.2 278.6l16.4 16.4M867.6 295l16.3-16.4M884 295l16.3-16.4M.5 311.3L16.8 295M16.8 311.3L33.2 295M33.2 311.3L49.6 295M49.6 295l16.3 16.3M66 295l16.3 16.3M82.3 295l16.3 16.3M98.6 295l16.4 16.3M115 311.3l16.4-16.3M131.4 311.3l16.3-16.3M147.7 311.3l16.4-16.3M164 295l16.4 16.3M180.4 295l16.4 16.3M196.8 311.3l16.4-16.3M213.2 295l16.3 16.3M229.5 295l16.4 16.3M245.9 295l16.3 16.3M262.2 295l16.4 16.3M278.6 311.3L295 295M295 295l16.3 16.3M311.3 295l16.4 16.3M327.7 295l16.3 16.3M344 311.3l16.4-16.3M360.4 295l16.4 16.3M376.8 295l16.3 16.3M393.1 295l16.4 16.3M409.5 311.3l16.3-16.3M425.8 295l16.4 16.3M442.2 311.3l16.4-16.3M458.6 311.3l16.3-16.3M475 311.3l16.3-16.3M491.3 295l16.3 16.3M507.6 311.3L524 295M524 311.3l16.4-16.3M540.4 295l16.3 16.3M556.7 295l16.4 16.3M573 295l16.4 16.3M589.4 311.3l16.4-16.3M605.8 311.3l16.4-16.3M622.2 311.3l16.3-16.3M638.5 295l16.4 16.3M654.9 311.3l16.3-16.3M671.2 295l16.4 16.3M687.6 311.3L704 295M704 311.3l16.3-16.3M720.3 311.3l16.4-16.3M736.7 295l16.3 16.3M753 295l16.4 16.3M769.4 295l16.4 16.3M785.8 295l16.3 16.3M802.1 295l16.4 16.3M818.5 295l16.3 16.3M834.8 311.3l16.4-16.3M851.2 311.3l16.4-16.3M867.6 295l16.3 16.3M884 311.3l16.3-16.3M.5 327.7l16.3-16.4M16.8 311.3l16.4 16.4M33.2 327.7l16.4-16.4M49.6 327.7l16.3-16.4M66 311.3l16.3 16.4M82.3 327.7l16.3-16.4M98.6 327.7l16.4-16.4M115 327.7l16.4-16.4M131.4 311.3l16.3 16.4M147.7 311.3l16.4 16.4M164 311.3l16.4 16.4M180.4 311.3l16.4 16.4M196.8 311.3l16.4 16.4M213.2 311.3l16.3 16.4M229.5 327.7l16.4-16.4M245.9 327.7l16.3-16.4M262.2 327.7l16.4-16.4M278.6 327.7l16.4-16.4M295 327.7l16.3-16.4M311.3 311.3l16.4 16.4M327.7 311.3l16.3 16.4M344 327.7l16.4-16.4M360.4 311.3l16.4 16.4M376.8 311.3l16.3 16.4M393.1 311.3l16.4 16.4M409.5 311.3l16.3 16.4M425.8 311.3l16.4 16.4M442.2 327.7l16.4-16.4M458.6 327.7l16.3-16.4M475 327.7l16.3-16.4M491.3 327.7l16.3-16.4M507.6 327.7l16.4-16.4M524 311.3l16.4 16.4M540.4 311.3l16.3 16.4M556.7 311.3l16.4 16.4M573 311.3l16.4 16.4M589.4 327.7l16.4-16.4M605.8 327.7l16.4-16.4M622.2 311.3l16.3 16.4M638.5 311.3l16.4 16.4M654.9 327.7l16.3-16.4M671.2 327.7l16.4-16.4M687.6 311.3l16.4 16.4M704 327.7l16.3-16.4M720.3 311.3l16.4 16.4M736.7 311.3l16.3 16.4M753 327.7l16.4-16.4M769.4 311.3l16.4 16.4M785.8 311.3l16.3 16.4M802.1 327.7l16.4-16.4M818.5 311.3l16.3 16.4M834.8 311.3l16.4 16.4M851.2 327.7l16.4-16.4M867.6 327.7l16.3-16.4M884 311.3l16.3 16.4M.5 344l16.3-16.3M16.8 344l16.4-16.3M33.2 327.7L49.6 344M49.6 344l16.3-16.3M66 344l16.3-16.3M82.3 327.7L98.6 344M98.6 327.7L115 344M115 327.7l16.4 16.3M131.4 327.7l16.3 16.3M147.7 327.7l16.4 16.3M164 327.7l16.4 16.3M180.4 327.7l16.4 16.3M196.8 327.7l16.4 16.3M213.2 327.7l16.3 16.3M229.5 344l16.4-16.3M245.9 344l16.3-16.3M262.2 327.7l16.4 16.3M278.6 327.7L295 344M295 327.7l16.3 16.3M311.3 327.7l16.4 16.3M327.7 344l16.3-16.3M344 344l16.4-16.3M360.4 327.7l16.4 16.3M376.8 344l16.3-16.3M393.1 344l16.4-16.3M409.5 327.7l16.3 16.3M425.8 344l16.4-16.3M442.2 327.7l16.4 16.3M458.6 327.7l16.3 16.3M475 344l16.3-16.3M491.3 344l16.3-16.3M507.6 344l16.4-16.3M524 344l16.4-16.3M540.4 344l16.3-16.3M556.7 344l16.4-16.3M573 327.7l16.4 16.3M589.4 327.7l16.4 16.3M605.8 344l16.4-16.3M622.2 344l16.3-16.3M638.5 344l16.4-16.3M654.9 327.7l16.3 16.3M671.2 327.7l16.4 16.3M687.6 327.7L704 344M704 327.7l16.3 16.3M720.3 327.7l16.4 16.3M736.7 327.7L753 344M753 327.7l16.4 16.3M769.4 327.7l16.4 16.3M785.8 344l16.3-16.3M802.1 344l16.4-16.3M818.5 344l16.3-16.3M834.8 344l16.4-16.3M851.2 344l16.4-16.3M867.6 327.7l16.3 16.3M884 327.7l16.3 16.3M.5 360.4L16.8 344M16.8 360.4L33.2 344M33.2 360.4L49.6 344M49.6 344l16.3 16.4M66 344l16.3 16.4M82.3 344l16.3 16.4M98.6 360.4L115 344M115 360.4l16.4-16.4M131.4 344l16.3 16.4M147.7 344l16.4 16.4M164 344l16.4 16.4M180.4 360.4l16.4-16.4M196.8 344l16.4 16.4M213.2 360.4l16.3-16.4M229.5 360.4L246 344M245.9 344l16.3 16.4M262.2 344l16.4 16.4M278.6 344l16.4 16.4M295 360.4l16.3-16.4M311.3 360.4l16.4-16.4M327.7 344l16.3 16.4M344 360.4l16.4-16.4M360.4 360.4l16.4-16.4M376.8 360.4L393 344M393.1 360.4l16.4-16.4M409.5 360.4l16.3-16.4M425.8 344l16.4 16.4M442.2 344l16.4 16.4M458.6 360.4l16.3-16.4M475 344l16.3 16.4M491.3 344l16.3 16.4M507.6 344l16.4 16.4M524 360.4l16.4-16.4M540.4 344l16.3 16.4M556.7 360.4l16.4-16.4M573 360.4l16.4-16.4M589.4 344l16.4 16.4M605.8 360.4l16.4-16.4M622.2 360.4l16.3-16.4M638.5 360.4L655 344M654.9 360.4l16.3-16.4M671.2 344l16.4 16.4M687.6 360.4L704 344M704 360.4l16.3-16.4M720.3 360.4l16.4-16.4M736.7 360.4L753 344M753 344l16.4 16.4M769.4 344l16.4 16.4M785.8 360.4L802 344M802.1 344l16.4 16.4M818.5 360.4l16.3-16.4M834.8 360.4l16.4-16.4M851.2 344l16.4 16.4M867.6 344l16.3 16.4M884 360.4l16.3-16.4M.5 360.4l16.3 16.4M16.8 360.4l16.4 16.4M33.2 376.8l16.4-16.4M49.6 376.8l16.3-16.4M66 376.8l16.3-16.4M82.3 360.4l16.3 16.4M98.6 376.8l16.4-16.4M115 360.4l16.4 16.4M131.4 360.4l16.3 16.4M147.7 360.4l16.4 16.4M164 360.4l16.4 16.4M180.4 376.8l16.4-16.4M196.8 376.8l16.4-16.4M213.2 376.8l16.3-16.4M229.5 360.4l16.4 16.4M245.9 360.4l16.3 16.4M262.2 376.8l16.4-16.4M278.6 376.8l16.4-16.4M295 360.4l16.3 16.4M311.3 360.4l16.4 16.4M327.7 360.4l16.3 16.4M344 360.4l16.4 16.4M360.4 360.4l16.4 16.4M376.8 376.8l16.3-16.4M393.1 376.8l16.4-16.4M409.5 360.4l16.3 16.4M425.8 360.4l16.4 16.4M442.2 360.4l16.4 16.4M458.6 376.8l16.3-16.4M475 376.8l16.3-16.4M491.3 376.8l16.3-16.4M507.6 376.8l16.4-16.4M524 376.8l16.4-16.4M540.4 360.4l16.3 16.4M556.7 360.4l16.4 16.4M573 376.8l16.4-16.4M589.4 376.8l16.4-16.4M605.8 376.8l16.4-16.4M622.2 360.4l16.3 16.4M638.5 360.4l16.4 16.4M654.9 376.8l16.3-16.4M671.2 360.4l16.4 16.4M687.6 360.4l16.4 16.4M704 360.4l16.3 16.4M720.3 376.8l16.4-16.4M736.7 376.8l16.3-16.4M753 360.4l16.4 16.4M769.4 376.8l16.4-16.4M785.8 360.4l16.3 16.4M802.1 360.4l16.4 16.4M818.5 376.8l16.3-16.4M834.8 376.8l16.4-16.4M851.2 360.4l16.4 16.4M867.6 376.8l16.3-16.4M884 360.4l16.3 16.4M.5 393.1l16.3-16.3M16.8 393.1l16.4-16.3M33.2 376.8L49.6 393M49.6 376.8L65.9 393M66 376.8L82.2 393M82.3 376.8L98.6 393M98.6 393.1l16.4-16.3M115 376.8l16.4 16.3M131.4 376.8l16.3 16.3M147.7 393.1l16.4-16.3M164 376.8l16.4 16.3M180.4 393.1l16.4-16.3M196.8 393.1l16.4-16.3M213.2 393.1l16.3-16.3M229.5 393.1l16.4-16.3M245.9 393.1l16.3-16.3M262.2 376.8l16.4 16.3M278.6 393.1l16.4-16.3M295 393.1l16.3-16.3M311.3 393.1l16.4-16.3M327.7 376.8L344 393M344 376.8l16.4 16.3M360.4 376.8l16.4 16.3M376.8 393.1l16.3-16.3M393.1 393.1l16.4-16.3M409.5 393.1l16.3-16.3M425.8 376.8l16.4 16.3M442.2 376.8l16.4 16.3M458.6 376.8l16.3 16.3M475 376.8l16.3 16.3M491.3 376.8l16.3 16.3M507.6 376.8L524 393M524 393.1l16.4-16.3M540.4 376.8l16.3 16.3M556.7 376.8l16.4 16.3M573 376.8l16.4 16.3M589.4 393.1l16.4-16.3M605.8 393.1l16.4-16.3M622.2 376.8l16.3 16.3M638.5 393.1l16.4-16.3M654.9 376.8l16.3 16.3M671.2 376.8l16.4 16.3M687.6 393.1l16.4-16.3M704 393.1l16.3-16.3M720.3 376.8l16.4 16.3M736.7 393.1l16.3-16.3M753 376.8l16.4 16.3M769.4 376.8l16.4 16.3M785.8 376.8L802 393M802.1 376.8l16.4 16.3M818.5 376.8l16.3 16.3M834.8 376.8l16.4 16.3M851.2 376.8l16.4 16.3M867.6 376.8l16.3 16.3M884 376.8l16.3 16.3M.5 409.5L16.8 393M16.8 409.5L33.2 393M33.2 393.1l16.4 16.4M49.6 393.1l16.3 16.4M66 409.5L82.2 393M82.3 409.5L98.6 393M98.6 393.1l16.4 16.4M115 393.1l16.4 16.4M131.4 409.5l16.3-16.4M147.7 393.1l16.4 16.4M164 393.1l16.4 16.4M180.4 393.1l16.4 16.4M196.8 409.5l16.4-16.4M213.2 393.1l16.3 16.4M229.5 393.1l16.4 16.4M245.9 409.5l16.3-16.4M262.2 393.1l16.4 16.4M278.6 409.5L295 393M295 393.1l16.3 16.4M311.3 409.5l16.4-16.4M327.7 409.5L344 393M344 393.1l16.4 16.4M360.4 409.5l16.4-16.4M376.8 393.1l16.3 16.4M393.1 393.1l16.4 16.4M409.5 409.5l16.3-16.4M425.8 393.1l16.4 16.4M442.2 393.1l16.4 16.4M458.6 409.5l16.3-16.4M475 409.5l16.3-16.4M491.3 393.1l16.3 16.4M507.6 409.5L524 393M524 409.5l16.4-16.4M540.4 409.5l16.3-16.4M556.7 393.1l16.4 16.4M573 409.5l16.4-16.4M589.4 409.5l16.4-16.4M605.8 409.5l16.4-16.4M622.2 393.1l16.3 16.4M638.5 409.5L655 393M654.9 409.5l16.3-16.4M671.2 393.1l16.4 16.4M687.6 393.1l16.4 16.4M704 393.1l16.3 16.4M720.3 393.1l16.4 16.4M736.7 409.5L753 393M753 409.5l16.4-16.4M769.4 409.5l16.4-16.4M785.8 393.1l16.3 16.4M802.1 393.1l16.4 16.4M818.5 393.1l16.3 16.4M834.8 409.5l16.4-16.4M851.2 409.5l16.4-16.4M867.6 393.1l16.3 16.4M884 393.1l16.3 16.4M.5 425.8l16.3-16.3M16.8 409.5l16.4 16.3M33.2 409.5l16.4 16.3M49.6 425.8l16.3-16.3M66 425.8l16.3-16.3M82.3 425.8l16.3-16.3M98.6 409.5l16.4 16.3M115 409.5l16.4 16.3M131.4 409.5l16.3 16.3M147.7 409.5l16.4 16.3M164 409.5l16.4 16.3M180.4 425.8l16.4-16.3M196.8 425.8l16.4-16.3M213.2 409.5l16.3 16.3M229.5 409.5l16.4 16.3M245.9 409.5l16.3 16.3M262.2 409.5l16.4 16.3M278.6 409.5l16.4 16.3M295 409.5l16.3 16.3M311.3 409.5l16.4 16.3M327.7 425.8l16.3-16.3M344 425.8l16.4-16.3M360.4 425.8l16.4-16.3M376.8 409.5l16.3 16.3M393.1 409.5l16.4 16.3M409.5 409.5l16.3 16.3M425.8 409.5l16.4 16.3M442.2 409.5l16.4 16.3M458.6 409.5l16.3 16.3M475 425.8l16.3-16.3M491.3 425.8l16.3-16.3M507.6 409.5l16.4 16.3M524 425.8l16.4-16.3M540.4 425.8l16.3-16.3M556.7 425.8l16.4-16.3M573 409.5l16.4 16.3M589.4 409.5l16.4 16.3M605.8 409.5l16.4 16.3M622.2 409.5l16.3 16.3M638.5 425.8l16.4-16.3M654.9 425.8l16.3-16.3M671.2 425.8l16.4-16.3M687.6 425.8l16.4-16.3M704 425.8l16.3-16.3M720.3 409.5l16.4 16.3M736.7 409.5l16.3 16.3M753 425.8l16.4-16.3M769.4 425.8l16.4-16.3M785.8 409.5l16.3 16.3M802.1 409.5l16.4 16.3M818.5 425.8l16.3-16.3M834.8 409.5l16.4 16.3M851.2 425.8l16.4-16.3M867.6 409.5l16.3 16.3M884 425.8l16.3-16.3M.5 442.2l16.3-16.4M16.8 442.2l16.4-16.4M33.2 442.2l16.4-16.4M49.6 442.2l16.3-16.4M66 425.8l16.3 16.4M82.3 425.8l16.3 16.4M98.6 425.8l16.4 16.4M115 442.2l16.4-16.4M131.4 442.2l16.3-16.4M147.7 442.2l16.4-16.4M164 442.2l16.4-16.4M180.4 425.8l16.4 16.4M196.8 442.2l16.4-16.4M213.2 442.2l16.3-16.4M229.5 425.8l16.4 16.4M245.9 425.8l16.3 16.4M262.2 425.8l16.4 16.4M278.6 425.8l16.4 16.4M295 442.2l16.3-16.4M311.3 442.2l16.4-16.4M327.7 425.8l16.3 16.4M344 425.8l16.4 16.4M360.4 442.2l16.4-16.4M376.8 425.8l16.3 16.4M393.1 425.8l16.4 16.4M409.5 425.8l16.3 16.4M425.8 442.2l16.4-16.4M442.2 442.2l16.4-16.4M458.6 425.8l16.3 16.4M475 442.2l16.3-16.4M491.3 425.8l16.3 16.4M507.6 425.8l16.4 16.4M524 425.8l16.4 16.4M540.4 442.2l16.3-16.4M556.7 442.2l16.4-16.4M573 425.8l16.4 16.4M589.4 442.2l16.4-16.4M605.8 425.8l16.4 16.4M622.2 442.2l16.3-16.4M638.5 442.2l16.4-16.4M654.9 442.2l16.3-16.4M671.2 425.8l16.4 16.4M687.6 425.8l16.4 16.4M704 425.8l16.3 16.4M720.3 425.8l16.4 16.4M736.7 425.8l16.3 16.4M753 442.2l16.4-16.4M769.4 442.2l16.4-16.4M785.8 442.2l16.3-16.4M802.1 425.8l16.4 16.4M818.5 442.2l16.3-16.4M834.8 442.2l16.4-16.4M851.2 425.8l16.4 16.4M867.6 425.8l16.3 16.4M884 425.8l16.3 16.4M.5 442.2l16.3 16.4M16.8 442.2l16.4 16.4M33.2 442.2l16.4 16.4M49.6 442.2l16.3 16.4M66 442.2l16.3 16.4M82.3 442.2l16.3 16.4M98.6 442.2l16.4 16.4M115 442.2l16.4 16.4M131.4 458.6l16.3-16.4M147.7 458.6l16.4-16.4M164 458.6l16.4-16.4M180.4 458.6l16.4-16.4M196.8 442.2l16.4 16.4M213.2 458.6l16.3-16.4M229.5 458.6l16.4-16.4M245.9 442.2l16.3 16.4M262.2 458.6l16.4-16.4M278.6 458.6l16.4-16.4M295 458.6l16.3-16.4M311.3 442.2l16.4 16.4M327.7 442.2l16.3 16.4M344 458.6l16.4-16.4M360.4 442.2l16.4 16.4M376.8 442.2l16.3 16.4M393.1 458.6l16.4-16.4M409.5 442.2l16.3 16.4M425.8 442.2l16.4 16.4M442.2 458.6l16.4-16.4M458.6 442.2l16.3 16.4M475 458.6l16.3-16.4M491.3 442.2l16.3 16.4M507.6 442.2l16.4 16.4M524 442.2l16.4 16.4M540.4 442.2l16.3 16.4M556.7 442.2l16.4 16.4M573 442.2l16.4 16.4M589.4 458.6l16.4-16.4M605.8 458.6l16.4-16.4M622.2 458.6l16.3-16.4M638.5 442.2l16.4 16.4M654.9 442.2l16.3 16.4M671.2 442.2l16.4 16.4M687.6 458.6l16.4-16.4M704 458.6l16.3-16.4M720.3 458.6l16.4-16.4M736.7 458.6l16.3-16.4M753 442.2l16.4 16.4M769.4 442.2l16.4 16.4M785.8 458.6l16.3-16.4M802.1 442.2l16.4 16.4M818.5 442.2l16.3 16.4M834.8 458.6l16.4-16.4M851.2 458.6l16.4-16.4M867.6 458.6l16.3-16.4M884 458.6l16.3-16.4M.5 458.6l16.3 16.3M16.8 458.6l16.4 16.3M33.2 458.6l16.4 16.3M49.6 458.6l16.3 16.3M66 458.6l16.3 16.3M82.3 458.6l16.3 16.3M98.6 475l16.4-16.4M115 475l16.4-16.4M131.4 458.6l16.3 16.3M147.7 458.6l16.4 16.3M164 458.6l16.4 16.3M180.4 475l16.4-16.4M196.8 458.6l16.4 16.3M213.2 458.6l16.3 16.3M229.5 475l16.4-16.4M245.9 475l16.3-16.4M262.2 475l16.4-16.4M278.6 475l16.4-16.4M295 475l16.3-16.4M311.3 458.6l16.4 16.3M327.7 475l16.3-16.4M344 475l16.4-16.4M360.4 475l16.4-16.4M376.8 458.6l16.3 16.3M393.1 458.6l16.4 16.3M409.5 458.6l16.3 16.3M425.8 475l16.4-16.4M442.2 475l16.4-16.4M458.6 475l16.3-16.4M475 458.6l16.3 16.3M491.3 458.6l16.3 16.3M507.6 475l16.4-16.4M524 475l16.4-16.4M540.4 475l16.3-16.4M556.7 475l16.4-16.4M573 475l16.4-16.4M589.4 475l16.4-16.4M605.8 458.6l16.4 16.3M622.2 475l16.3-16.4M638.5 475l16.4-16.4M654.9 475l16.3-16.4M671.2 475l16.4-16.4M687.6 458.6l16.4 16.3M704 475l16.3-16.4M720.3 458.6l16.4 16.3M736.7 475l16.3-16.4M753 458.6l16.4 16.3M769.4 458.6l16.4 16.3M785.8 475l16.3-16.4M802.1 475l16.4-16.4M818.5 475l16.3-16.4M834.8 475l16.4-16.4M851.2 475l16.4-16.4M867.6 475l16.3-16.4M884 458.6l16.3 16.3M.5 475l16.3 16.3M16.8 475l16.4 16.3M33.2 491.3l16.4-16.4M49.6 491.3l16.3-16.4M66 491.3l16.3-16.4M82.3 491.3l16.3-16.4M98.6 491.3l16.4-16.4M115 475l16.4 16.3M131.4 475l16.3 16.3M147.7 475l16.4 16.3M164 491.3l16.4-16.4M180.4 491.3l16.4-16.4M196.8 491.3l16.4-16.4M213.2 491.3l16.3-16.4M229.5 475l16.4 16.3M245.9 475l16.3 16.3M262.2 491.3l16.4-16.4M278.6 475l16.4 16.3M295 491.3l16.3-16.4M311.3 491.3l16.4-16.4M327.7 491.3l16.3-16.4M344 491.3l16.4-16.4M360.4 491.3l16.4-16.4M376.8 491.3l16.3-16.4M393.1 491.3l16.4-16.4M409.5 475l16.3 16.3M425.8 491.3l16.4-16.4M442.2 475l16.4 16.3M458.6 475l16.3 16.3M475 475l16.3 16.3M491.3 475l16.3 16.3M507.6 475l16.4 16.3M524 475l16.4 16.3M540.4 491.3l16.3-16.4M556.7 475l16.4 16.3M573 475l16.4 16.3M589.4 491.3l16.4-16.4M605.8 491.3l16.4-16.4M622.2 475l16.3 16.3M638.5 475l16.4 16.3M654.9 491.3l16.3-16.4M671.2 491.3l16.4-16.4M687.6 491.3l16.4-16.4M704 475l16.3 16.3M720.3 475l16.4 16.3M736.7 475l16.3 16.3M753 475l16.4 16.3M769.4 475l16.4 16.3M785.8 475l16.3 16.3M802.1 475l16.4 16.3M818.5 491.3l16.3-16.4M834.8 475l16.4 16.3M851.2 475l16.4 16.3M867.6 491.3l16.3-16.4M884 491.3l16.3-16.4M.5 491.3l16.3 16.3M16.8 491.3l16.4 16.3M33.2 491.3l16.4 16.3M49.6 507.6l16.3-16.3M66 507.6l16.3-16.3M82.3 507.6l16.3-16.3M98.6 507.6l16.4-16.3M115 491.3l16.4 16.3M131.4 507.6l16.3-16.3M147.7 491.3l16.4 16.3M164 507.6l16.4-16.3M180.4 491.3l16.4 16.3M196.8 507.6l16.4-16.3M213.2 507.6l16.3-16.3M229.5 507.6l16.4-16.3M245.9 491.3l16.3 16.3M262.2 507.6l16.4-16.3M278.6 491.3l16.4 16.3M295 491.3l16.3 16.3M311.3 507.6l16.4-16.3M327.7 507.6l16.3-16.3M344 507.6l16.4-16.3M360.4 507.6l16.4-16.3M376.8 507.6l16.3-16.3M393.1 491.3l16.4 16.3M409.5 491.3l16.3 16.3M425.8 491.3l16.4 16.3M442.2 491.3l16.4 16.3M458.6 507.6l16.3-16.3M475 491.3l16.3 16.3M491.3 491.3l16.3 16.3M507.6 507.6l16.4-16.3M524 491.3l16.4 16.3M540.4 491.3l16.3 16.3M556.7 491.3l16.4 16.3M573 507.6l16.4-16.3M589.4 491.3l16.4 16.3M605.8 507.6l16.4-16.3M622.2 507.6l16.3-16.3M638.5 491.3l16.4 16.3M654.9 491.3l16.3 16.3M671.2 507.6l16.4-16.3M687.6 491.3l16.4 16.3M704 491.3l16.3 16.3M720.3 491.3l16.4 16.3M736.7 507.6l16.3-16.3M753 507.6l16.4-16.3M769.4 507.6l16.4-16.3M785.8 491.3l16.3 16.3M802.1 491.3l16.4 16.3M818.5 491.3l16.3 16.3M834.8 491.3l16.4 16.3M851.2 507.6l16.4-16.3M867.6 491.3l16.3 16.3M884 507.6l16.3-16.3M.5 507.6L16.8 524M16.8 524l16.4-16.4M33.2 507.6L49.6 524M49.6 507.6L65.9 524M66 524l16.3-16.4M82.3 524l16.3-16.4M98.6 524l16.4-16.4M115 507.6l16.4 16.4M131.4 507.6l16.3 16.4M147.7 507.6l16.4 16.4M164 507.6l16.4 16.4M180.4 507.6l16.4 16.4M196.8 524l16.4-16.4M213.2 507.6l16.3 16.4M229.5 524l16.4-16.4M245.9 524l16.3-16.4M262.2 524l16.4-16.4M278.6 507.6L295 524M295 507.6l16.3 16.4M311.3 507.6l16.4 16.4M327.7 507.6L344 524M344 507.6l16.4 16.4M360.4 507.6l16.4 16.4M376.8 524l16.3-16.4M393.1 507.6l16.4 16.4M409.5 507.6l16.3 16.4M425.8 524l16.4-16.4M442.2 507.6l16.4 16.4M458.6 507.6l16.3 16.4M475 507.6l16.3 16.4M491.3 524l16.3-16.4M507.6 507.6L524 524M524 507.6l16.4 16.4M540.4 524l16.3-16.4M556.7 524l16.4-16.4M573 524l16.4-16.4M589.4 524l16.4-16.4M605.8 524l16.4-16.4M622.2 524l16.3-16.4M638.5 507.6L655 524M654.9 507.6l16.3 16.4M671.2 524l16.4-16.4M687.6 507.6L704 524M704 507.6l16.3 16.4M720.3 507.6l16.4 16.4M736.7 524l16.3-16.4M753 507.6l16.4 16.4M769.4 524l16.4-16.4M785.8 507.6L802 524M802.1 524l16.4-16.4M818.5 507.6l16.3 16.4M834.8 507.6l16.4 16.4M851.2 524l16.4-16.4M867.6 524l16.3-16.4M884 524l16.3-16.4M.5 540.4L16.8 524M16.8 540.4L33.2 524M33.2 540.4L49.6 524M49.6 524l16.3 16.4M66 524l16.3 16.4M82.3 540.4L98.6 524M98.6 524l16.4 16.4M115 524l16.4 16.4M131.4 540.4l16.3-16.4M147.7 540.4l16.4-16.4M164 524l16.4 16.4M180.4 524l16.4 16.4M196.8 540.4l16.4-16.4M213.2 540.4l16.3-16.4M229.5 540.4L246 524M245.9 524l16.3 16.4M262.2 540.4l16.4-16.4M278.6 524l16.4 16.4M295 524l16.3 16.4M311.3 540.4l16.4-16.4M327.7 540.4L344 524M344 540.4l16.4-16.4M360.4 540.4l16.4-16.4M376.8 524l16.3 16.4M393.1 524l16.4 16.4M409.5 524l16.3 16.4M425.8 540.4l16.4-16.4M442.2 540.4l16.4-16.4M458.6 524l16.3 16.4M475 540.4l16.3-16.4M491.3 524l16.3 16.4M507.6 524l16.4 16.4M524 524l16.4 16.4M540.4 540.4l16.3-16.4M556.7 524l16.4 16.4M573 524l16.4 16.4M589.4 540.4l16.4-16.4M605.8 540.4l16.4-16.4M622.2 540.4l16.3-16.4M638.5 524l16.4 16.4M654.9 540.4l16.3-16.4M671.2 540.4l16.4-16.4M687.6 540.4L704 524M704 524l16.3 16.4M720.3 524l16.4 16.4M736.7 524l16.3 16.4M753 524l16.4 16.4M769.4 524l16.4 16.4M785.8 524l16.3 16.4M802.1 524l16.4 16.4M818.5 524l16.3 16.4M834.8 540.4l16.4-16.4M851.2 540.4l16.4-16.4M867.6 524l16.3 16.4M884 540.4l16.3-16.4M.5 540.4l16.3 16.3M16.8 556.7l16.4-16.3M33.2 540.4l16.4 16.3M49.6 540.4l16.3 16.3M66 556.7l16.3-16.3M82.3 540.4l16.3 16.3M98.6 540.4l16.4 16.3M115 556.7l16.4-16.3M131.4 556.7l16.3-16.3M147.7 556.7l16.4-16.3M164 540.4l16.4 16.3M180.4 556.7l16.4-16.3M196.8 556.7l16.4-16.3M213.2 556.7l16.3-16.3M229.5 556.7l16.4-16.3M245.9 540.4l16.3 16.3M262.2 540.4l16.4 16.3M278.6 540.4l16.4 16.3M295 556.7l16.3-16.3M311.3 556.7l16.4-16.3M327.7 540.4l16.3 16.3M344 556.7l16.4-16.3M360.4 556.7l16.4-16.3M376.8 540.4l16.3 16.3M393.1 556.7l16.4-16.3M409.5 556.7l16.3-16.3M425.8 556.7l16.4-16.3M442.2 556.7l16.4-16.3M458.6 540.4l16.3 16.3M475 556.7l16.3-16.3M491.3 556.7l16.3-16.3M507.6 556.7l16.4-16.3M524 540.4l16.4 16.3M540.4 556.7l16.3-16.3M556.7 540.4l16.4 16.3M573 556.7l16.4-16.3M589.4 540.4l16.4 16.3M605.8 540.4l16.4 16.3M622.2 556.7l16.3-16.3M638.5 556.7l16.4-16.3M654.9 540.4l16.3 16.3M671.2 556.7l16.4-16.3M687.6 556.7l16.4-16.3M704 540.4l16.3 16.3M720.3 540.4l16.4 16.3M736.7 556.7l16.3-16.3M753 540.4l16.4 16.3M769.4 556.7l16.4-16.3M785.8 540.4l16.3 16.3M802.1 540.4l16.4 16.3M818.5 556.7l16.3-16.3M834.8 556.7l16.4-16.3M851.2 540.4l16.4 16.3M867.6 540.4l16.3 16.3M884 540.4l16.3 16.3M.5 573l16.3-16.3M16.8 573l16.4-16.3M33.2 556.7l16.4 16.4M49.6 556.7l16.3 16.4M66 573l16.3-16.3M82.3 556.7l16.3 16.4M98.6 573l16.4-16.3M115 573l16.4-16.3M131.4 573l16.3-16.3M147.7 573l16.4-16.3M164 556.7l16.4 16.4M180.4 556.7l16.4 16.4M196.8 556.7l16.4 16.4M213.2 573l16.3-16.3M229.5 573l16.4-16.3M245.9 573l16.3-16.3M262.2 573l16.4-16.3M278.6 573l16.4-16.3M295 556.7l16.3 16.4M311.3 573l16.4-16.3M327.7 573l16.3-16.3M344 573l16.4-16.3M360.4 573l16.4-16.3M376.8 556.7l16.3 16.4M393.1 573l16.4-16.3M409.5 573l16.3-16.3M425.8 556.7l16.4 16.4M442.2 556.7l16.4 16.4M458.6 556.7l16.3 16.4M475 556.7l16.3 16.4M491.3 556.7l16.3 16.4M507.6 573l16.4-16.3M524 556.7l16.4 16.4M540.4 556.7l16.3 16.4M556.7 556.7l16.4 16.4M573 556.7l16.4 16.4M589.4 556.7l16.4 16.4M605.8 556.7l16.4 16.4M622.2 556.7l16.3 16.4M638.5 573l16.4-16.3M654.9 556.7l16.3 16.4M671.2 573l16.4-16.3M687.6 573l16.4-16.3M704 573l16.3-16.3M720.3 556.7l16.4 16.4M736.7 573l16.3-16.3M753 556.7l16.4 16.4M769.4 573l16.4-16.3M785.8 573l16.3-16.3M802.1 573l16.4-16.3M818.5 573l16.3-16.3M834.8 556.7l16.4 16.4M851.2 556.7l16.4 16.4M867.6 556.7l16.3 16.4M884 556.7l16.3 16.4M.5 589.4l16.3-16.3M16.8 573l16.4 16.4M33.2 573l16.4 16.4M49.6 589.4l16.3-16.3M66 589.4l16.3-16.3M82.3 589.4l16.3-16.3M98.6 589.4l16.4-16.3M115 589.4l16.4-16.3M131.4 589.4l16.3-16.3M147.7 573l16.4 16.4M164 573l16.4 16.4M180.4 573l16.4 16.4M196.8 573l16.4 16.4M213.2 589.4l16.3-16.3M229.5 573l16.4 16.4M245.9 589.4l16.3-16.3M262.2 573l16.4 16.4M278.6 589.4l16.4-16.3M295 589.4l16.3-16.3M311.3 573l16.4 16.4M327.7 573l16.3 16.4M344 589.4l16.4-16.3M360.4 589.4l16.4-16.3M376.8 573l16.3 16.4M393.1 573l16.4 16.4M409.5 573l16.3 16.4M425.8 573l16.4 16.4M442.2 589.4l16.4-16.3M458.6 589.4l16.3-16.3M475 589.4l16.3-16.3M491.3 573l16.3 16.4M507.6 589.4l16.4-16.3M524 573l16.4 16.4M540.4 573l16.3 16.4M556.7 589.4l16.4-16.3M573 573l16.4 16.4M589.4 573l16.4 16.4M605.8 573l16.4 16.4M622.2 589.4l16.3-16.3M638.5 589.4l16.4-16.3M654.9 573l16.3 16.4M671.2 589.4l16.4-16.3M687.6 589.4l16.4-16.3M704 589.4l16.3-16.3M720.3 573l16.4 16.4M736.7 589.4l16.3-16.3M753 589.4l16.4-16.3M769.4 573l16.4 16.4M785.8 573l16.3 16.4M802.1 589.4l16.4-16.3M818.5 589.4l16.3-16.3M834.8 589.4l16.4-16.3M851.2 589.4l16.4-16.3M867.6 589.4l16.3-16.3M884 589.4l16.3-16.3M.5 605.8l16.3-16.4M16.8 605.8l16.4-16.4M33.2 589.4l16.4 16.4M49.6 605.8l16.3-16.4M66 589.4l16.3 16.4M82.3 605.8l16.3-16.4M98.6 605.8l16.4-16.4M115 605.8l16.4-16.4M131.4 589.4l16.3 16.4M147.7 589.4l16.4 16.4M164 589.4l16.4 16.4M180.4 589.4l16.4 16.4M196.8 589.4l16.4 16.4M213.2 589.4l16.3 16.4M229.5 589.4l16.4 16.4M245.9 589.4l16.3 16.4M262.2 589.4l16.4 16.4M278.6 605.8l16.4-16.4M295 589.4l16.3 16.4M311.3 589.4l16.4 16.4M327.7 589.4l16.3 16.4M344 605.8l16.4-16.4M360.4 589.4l16.4 16.4M376.8 589.4l16.3 16.4M393.1 589.4l16.4 16.4M409.5 589.4l16.3 16.4M425.8 605.8l16.4-16.4M442.2 589.4l16.4 16.4M458.6 605.8l16.3-16.4M475 605.8l16.3-16.4M491.3 605.8l16.3-16.4M507.6 589.4l16.4 16.4M524 589.4l16.4 16.4M540.4 589.4l16.3 16.4M556.7 605.8l16.4-16.4M573 589.4l16.4 16.4M589.4 589.4l16.4 16.4M605.8 589.4l16.4 16.4M622.2 605.8l16.3-16.4M638.5 605.8l16.4-16.4M654.9 605.8l16.3-16.4M671.2 605.8l16.4-16.4M687.6 605.8l16.4-16.4M704 605.8l16.3-16.4M720.3 589.4l16.4 16.4M736.7 589.4l16.3 16.4M753 605.8l16.4-16.4M769.4 589.4l16.4 16.4M785.8 589.4l16.3 16.4M802.1 605.8l16.4-16.4M818.5 589.4l16.3 16.4M834.8 605.8l16.4-16.4M851.2 589.4l16.4 16.4M867.6 589.4l16.3 16.4M884 605.8l16.3-16.4M.5 605.8l16.3 16.4M16.8 605.8l16.4 16.4M33.2 605.8l16.4 16.4M49.6 622.2l16.3-16.4M66 605.8l16.3 16.4M82.3 605.8l16.3 16.4M98.6 622.2l16.4-16.4M115 622.2l16.4-16.4M131.4 605.8l16.3 16.4M147.7 622.2l16.4-16.4M164 622.2l16.4-16.4M180.4 605.8l16.4 16.4M196.8 605.8l16.4 16.4M213.2 605.8l16.3 16.4M229.5 605.8l16.4 16.4M245.9 605.8l16.3 16.4M262.2 605.8l16.4 16.4M278.6 622.2l16.4-16.4M295 605.8l16.3 16.4M311.3 605.8l16.4 16.4M327.7 605.8l16.3 16.4M344 622.2l16.4-16.4M360.4 605.8l16.4 16.4M376.8 605.8l16.3 16.4M393.1 605.8l16.4 16.4M409.5 605.8l16.3 16.4M425.8 605.8l16.4 16.4M442.2 605.8l16.4 16.4M458.6 605.8l16.3 16.4M475 605.8l16.3 16.4M491.3 605.8l16.3 16.4M507.6 605.8l16.4 16.4M524 605.8l16.4 16.4M540.4 605.8l16.3 16.4M556.7 622.2l16.4-16.4M573 622.2l16.4-16.4M589.4 622.2l16.4-16.4M605.8 605.8l16.4 16.4M622.2 605.8l16.3 16.4M638.5 605.8l16.4 16.4M654.9 605.8l16.3 16.4M671.2 622.2l16.4-16.4M687.6 622.2l16.4-16.4M704 622.2l16.3-16.4M720.3 605.8l16.4 16.4M736.7 605.8l16.3 16.4M753 622.2l16.4-16.4M769.4 622.2l16.4-16.4M785.8 605.8l16.3 16.4M802.1 622.2l16.4-16.4M818.5 605.8l16.3 16.4M834.8 605.8l16.4 16.4M851.2 605.8l16.4 16.4M867.6 622.2l16.3-16.4M884 605.8l16.3 16.4M.5 638.5l16.3-16.3M16.8 622.2l16.4 16.3M33.2 638.5l16.4-16.3M49.6 638.5l16.3-16.3M66 638.5l16.3-16.3M82.3 622.2l16.3 16.3M98.6 622.2l16.4 16.3M115 638.5l16.4-16.3M131.4 622.2l16.3 16.3M147.7 638.5l16.4-16.3M164 638.5l16.4-16.3M180.4 638.5l16.4-16.3M196.8 622.2l16.4 16.3M213.2 638.5l16.3-16.3M229.5 638.5l16.4-16.3M245.9 622.2l16.3 16.3M262.2 638.5l16.4-16.3M278.6 622.2l16.4 16.3M295 622.2l16.3 16.3M311.3 638.5l16.4-16.3M327.7 622.2l16.3 16.3M344 638.5l16.4-16.3M360.4 622.2l16.4 16.3M376.8 622.2l16.3 16.3M393.1 622.2l16.4 16.3M409.5 622.2l16.3 16.3M425.8 638.5l16.4-16.3M442.2 622.2l16.4 16.3M458.6 622.2l16.3 16.3M475 622.2l16.3 16.3M491.3 638.5l16.3-16.3M507.6 622.2l16.4 16.3M524 622.2l16.4 16.3M540.4 638.5l16.3-16.3M556.7 638.5l16.4-16.3M573 622.2l16.4 16.3M589.4 638.5l16.4-16.3M605.8 638.5l16.4-16.3M622.2 622.2l16.3 16.3M638.5 622.2l16.4 16.3M654.9 622.2l16.3 16.3M671.2 638.5l16.4-16.3M687.6 622.2l16.4 16.3M704 638.5l16.3-16.3M720.3 638.5l16.4-16.3M736.7 638.5l16.3-16.3M753 622.2l16.4 16.3M769.4 638.5l16.4-16.3M785.8 622.2l16.3 16.3M802.1 638.5l16.4-16.3M818.5 622.2l16.3 16.3M834.8 622.2l16.4 16.3M851.2 622.2l16.4 16.3M867.6 638.5l16.3-16.3M884 622.2l16.3 16.3M.5 654.9l16.3-16.4M16.8 638.5L33.2 655M33.2 638.5L49.6 655M49.6 654.9l16.3-16.4M66 654.9l16.3-16.4M82.3 654.9l16.3-16.4M98.6 638.5L115 655M115 638.5l16.4 16.4M131.4 638.5l16.3 16.4M147.7 654.9l16.4-16.4M164 638.5l16.4 16.4M180.4 654.9l16.4-16.4M196.8 654.9l16.4-16.4M213.2 654.9l16.3-16.4M229.5 654.9l16.4-16.4M245.9 638.5l16.3 16.4M262.2 638.5l16.4 16.4M278.6 638.5L295 655M295 638.5l16.3 16.4M311.3 654.9l16.4-16.4M327.7 638.5L344 655M344 638.5l16.4 16.4M360.4 638.5l16.4 16.4M376.8 638.5L393 655M393.1 638.5l16.4 16.4M409.5 638.5l16.3 16.4M425.8 638.5l16.4 16.4M442.2 638.5l16.4 16.4M458.6 638.5l16.3 16.4M475 638.5l16.3 16.4M491.3 654.9l16.3-16.4M507.6 654.9l16.4-16.4M524 638.5l16.4 16.4M540.4 638.5l16.3 16.4M556.7 654.9l16.4-16.4M573 654.9l16.4-16.4M589.4 654.9l16.4-16.4M605.8 654.9l16.4-16.4M622.2 638.5l16.3 16.4M638.5 638.5L655 655M654.9 654.9l16.3-16.4M671.2 638.5l16.4 16.4M687.6 638.5L704 655M704 638.5l16.3 16.4M720.3 654.9l16.4-16.4M736.7 654.9l16.3-16.4M753 654.9l16.4-16.4M769.4 638.5l16.4 16.4M785.8 638.5L802 655M802.1 654.9l16.4-16.4M818.5 654.9l16.3-16.4M834.8 638.5l16.4 16.4M851.2 654.9l16.4-16.4M867.6 654.9l16.3-16.4M884 638.5l16.3 16.4" />
  </g>
  <path fill="none" stroke="#000" stroke-width="1mm" d="M.5.5h899v654H.5z"/>
</svg>
