<svg xmlns="http://www.w3.org/2000/svg" viewBox="0 0 208.844 104.14">
  <path d="M190.982 6.536c-.82.013-1.464.417-1.782 1.229-.294.75 1.873 4.957 6.879 4.826 2.445 2.32 2.401 7.223 2.13 9.181-.803-.593-2.039-1.2-3.742-1.203-.197-5.865-10.71-12.955-12.027-8.953-.829 2.516 1.882 4.67 5.479 2.672 3.955 2.262 4.843 5.073 5.078 6.415-.872.257-1.77.392-2.523 1.188-1.78-1.535-3.804-3.634-6.564-4.128-3.303-1.96-6.89-.094-6.808 1.989.152 3.82 6.435 1.664 6.674-.386 3 1.058 3.742 2.219 5.164 3.569-7.504 1.42-16.094 3.536-19.73 13.002-4.225-2.264-8.335-4.805-13.765-4.142-8.513 1.04-20.026 12.061-39.689.267l2.405 8.419c-3.955-2.77-7.97-5.5-9.84-9.742l-2.988 8.005c-2.855-.936-6.373-1.601-7.083-5.647-1.586-1.336-3.757-1.769-4.945-1.57.341.341-1.503 4.645-1.87 5.346-.44.837-12.027-6.816-12.027-6.816l1.202 5.613 1.203 3.34c-1.819-1.625-3.43-3.142-8.82-2.672-3.774.33-6.618-4.927-9.89-7.617.298 3.729.344 7.673 1.47 10.69-1.598-1.281-4.755-1.705-8.058-1.378-1.8-2.912-7.94-7.33-10.516-7.709.901 2.118 2.047 4.1 1.87 6.816-5.522-2.318-10.966-4.995-16.971-5.078 1.056.924 2.035 1.778 2.539 4.944-5.104-1.052-11.467-1.929-15.44-1.531 1.042.458 1.836.903 2.65 2.346.08.804 1.885 2.863 3.168 4.13-3.625-.45-9.51-.952-14.566 0 2.294 2.2 4.62 4.345 6.548 7.216-4.276 1.221-8.552 2.97-12.829 4.945 2.368 2.037 5.225 3.529 8.152 4.944-.42 2.492-4.726 4.253-5.732 5.174 2.934 1.583 7.786.405 11.211 3.646-1.053 1.955-2.963 3.853-4.944 5.746 3.734.195 9.43-.43 11.492 1.737-2.242 2.011-5.06 1.644-8.374 5.807 2.965 1.19 6.639.483 9.176-.194 4.32 2.32 8.642 3.254 12.962 3.208-1.837 1.5.014 3.95.535 3.875 2.82-.013 2.702-1.468 3.59-1.728 6.825-.082 7.913-1.06 11.298-3.485-.598 2.368-1.681 4.683-2.84 6.99 5.853-1.882 1.793-5.008 14.946-6.722 1.241 2.627 2.21 2.558 3.208 3.475 4.472-4.553 9.693-5.771 14.833-7.35-.575 2.03-.873 2.788-1.737 6.147 1.36-.474 2.045-.106 2.94 0 2.493-4.793 6.696-4.726 9.928-8.349.147 1.969-.021 4.386-.307 6.478 3.668-4.012 9.509-4.763 11.36-8.686.143-.303.104-1.723 1.202.401-1.14 2.482-.624 5.345-.935 8.018l2.138-.535c1.47-3.944 2.94-7.515 4.41-10.958 2.403-1.466 5.248-2.633 5.612-5.479.612.779.412 2.284 2.807.535-1.826 2.554-2.436 13.283-.134 15.234-1.035-4.52 7.757-17.485 8.286-18.04 2.806-2.954 7.6-.977 10.958.534-8.165 11.285-3.721 13.03-10.558 19.244 5.858 1.011 5.717 4.004 8.553 6.013 1.8-1.178 1.23-3.257 1.336-5.078 1.808-.796 3.153-.712 4.678-.935-3.653-4.369-1.677-6.951-4.01-7.217 2.827-4.257 5.425-12.841 8.136-8.152.282 3.529 2.375 12.511-4.347 20.981 1.289-.025 1.978.268 4.23-.267.468 2.117.656 2.355.935 3.207 1.727.498 1.764.819 2.406 1.203 2.026-2.123 1.404-2.822 2.137-4.811 2.715.534 3.816.628 5.213.802-1.977-2.797-3.117-5.61-4.41-8.42-.034-3.239-.457-6.195.133-9.888 12.412 7.04 37.417-10.505 32.674-22.517-7.888-19.976 13.759-19.6 14.766-4.344 6.335-6.375 2.032-11.947-.668-17.64.289-.604.235-2.047-.267-3.073.21-11.165-5.745-17.155-8.964-17.107zm2.548 18.887a2.457 2.457 0 110 4.914 2.457 2.457 0 010-4.914zm-36.853 10.489c20.628 2.855 16.321 15.924 10.016 20.41-2.276 3.103-5.191 5.291-10.96 3.402-16.423-.59-23.648-4.6-33.688-18.474 16.243 2.826 23.732-2.82 34.632-5.338zm4.63 3.402c-2.43 1.042-4.007 1.962-5.575 2.882 1.859 2.677 3.55 3.68 5.292 5.197 1.361-1.653 2.66-3.343 4.63-4.63a124.864 124.864 0 01-4.347-3.45zm-12.992.708c-2.426.679-4.851 1.495-7.277 2.551.99 1.348 1.82 2.052 2.693 2.93 1.723-1.089 3.349-1.745 4.82-1.7-.063-1.21-.066-2.228-.236-3.78zm-94.523 1.649c3.228.065 5.613 1.572 7.564 3.443-2.04 2.29-10.603 5.84-16.82-.472 3.724-2.2 6.745-3.022 9.256-2.971zm-21.497.004c2.845-.047 5.762.878 7.942 2.636-2.04 2.29-9.942 7.777-16.159 1.465 1.862-2.747 4.993-4.048 8.217-4.1zm62.959 1.066c3.44-.015 6.209 1.654 7.868 4.216-2.129 2.753-11.18 8.073-16.914-.756 3.286-2.42 6.37-3.449 9.046-3.46zm-20.387.368c3.47.003 5.904 1.852 7.656 4.557-2.04 2.289-10.13 4.658-16.348-1.654 3.458-2.043 6.318-2.905 8.692-2.903zm40.483 1.533c3.28-.083 5.9 1.493 7.71 4.11-1.762 2.677-9.92 6.19-16.489-.614 3.278-2.362 6.228-3.43 8.779-3.496zm21.01 2.798c.86 1.937 1.713 3.874 2.08 5.811 2.523-.744 4.145-.585 5.953-.614-.096-1.609-.15-3.2-.615-4.96-1.474-.443-3.463-.333-7.417-.237zm18.616.709c-.695 1.197-1.406 3.003-3.023 4.394 3.06 1.111 3.899 2.543 5.764 3.827.855-1.898 1.688-3.8 3.401-5.575-1.905-1.002-3.822-1.995-6.142-2.646zm-133.8 2.578c2.588.036 4.78 1.087 6.162 3.222-2.04 2.29-9.657 6.786-15.875.473 3.343-2.47 6.782-3.736 9.714-3.695zm18.04 1.24c2.84.047 4.816 1.5 6.926 3.21-2.04 2.29-9.374 6.077-15.59-.235 3.723-2.2 6.455-3.013 8.664-2.975zm20.229 1.138c2.945-.03 5.865 1.14 7.58 3.82-7.09 4.848-11.344 1.543-15.969.474 1.683-2.68 5.052-4.26 8.389-4.294zm41.221 1.106c2.524.026 4.75 1.144 6.709 3.376-2.103 2.07-9.737 6.885-16.49.71 3.676-2.743 6.92-4.116 9.781-4.086zm19.502.37c2.085-.024 3.988.78 6.39 2.392-1.177 2.918-10.055 8.52-16.773 1.843 4.722-2.807 7.703-4.205 10.383-4.236zm-40.174.02c3.47.003 5.904 1.852 7.655 4.556-2.04 2.29-10.13 4.66-16.347-1.653 3.458-2.044 6.317-2.906 8.692-2.904zm-44.757 6.682c3.879.045 7.162 1.462 8.78 2.777-2.04 2.29-13.486 7.636-19.703 1.323 3.614-3.11 7.5-4.14 10.923-4.1zm28.303.875c2.865-.065 5.433.912 7.502 2.848-2.04 2.289-12.587 7.351-18.096 1.511 3.719-2.873 7.348-4.285 10.594-4.359zm37.216 2.172c2.553.03 4.833.86 6.146 2.518-1.237 2.998-10.697 8.675-16.914 2.362 2.725-3.266 7.038-4.926 10.768-4.88zM79.72 68.466c2.571.058 4.806 1.05 6.015 2.917-2.04 2.29-10.508 7.967-17.15 2.788 2.901-3.759 7.032-5.612 10.616-5.704.174-.004.347-.005.519 0zm-42.154 3.475c3.218-.028 6.1.882 7.726 2.419-2.04 2.29-11.831 6.832-18.615 1.748 3.167-2.898 7.243-4.135 10.89-4.167zm20.728.27c.157-.003.311-.002.463.002 4.053.108 6.308 2.561 7.088 4.084-2.04 2.29-10.178 5.274-16.395-1.039 3.559-2.185 6.488-3.006 8.844-3.047z"/>
</svg>
