<svg viewBox="0 0 673 900" xmlns="http://www.w3.org/2000/svg">
  <g fill="none" stroke="#000" stroke-width="3.15" stroke-linecap="round" stroke-width="1mm">
    <path d="M249.106 9.815l10.751-8.27 15.134 8.27h-25.885" />
    <path d="M244.971 17.506L258.203 6.93l19.93 10.577h-33.162" />
    <path d="M243.317 25.197l16.54-12.884 23.57 12.884h-40.11" />
    <path d="M243.317 32.888l19.021-15.216 28.531 15.216h-47.552" />
    <path d="M245.798 40.58l22.246-17.533 32.501 17.532h-54.747" />
    <path d="M249.933 48.27l25.637-19.765 36.719 19.765h-62.356" />
    <path d="M256.549 55.962l28.614-22.081 41.02 22.08h-69.634" />
    <path d="M265.646 63.653l31.095-24.397 45.295 24.397h-76.39" />
    <path d="M275.487 71.344l34.486-26.712 49.538 26.712h-84.024" />
    <path d="M286.983 79.035l37.463-29.028 53.837 29.028h-91.3" />
    <path d="M299.388 86.726l40.44-31.343 58.138 31.343h-98.578" />
    <path d="M312.206 94.169l43.368-33.41 62.405 33.41H312.206" />
    <path d="M324.86 102.439l46.311-36.305 66.491 36.305H324.859" />
    <path d="M336.933 109.882l49.29-38.373 71.287 38.373H336.933" />
    <path d="M347.999 117.325l52.283-40.44 75.422 40.44H347.999" />
    <path d="M357.832 125.595L413.1 82.26l79.144 43.335H357.832" />
    <path d="M366.127 133.038l58.22-45.32 83.61 45.32h-141.83" />
    <path d="M372.577 140.481l60.95-47.139 88.489 47.139H372.577" />
    <path d="M376.96 147.924l64.01-49.62 92.624 49.62H376.96" />
    <path d="M379.11 156.194l66.822-52.101 96.759 52.101h-163.58" />
    <path d="M378.78 163.637l70.46-54.582 100.894 54.582H378.78" />
    <path d="M376.216 171.08l73.024-56.236 105.029 56.236H376.216" />
    <path d="M371.337 179.35l76.249-59.544L556.75 179.35H371.337" />
    <path d="M364.473 186.793l78.978-61.198 114.126 61.198H364.472" />
    <path d="M355.814 194.236l81.848-63.679 118.261 63.679h-200.11" />
    <path d="M345.65 202.506l85.065-66.16 121.9 66.16H345.65" />
    <path d="M334.039 209.949l87.993-68.641 126.448 68.641H334.039" />
    <path d="M320.89 217.392l90.97-70.295 130.831 70.295H320.89" />
    <path d="M306.169 225.662l93.947-73.603 135.132 73.603H306.169" />
    <path d="M289.877 233.105l96.842-75.257 139.432 75.257H289.877" />
    <path d="M271.931 240.548l99.902-77.738L515.4 240.548H271.931" />
    <path d="M252.414 247.991l103.127-79.392 148.281 79.392H252.414" />
    <path d="M232.566 256.261l105.856-82.7 152.168 82.7H232.566" />
    <path d="M211.891 263.704L320.89 179.35l156.468 84.354H211.891" />
    <path d="M192.043 271.147l111.48-86.835 160.603 86.835H192.043" />
    <path d="M172.195 279.417l114.788-89.316 165.565 89.316H172.195" />
    <path d="M154.001 286.86l117.847-91.797L440.97 286.86H154.001" />
    <path d="M137.461 294.303l120.742-93.451 174 93.451H137.462" />
    <path d="M123.402 302.573l124.05-96.759 177.888 96.759H123.402" />
    <path d="M111.824 310.016l127.358-98.413 181.94 98.413H111.824" />
    <path d="M103.554 317.459l129.839-100.894 186.158 100.894H103.554" />
    <path d="M97.765 324.902l132.32-102.548 190.706 102.548H97.765" />
    <path d="M94.457 333.172l135.628-105.856 194.758 105.856H94.457" />
    <path d="M93.63 340.615l138.936-107.51 198.976 107.51H93.63" />
    <path d="M95.284 348.058l141.417-109.991L440.97 348.058H95.284" />
    <path d="M99.419 356.328l144.725-112.472 207.577 112.472H99.419" />
    <path d="M106.035 363.771l147.206-114.953L465.78 363.771H106.035" />
    <path d="M113.478 371.214l150.514-116.607 216.674 116.607H113.478" />
    <path d="M122.575 379.484l153.078-119.915 220.726 119.915H122.575" />
    <path d="M131.672 386.927l156.551-121.569 225.523 121.569H131.672" />
    <path d="M141.596 394.37l159.363-124.05 229.327 124.05h-388.69" />
    <path d="M150.693 401.813L312.95 276.109l233.876 125.704H150.693" />
    <path d="M158.136 410.083l165.235-128.185 237.514 128.185H158.136" />
    <path d="M163.098 417.526L331.392 286.86 573.29 417.526H163.098" />
    <path d="M165.579 424.969l170.94-132.32 246.695 132.32H165.579" />
    <path d="M163.925 433.239l174.332-135.628 250.746 135.628H163.925" />
    <path d="M158.963 440.682L336.437 303.4l255.047 137.282H158.963" />
    <path d="M150.693 448.125l180.451-139.763 259.513 139.763H150.693" />
    <path d="M139.115 456.395l183.594-142.244 263.813 142.244H139.115" />
    <path d="M125.056 463.838l186.488-144.725L579.08 463.838H125.056" />
    <path d="M109.343 471.281L298.23 324.902l272.579 146.379H109.343" />
    <path d="M91.976 479.551l191.699-149.687 276.383 149.687H91.976" />
    <path d="M73.782 486.994l194.924-151.341 280.601 151.341H73.782" />
    <path d="M56.415 494.437l197.653-153.822 285.315 153.822H56.415" />
    <path d="M39.875 501.88l200.961-155.476 289.45 155.476H39.875" />
    <path d="M24.989 510.15l204.269-158.784L522.843 510.15H24.989" />
    <path d="M13.411 517.593l207.577-160.438 297.72 160.438H13.411" />
    <path d="M5.141 525.036l210.058-162.919 301.855 162.919H5.141" />
    <path d="M.179 533.306l213.366-165.4 305.99 165.4H.179" />
    <path d="M5.968 538.268l210.058-162.919 301.855 162.919H5.968" />
    <path d="M15.065 544.057l206.75-161.265 297.72 161.265H15.065" />
    <path d="M26.643 549.019l204.269-157.957 293.585 157.957H26.643" />
    <path d="M40.702 554.808l200.961-156.303 289.45 156.303H40.702" />
    <path d="M57.242 559.77l197.653-153.822L540.21 559.77H57.242" />
    <path d="M74.609 565.559L269.45 413.391l280.684 152.168H74.609" />
    <path d="M92.803 570.521l192.195-148.86 276.714 148.86H92.803" />
    <path d="M111.824 576.31l189.218-147.206L573.29 576.31H111.824" />
    <path d="M131.672 581.272l185.827-144.725 268.196 144.725H131.672" />
    <path d="M150.693 587.061l183.346-142.244 263.234 142.244h-446.58" />
    <path d="M170.541 592.023L350.504 452.26l259.174 139.763H170.541" />
    <path d="M189.562 597.812l177.06-138.109 255.461 138.109H189.562" />
    <path d="M207.756 602.774L382.17 467.973l250.664 134.801H207.756" />
    <path d="M225.95 608.563l170.94-133.147 246.695 133.147H225.95" />
    <path d="M241.663 613.525l168.708-130.666 242.311 130.666H241.663" />
    <path d="M257.376 619.314l164.986-128.185 237.763 128.185H257.376" />
    <path d="M270.195 624.276l162.34-125.704 233.379 125.704h-395.72" />
    <path d="M281.359 630.065l159.611-124.05 229.079 124.05h-388.69" />
    <path d="M290.456 635.027l156.303-121.569 224.944 121.569H290.456" />
    <path d="M297.403 640.816l153.491-119.088 220.809 119.088h-374.3" />
    <path d="M302.2 645.778l150.348-116.607 216.674 116.607H302.199" />
    <path d="M305.011 651.567l147.537-114.953 212.539 114.953H305.011" />
    <path d="M306.004 656.529l144.063-111.645 208.404 111.645H306.004" />
    <path d="M305.177 662.318l141.582-109.991 203.442 109.991H305.177" />
    <path d="M303.026 667.28l138.771-107.51 199.307 107.51H303.026" />
    <path d="M299.718 673.069L435.181 568.04l195.172 105.029H299.718" />
    <path d="M295.583 678.031l132.568-102.548 190.624 102.548H295.583" />
    <path d="M290.952 683.82l129.674-100.894L607.197 683.82H290.952" />
    <path d="M286.156 688.782l126.613-98.413 182.023 98.413H286.156" />
    <path d="M281.442 694.571l123.719-95.932 178.053 95.932H281.442" />
    <path d="M277.307 699.533l120.742-93.451 173.587 93.451h-294.33" />
    <path d="M274.164 705.322l117.765-91.797 169.783 91.797H274.164" />
    <path d="M272.427 710.284l114.705-88.489 165.483 88.489H272.427" />
    <path d="M272.18 716.073l111.81-86.835 161.182 86.835H272.179" />
    <path d="M273.668 721.035L382.5 636.681l156.882 84.354H273.668" />
    <path d="M276.893 726.824l105.856-81.873 152.499 81.873H276.893" />
    <path d="M281.773 732.613l102.878-80.219 148.116 80.219H281.773" />
    <path d="M288.14 737.575l99.902-77.738 143.898 77.738h-243.8" />
    <path d="M295.666 743.364l96.925-76.084 139.349 76.084H295.666" />
    <path d="M304.019 748.326l93.947-72.776 134.801 72.776H304.019" />
    <path d="M312.785 754.115l90.97-71.122 130.666 71.122H312.785" />
    <path d="M321.551 759.077l87.993-68.641 126.531 68.641H321.551" />
    <path d="M329.987 764.866l85.015-66.16 122.727 66.16H329.987" />
    <path d="M337.595 769.828l82.038-63.679 118.096 63.679H337.595" />
    <path d="M344.087 775.617l79.103-62.025 113.712 62.025H344.087" />
    <path d="M349.173 780.579l76.084-58.717 109.164 58.717H349.173" />
    <path d="M352.655 786.368l73.098-57.063 105.36 57.063H352.655" />
    <path d="M354.433 791.33l70.162-54.582 100.729 54.582H354.433" />
    <path d="M354.565 797.119l67.136-52.101 97.007 52.101H354.565" />
    <path d="M353.209 802.081l64.191-49.62 92.211 49.62H353.209" />
    <path d="M350.637 807.87l61.223-47.966 87.827 47.966h-149.05" />
    <path d="M347.18 812.832l58.229-45.485 83.527 45.485H347.18" />
    <path d="M343.177 818.621l55.285-43.004 79.723 43.004H343.177" />
    <path d="M338.918 823.583l52.35-40.523 75.339 40.523H338.918" />
    <path d="M334.783 829.372l49.29-38.869 70.956 38.869H334.783" />
    <path d="M330.979 832.68l46.312-33.907 66.987 33.907H330.979" />
    <path d="M327.671 840.123l43.417-33.907 62.439 33.907H327.671" />
    <path d="M325.273 845.085l40.357-31.426 58.138 31.426h-98.495" />
    <path d="M323.784 850.874l37.38-28.945 53.838 28.945h-91.218" />
    <path d="M323.288 855.836l34.436-26.464 49.587 26.464h-84.023" />
    <path d="M323.867 861.625l31.442-24.81 45.303 24.81h-76.745" />
    <path d="M325.438 866.587l28.465-22.329 41.003 22.329h-69.468" />
    <path d="M327.92 872.376l25.487-19.848 36.703 19.848h-62.19" />
    <path d="M331.144 877.338l22.536-17.367 32.46 17.367h-54.996" />
    <path d="M334.949 883.127l19.591-15.713 28.126 15.713H334.95" />
    <path d="M339.166 888.089l16.623-12.405 23.9 12.405h-40.523" />
    <path d="M343.607 893.878l13.63-10.751 19.558 10.751h-33.188" />
    <path d="M348.048 898.84l10.635-8.27 15.3 8.27h-25.935" />
  </g>
</svg>
