<svg xmlns="http://www.w3.org/2000/svg" viewBox="0 0 816 1056">
  <g fill="none" stroke="#000" stroke-width="1mm" stroke-linecap="round">
    <path d="M0 25v47M0 84v24M0 120v12M0 179v12M0 286v12M0 310v12M0 334v36M0 382v11M0 477v12M0 643v12M0 703v11M0 774v12M6-39v24M6 33v35M6 104v24M6 140v12M6 163v12M6 199v60M6 270v24M6 318v36M6 401v12M6 425v24M6 461v12M6 496v12M6 603v24M11-21v12M11 27v12M11 86v48M11 146v47M11 241v47M11 324v12M11 407v12M11 502v12M11 550v12M11 586v12M11 633v12M11 740v12M17-18V5M17 41v24M17 77v12M17 100v24M17 196v12M17 231v12M17 267v24M17 374v24M17 433v12M17 529v11M17 612v12M17 731v12M22-42v12M22-18v12M22 5v12M22 29v36M22 77v12M22 148v12M22 279v12M22 303v24M22 350v12M22 398v12M22 481v24M22 695v12M28-20v12M28 16v47M28 111v47M28 206v36M28 253v12M28 301v12M28 372v36M28 420v12M28 503v12M28 527v12M28 586v12M28 622v12M28 705v12M33 47v11M33 70v36M33 118v36M33 165v24M33 213v12M33 284v48M33 356v12M33 391v36M33 451v12M33 486v12M33 534v24M33 700v12M33 784v12M39 35v12M39 95v11M39 118v24M39 154v12M39 178v12M39 202v23M39 237v12M39 261v48M39 320v12M39 356v36M39 475v24M39 511v12M39 546v24M39 665v36M39 796v24M39 867v12M44 29v23M44 76v60M44 148v23M44 183v12M44 243v35M44 326v12M44 385v12M44 421v12M44 445v12M44 504v12M44 540v12M44 599v12M44 623v12M44 730v12M44 766v12M44 813v12M50 16v12M50 87v36M50 158v12M50 206v59M50 277v12M50 301v24M50 456v11M50 491v12M50 515v12M50 693v12M50 717v12M55 37v12M55 61v23M55 96v12M55 120v24M55 156v47M55 239v12M55 322v12M55 358v12M55 382v12M55 405v72M55 560v12M55 667v12M55 703v12M55 822v12M55 869v12M61 26v107M61 169v12M61 204v12M61 288v59M61 454v12M61 525v12M61 549v24M61 668v12M61 763v24M61 811v24M66 43v24M66 78v36M66 126v24M66 162v35M66 233v36M66 293v35M66 340v12M66 376v12M66 459v12M66 602v12M66 625v36M66 673v12M66 744v12M66 792v12M66 851v24M72 36v12M72 59v12M72 131v12M72 190v72M72 273v12M72 309v12M72 345v12M72 369v35M72 440v12M72 464v23M72 535v12M72 559v12M72 606v12M72 713v12M72 761v12M72 832v24M77 8v35M77 55v24M77 91v24M77 174v36M77 245v12M77 281v24M77 341v35M77 495v24M77 578v12M77 614v12M77 674v11M77 745v12M77 781v23M83 15v24M83 62v12M83 86v24M83 122v24M83 158v23M83 193v60M83 276v12M83 324v36M83 395v12M83 419v36M83 657v24M83 705v11M83 752v12M83 788v12M88 69v23M88 187v24M88 235v12M88 259v12M88 283v23M88 342v24M88 390v11M88 425v12M88 497v11M88 532v12M88 663v12M88 782v12M88 841v12M94-1v12M94 23v24M94 71v47M94 154v12M94 249v12M94 285v11M94 356v12M94 380v12M94 403v24M94 439v12M94 463v12M94 487v12M94 570v12M94 629v12M94 677v12M94 820v12M99 48v12M99 84v11M99 107v12M99 131v48M99 202v24M99 238v48M99 321v12M99 357v12M99 393v12M99 428v12M99 464v12M99 523v12M99 571v24M99 642v24M99 726v59M99 833v11M105 47v24M105 83v24M105 119v12M105 143v35M105 214v12M105 261v12M105 285v12M105 345v12M105 499v12M105 523v12M105 594v12M105 666v12M105 761v12M105 808v24M105 844v12M105 868v12M110 54v12M110 89v60M110 244v36M110 315v12M110 351v24M110 446v36M110 565v12M110 636v12M110 708v12M110 755v12M110 779v12M110 839v23M110 886v12M116 44v35M116 115v36M116 163v11M116 210v48M116 305v24M116 341v36M116 424v12M116 472v12M116 555v24M116 781v12M116 805v12M121 41v12M121 89v24M121 137v11M121 196v12M121 220v95M121 327v12M121 351v11M121 386v24M121 517v12M121 541v12M121 600v12M121 624v48M121 683v24M121 767v12M121 790v36M127 21v12M127 45v12M127 69v12M127 116v36M127 176v12M127 199v12M127 223v12M127 271v12M127 378v24M127 413v12M127 449v12M127 485v12M127 556v12M127 580v12M127 639v12M127 663v12M127 758v12M127 794v12M127 818v12M127 842v11M132 63v12M132 87v12M132 111v12M132 147v12M132 182v12M132 206v36M132 254v12M132 277v24M132 432v12M132 551v12M132 706v11M132 729v60M138 36v47M138 119v12M138 143v12M138 167v35M138 214v36M138 274v12M138 345v12M138 381v24M138 416v24M138 488v12M138 559v12M138 607v12M138 737v48M138 833v11M143-24v12M143 0v36M143 60v12M143 95v12M143 119v12M143 155v24M143 238v24M143 309v24M143 404v24M143 452v24M143 535v36M143 595v12M143 654v12M143 678v12M143 702v59M149 51v12M149 75v35M149 122v12M149 146v36M149 194v12M149 265v24M149 301v12M149 384v12M149 443v12M149 491v12M149 527v23M149 562v12M149 586v12M149 669v12M149 705v24M149 741v11M149 788v24M149 848v12M149 871v12M154 28v24M154 64v23M154 99v24M154 159v35M154 206v36M154 254v12M154 289v12M154 313v24M154 432v12M154 515v24M154 563v12M154 610v24M154 646v24M154 694v35M154 741v12M160 53v48M160 112v36M160 243v12M160 267v12M160 326v12M160 350v48M160 445v24M160 541v11M160 624v12M160 648v11M160 671v12M160 719v24M160 755v23M160 790v60M160 873v12M165 63v60M165 135v12M165 170v12M165 194v12M165 218v12M165 242v12M165 301v12M165 361v11M165 551v12M165 575v12M165 598v12M165 622v36M165 670v12M165 717v12M165 741v12M171-49v48M171 11v71M171 118v36M171 189v12M171 225v12M171 272v12M171 296v12M171 368v12M171 403v24M171 439v12M171 475v12M171 570v12M171 617v12M171 653v12M171 689v35M171 736v24M176 23v12M176 47v12M176 83v24M176 142v12M176 166v12M176 202v12M176 237v12M176 285v24M176 356v12M176 451v12M176 499v12M176 523v12M176 570v12M176 618v12M176 642v12M176 665v12M176 701v12M176 725v47M176 784v36M176 844v12M182 7v12M182 31v12M182 55v23M182 90v12M182 114v12M182 174v11M182 292v12M182 316v12M182 340v12M182 388v23M182 435v24M182 507v23M182 625v72M182 756v24M182 792v12M187 48v12M187 72v11M187 143v24M187 179v11M187 202v12M187 238v12M187 262v12M187 357v12M187 416v24M187 511v24M187 618v12M187 642v12M187 702v12M187 749v12M187 773v12M187 809v35M187 868v12M193 43v12M193 67v12M193 90v24M193 162v12M193 209v12M193 293v11M193 316v12M193 352v12M193 459v12M193 530v12M193 590v12M193 637v12M193 697v24M193 732v24M193 768v12M193 804v47M198-47v12M198-24v12M198 0v12M198 60v12M198 83v12M198 119v12M198 155v12M198 262v12M198 286v11M198 345v12M198 369v12M198 393v11M198 416v48M198 523v36M198 571v12M198 630v12M198 666v36M198 714v12M198 749v48M204-42v11M204 5v24M204 41v47M204 124v12M204 148v35M204 445v12M204 469v12M204 540v12M204 623v12M204 659v24M204 695v24M204 730v12M204 754v36M209-7v24M209 29v12M209 65v23M209 112v12M209 136v36M209 255v24M209 314v12M209 386v11M209 421v12M209 445v12M209 481v23M209 516v12M209 576v24M209 611v24M209 647v24M209 695v23M209 754v12M209 790v24M215 58v12M215 94v24M215 130v35M215 177v12M215 201v71M215 296v24M215 332v12M215 356v12M215 439v12M215 510v24M215 546v12M215 653v12M215 677v12M215 760v95M220 63v12M220 99v24M220 135v12M220 159v23M220 194v24M220 242v24M220 277v24M220 349v35M220 420v12M220 444v12M220 610v24M220 670v12M220 694v12M220 717v12M220 753v12M220 789v12M220 813v11M220 848v36M226 32v35M226 103v12M226 151v35M226 198v60M226 305v24M226 353v12M226 602v24M226 638v24M226 686v12M226 757v48M231 43v12M231 67v24M231 103v12M231 281v12M231 305v12M231 376v24M231 436v12M231 483v12M231 531v12M231 638v36M231 686v47M231 769v12M231 793v23M237 25v48M237 168v59M237 275v12M237 311v12M237 418v35M237 489v12M237 513v24M237 560v48M237 632v47M237 715v24M237 762v36M237 834v24M242 53v47M242 136v24M242 172v47M242 338v12M242 362v24M242 433v36M242 564v12M242 611v12M242 659v12M242 683v12M242 718v12M248-37v12M248 10v12M248 58v36M248 153v12M248 201v12M248 224v12M248 308v12M248 343v12M248 403v12M248 438v36M248 510v12M248 545v24M248 605v12M248 629v23M248 664v24M248 700v60M248 783v24M253-13v12M253 11v11M253 46v12M253 70v12M253 106v23M253 165v12M253 213v12M253 236v24M253 510v12M253 569v12M253 605v12M253 629v24M253 664v12M253 712v12M253 748v12M253 771v24M259 97v12M259 121v47M259 263v12M259 287v24M259 418v12M259 453v12M259 560v12M259 584v12M259 620v24M259 691v12M259 739v59M259 810v24M259 846v35M264 35v12M264 71v12M264 95v35M264 142v48M264 285v12M264 380v12M264 416v12M264 451v12M264 511v12M264 654v23M264 689v36M264 749v23M264 784v24M264 820v12M270 35v24M270 71v12M270 119v12M270 154v12M270 178v12M270 202v24M270 356v12M270 404v12M270 428v12M270 606v12M270 689v12M270 725v12M270 773v11M270 808v48M270 868v12M275-10v36M275 61v12M275 97v12M275 133v12M275 180v12M275 287v24M275 394v12M275 418v24M275 537v12M275 573v47M275 644v12M275 680v12M275 763v24M281-9v24M281 98v24M281 146v36M281 217v12M281 277v35M281 396v23M281 467v12M281 515v11M281 586v36M281 633v12M281 681v24M281 717v35M281 776v24M286 57v36M286 200v12M286 271v12M286 295v12M286 402v12M286 462v12M286 557v12M286 604v24M286 652v12M286 711v12M286 747v12M286 771v59M286 842v12M292 0v23M292 83v12M292 118v12M292 142v12M292 166v12M292 202v23M292 237v12M292 261v12M292 309v12M292 451v12M292 582v12M292 630v12M292 677v48M292 749v11M292 820v12M297-19v36M297 41v23M297 76v24M297 112v12M297 195v24M297 433v12M297 457v12M297 504v12M297 528v12M297 564v23M297 599v12M297 623v12M297 647v24M297 683v11M297 730v36M303 60v12M303 96v12M303 120v12M303 155v12M303 215v12M303 262v12M303 286v12M303 346v12M303 393v12M303 417v12M303 500v12M303 524v12M303 548v24M303 583v24M303 631v12M303 679v59M303 774v12M308 183v24M308 242v12M308 397v24M308 444v36M308 504v47M308 563v12M308 599v48M308 718v71M314 25v12M314 84v12M314 132v12M314 167v12M314 441v12M314 524v24M314 584v11M314 619v12M314 667v47M314 774v24M319 49v24M319 85v12M319 132v12M319 156v12M319 180v24M319 216v12M319 251v12M319 346v12M319 394v24M319 489v12M319 620v12M319 644v59M319 727v24M319 786v12M319 810v24M325 13v12M325 37v12M325 84v24M325 120v12M325 179v12M325 203v12M325 227v24M325 298v12M325 334v12M325 489v11M325 548v12M325 596v35M325 643v24M325 679v47M325 738v72M330 5v12M330 41v11M330 76v12M330 100v12M330 124v24M330 195v12M330 219v12M330 243v23M330 326v12M330 385v12M330 421v12M330 445v12M330 528v12M330 564v12M330 611v24M330 659v12M330 706v36M330 754v12M330 790v12M336 95v12M336 142v24M336 214v23M336 380v24M336 428v12M336 558v12M336 594v12M336 630v24M336 689v36M336 761v119M341 42v24M341 78v24M341 113v96M341 244v24M341 280v12M341 304v12M341 399v12M341 482v24M341 565v12M341 613v12M341 648v12M341 672v24M341 720v35M341 779v12M341 815v12M341 839v35M347 97v59M347 192v12M347 228v12M347 299v12M347 335v12M347 370v12M347 406v12M347 584v48M347 656v12M347 680v11M347 703v24M347 751v12M347 775v23M347 834v12M347 858v12M352-10V1M352 13v12M352 37v12M352 144v12M352 215v12M352 275v24M352 441v24M352 513v47M352 572v12M352 596v36M352 679v72M352 762v36M352 810v12M358-24v12M358 35v12M358 119v12M358 499v24M358 570v12M358 594v12M358 618v24M358 654v12M358 713v24M358 749v24M363 46v12M363 93v12M363 129v24M363 177v23M363 212v12M363 248v24M363 426v12M363 486v12M363 522v11M363 557v12M363 688v12M363 724v12M363 747v12M363 795v12M363 819v59M369-33v12M369 38v24M369 110v23M369 371v12M369 431v23M369 466v12M369 490v24M369 526v12M369 550v23M369 609v12M369 633v24M369 680v12M369 728v12M374 38v23M374 156v12M374 204v12M374 252v23M374 311v12M374 371v11M374 561v12M374 596v24M374 644v12M374 668v24M374 715v24M374 751v12M374 787v59M380 17v12M380 77v12M380 112v12M380 160v12M380 184v12M380 291v24M380 374v24M380 659v24M380 695v12M380 719v24M380 755v23M380 838v12M385-16v36M385 56v35M385 139v12M385 186v24M385 246v12M385 377v12M385 412v48M385 507v12M385 531v12M385 555v12M385 579v47M385 650v12M385 686v24M385 721v12M385 745v12M385 769v12M391 97v24M391 204v12M391 264v12M391 299v12M391 561v12M391 597v11M391 620v12M391 656v48M391 715v36M391 822v24M391 858v12M396 51v24M396 99v12M396 122v12M396 241v12M396 313v12M396 491v12M396 539v11M396 574v12M396 598v12M396 646v11M396 681v12M396 705v36M396 764v36M396 824v24M402-11V1M402 36v12M402 60v24M402 96v12M402 167v12M402 203v23M402 333v24M402 488v12M402 536v23M402 571v12M402 607v12M402 678v36M402 738v24M402 773v36M407-34v24M407 97v12M407 144v12M407 168v36M407 287v12M407 430v11M407 465v12M407 501v12M407 560v12M407 608v12M407 644v47M407 703v24M407 739v23M407 786v12M413 10v24M413 141v12M413 165v12M413 331v24M413 450v12M413 545v24M413 581v12M413 652v131M418 107v11M418 130v12M418 178v12M418 225v12M418 285v12M418 368v12M418 439v12M418 487v24M418 523v12M418 547v11M418 594v12M418 618v24M418 654v11M418 689v12M418 749v23M418 784v12M418 808v36M418 856v23M424 11v12M424 130v12M424 225v12M424 285v11M424 427v12M424 534v36M424 617v12M424 641v12M424 665v24M424 701v23M424 736v24M424 772v24M429-44v11M429-9V3M429 15v24M429 86v12M429 122v12M429 146v12M429 181v12M429 384v11M429 502v24M429 538v12M429 586v47M429 645v36M429 693v71M435 42v11M435 470v11M435 493v24M435 529v12M435 600v12M435 624v12M435 648v12M435 684v11M435 731v36M440 184v24M440 303v12M440 410v12M440 588v12M440 648v11M440 683v24M440 719v12M440 743v35M440 790v12M440 814v24M446 36v12M446 72v12M446 108v23M446 369v12M446 429v11M446 452v24M446 524v23M446 607v24M446 643v11M446 666v24M446 726v12M446 750v11M451 1v12M451 97v11M451 204v11M451 263v12M451 311v11M451 394v12M451 548v24M451 608v12M451 643v60M451 715v24M451 750v12M451 774v36M451 822v12M457-38v12M457-2v12M457 57v36M457 105v12M457 152v12M457 390v12M457 450v12M457 545v12M457 580v24M457 628v12M457 664v35M457 723v24M457 783v23M462-38v12M462-14v24M462 22v12M462 46v12M462 153v23M462 236v12M462 319v12M462 390v12M462 450v36M462 498v11M462 521v12M462 557v24M462 593v23M462 640v24M462 688v47M462 759v12M462 783v12M468-24v11M468 83v23M468 487v12M468 522v12M468 546v12M468 594v24M468 629v12M468 665v24M468 701v24M468 736v36M473 22v12M473 46v24M473 82v12M473 129v12M473 213v12M473 260v12M473 439v11M473 534v12M473 557v36M473 605v36M473 653v11M473 700v12M473 736v12M473 795v12M479-9V2M479 14v48M479 74v12M479 133v12M479 252v12M479 478v12M479 502v12M479 526v35M479 573v12M479 621v12M479 656v48M479 728v24M484 74v12M484 145v12M484 228v12M484 252v12M484 300v23M484 573v12M484 644v12M484 680v24M484 716v12M484 751v12M484 811v36M490 32v12M490 91v12M490 400v12M490 507v12M490 555v12M490 626v12M490 650v36M490 698v47M490 781v36M495 47v12M495 202v12M495 321v12M495 345v11M495 392v12M495 452v11M495 487v12M495 523v36M495 618v24M495 654v12M495 701v12M495 737v48M501 19v24M501 90v12M501 138v12M501 162v12M501 281v12M501 566v12M501 590v12M501 614v23M501 661v12M501 709v12M501 744v12M501 780v12M501 804v12M506 92v12M506 187v12M506 508v12M506 544v83M506 663v23M506 698v12M506 734v12M506 758v36M506 805v12M506 841v12M506 877v12M512 233v24M512 328v12M512 542v12M512 566v12M512 590v24M512 685v71M512 768v12M512 816v23M517 14v24M517 86v11M517 656v60M517 728v23M517 835v12M523 59v12M523 95v24M523 130v12M523 154v12M523 190v12M523 249v12M523 285v12M523 344v12M523 380v12M523 523v12M523 606v12M523 713v12M523 749v12M523 772v12M523 820v36M528 86v12M528 134v12M528 193v12M528 455v12M528 502v24M528 574v24M528 621v12M528 681v12M528 716v24M528 812v23M528 847v12M528 871v12M534 58v12M534 141v12M534 177v12M534 522v12M534 605v12M534 653v95M534 771v12M539 32v11M539 79v12M539 103v12M539 150v12M539 246v11M539 376v12M539 448v12M539 495v12M539 555v12M539 590v24M539 650v12M539 709v36M539 757v12M539 781v23M539 852v12M545 37v24M545 97v12M545 216v12M545 263v24M545 430v12M545 454v11M545 549v23M545 620v12M545 644v12M545 691v24M545 739v24M545 810v12M545 846v12M550 3v12M550 50v12M550 86v24M550 145v12M550 431v12M550 466v24M550 514v24M550 585v12M550 645v35M550 692v36M550 740v36M550 799v12M556 174v12M556 209v12M556 245v24M556 352v12M556 388v12M556 459v12M556 542v12M556 602v12M556 625v24M556 709v12M556 744v24M556 792v24M556 828v23M561 12v12M561 36v12M561 59v12M561 166v24M561 250v12M561 404v12M561 452v12M561 499v12M561 559v12M561 594v24M561 642v12M561 678v12M561 701v12M561 737v24M561 797v11M561 832v12M567 99v12M567 122v12M567 420v12M567 455v24M567 515v12M567 634v47M567 693v12M567 741v24M567 776v24M567 812v48M572 30v11M572 89v12M572 267v12M572 386v12M572 422v12M572 458v12M572 553v35M572 672v12M572 707v12M572 814v24M578 95v12M578 344v12M578 416v12M578 463v24M578 582v12M578 618v12M578 642v12M578 665v24M578 701v24M578 737v12M578 784v24M578 820v12M578 856v12M583 131v24M583 203v12M583 310v12M583 333v24M583 464v12M583 488v24M583 536v11M583 559v12M583 619v24M583 666v24M583 702v36M583 761v12M583 785v12M583 845v23M589 166v12M589 404v12M589 428v23M589 523v12M589 582v12M589 618v24M589 654v11M589 689v12M589 737v12M589 761v11M594-41v12M594-17V7M594 19v12M594 66v12M594 102v12M594 304v12M594 340v12M594 435v12M594 494v12M594 518v12M594 554v12M594 577v24M594 625v24M594 661v12M594 732v12M600 170v12M600 218v12M600 337v12M600 408v12M600 491v12M600 551v35M600 598v36M600 705v12M600 741v24M600 788v12M600 860v12M605 11v12M605 106v24M605 142v12M605 273v11M605 498v12M605 582v12M605 617v12M605 736v12M611-43v12M611 4v12M611 52v12M611 76v12M611 111v12M611 159v24M611 278v12M611 325v24M611 373v12M611 420v12M611 444v12M611 492v12M611 527v36M611 623v11M611 670v12M611 753v24M616 195v12M616 267v12M616 290v12M616 326v12M616 350v12M616 386v11M616 409v24M616 504v12M616 528v12M616 588v12M616 623v12M616 647v12M616 671v24M616 742v24M616 790v12M616 885v12M622-9V3M622 98v12M622 146v12M622 301v11M622 408v11M622 431v24M622 467v36M622 526v24M622 574v24M622 657v12M622 693v36M622 764v12M627-23V0M627 84v12M627 107v12M627 131v12M627 357v12M627 464v12M627 500v12M627 524v11M627 690v12M627 714v12M633-2v24M633 34v12M633 177v12M633 260v12M633 343v12M633 521v24M633 557v12M633 617v23M633 676v24M633 735v24M638 83v11M638 320v12M638 344v12M638 404v12M638 451v12M638 475v12M638 534v12M638 570v36M638 618v23M638 689v12M638 725v23M644-16v12M644 32v12M644 127v12M644 198v12M644 305v12M644 341v12M644 388v12M644 460v12M644 543v24M644 603v11M644 626v36M644 710v35M644 805v12M649 14v12M649 38v12M649 490v12M649 513v12M649 620v12M649 704v12M649 739v12M649 846v12M655 131v12M655 238v12M655 274v12M655 333v12M655 369v12M655 429v11M655 500v12M655 536v11M655 607v12M655 654v24M655 714v12M655 738v23M655 773v12M660 63v12M660 253v24M660 313v12M660 349v11M660 396v12M660 444v12M660 527v24M660 563v11M660 634v12M660 753v12M666 19v12M666 43v12M666 388v12M666 554v12M666 578v12M666 625v12M666 673v12M666 744v12M671 83v24M671 143v12M671 178v12M671 499v12M671 571v12M671 606v12M671 642v24M671 690v23M671 749v12M671 785v12M677-30v12M677 113v12M677 148v12M677 291v12M677 398v24M677 529v12M677 600v12M677 660v12M677 767v12M682 2v12M682 145v12M682 264v11M682 335v12M682 430v48M682 490v11M682 537v12M682 597v23M682 632v12M682 704v11M682 822v12M688 261v12M688 332v12M688 558v12M688 665v12M688 784v12M688 855v12M693 421v12M693 445v12M693 481v12M693 504v12M693 552v12M693 576v12M693 611v12M693 647v36M693 718v12M693 754v12M699 105v12M699 248v12M699 272v24M699 308v12M699 438v12M699 474v24M699 557v12M699 593v12M699 629v12M699 736v12M699 831v12M704 22v12M704 320v35M704 438v24M704 545v12M704 783v24M710 46v12M710 177v12M710 320v12M710 450v12M710 474v12M710 557v12M710 617v12M710 653v12M710 736v12M710 831v12M715 89v12M715 232v24M715 434v12M715 517v24M715 565v12M715 624v12M715 672v23M715 743v24M721 73v23M721 334v24M721 465v12M721 489v12M721 548v24M721 608v12M721 655v12M726 56v12M726 139v12M726 365v12M726 389v24M726 508v12M726 544v12M726 603v24M732 82v12M732 106v11M732 236v12M732 355v12M732 450v12M732 486v12M732 522v12M732 617v12M732 688v12M732 724v12M737 75v12M737 360v12M737 396v12M737 598v12M737 622v11M737 657v36M743 247v12M743 283v11M743 508v12M743 544v12M743 604v11M743 663v12M748 135v12M748 527v12M748 551v12M748 587v23M748 658v12M754-19v12M754 52v12M754 171v12M754 231v12M754 255v12M754 397v24M754 457v12M754 504v24M754 564v12M754 683v12M759 164v12M759 199v12M759 223v12M759 413v12M759 485v24M759 556v12M759 604v12M759 627v12M759 675v12M759 699v12M759 723v12M765 86v12M765 347v12M765 419v12M770 54v12M770 173v12M770 351v12M770 375v12M770 589v12M770 613v12M776 276v24M776 455v12M776 514v12M776 550v12M776 574v12M776 645v12M776 681v12M776 776v12M781-2v12M781 22v12M781 331v12M781 367v12M781 652v12M787 54v12M787 339v12M787 363v12M787 411v11M787 553v24M792-49v12M792-25v12M792 213v12M792 403v24M792 451v23M792 486v12M792 558v11M798 21v12M798 116v12M798 235v12M798 366v12M798 425v12M798 449v12M798 651v24M798 687v12M803 3v12M803 229v12M803 527v11M809 147v12M809 313v12M809 361v12M809 646v12M814 60v12M814 428v12M814 535v12M814 631v11M820-26v12M820 414v12M820 521v12M820 556v12M825 195v12M825 350v12M825 528v12M825 695v12M831 48v12M831 131v12M831 322v12M831 512v12M831 560v23M836 59v11M836 94v12M842 64v12M842 278v12M842 469v12M847 444v12M847 574v12M853 68v12M853 472v12M853 496v12M858 513v24M858 549v12M864 445v11M864 575v12M869 69v24M869 581v11M875 370v12M880 67v12M880 400v23M891 53v12M891 493v12M897 469v12M902 36v12M902 488v12M924 56v12" transform="matrix(0 -1.1189 -.85216 0 770 1045)"/>
  </g>
</svg>
